<svg xmlns="http://www.w3.org/2000/svg" width="98.472" height="75.236" viewBox="0 0 98.472 75.236">
  <g id="AI" transform="translate(-1065.853 -3940.05)">
    <g id="Group_635" data-name="Group 635" transform="translate(1086.703 3940.229)">
      <path id="Path_1713" data-name="Path 1713" d="M5905.684,1972.222c-17.188,0-17.323-17.553-38.79-16.9s3.843-24.824,9.237-40.155,8.782-25.559,29.552,0,26.964,26.475,29.962,40.155S5922.873,1972.222,5905.684,1972.222Z" transform="translate(-5858.393 -1899.6)" fill="#feda57" opacity="0.2"/>
    </g>
    <g id="ai-2" data-name="ai" transform="translate(-420.026 4144.773)">
      <path id="Path_9911" data-name="Path 9911" d="M1529.616-158.447q5.168.031,10.337,0a.709.709,0,0,1,.744.51,3.6,3.6,0,0,0,3.026,2.126,3.779,3.779,0,0,0,4.026-2.905,3.784,3.784,0,0,0-2.393-4.354,3.7,3.7,0,0,0-4.633,1.874.81.81,0,0,1-.862.562q-5.1-.032-10.191,0c-.471,0-.627-.107-.619-.6.029-1.811,0-3.624.016-5.436.005-.63-.268-1.44.114-1.843s1.207-.06,1.828-.143c.54-.072.8.132,1.042.623a3.717,3.717,0,0,0,4.129,1.937,3.834,3.834,0,0,0,2.93-3.434,3.752,3.752,0,0,0-2.479-3.756,3.507,3.507,0,0,0-4.3,1.384,1.761,1.761,0,0,1-2.014,1,3.328,3.328,0,0,0-.732,0c-.431.052-.531-.135-.526-.54q.029-2.607,0-5.215c-.005-.426.075-.593.554-.59,3.666.022,7.332.015,11,.008a1.532,1.532,0,0,1,1.171.486c.614.631,1.231,1.26,1.87,1.865a1.122,1.122,0,0,0,1.687.1,1.15,1.15,0,0,0-.125-1.69c-.61-.635-1.251-1.24-1.866-1.87a3.52,3.52,0,0,0-2.683-1.105c-3.665.026-7.331,0-11,.021-.478,0-.627-.117-.612-.6.036-1.125.039-2.253,0-3.378-.018-.506.162-.6.622-.594,2.712.02,5.425-.006,8.138.018a3.453,3.453,0,0,0,2.613-1.091c1.168-1.184,2.358-2.347,3.524-3.533a.867.867,0,0,1,1.013-.306,3.088,3.088,0,0,0,1.735,0,3.754,3.754,0,0,0,2.644-4.862,3.775,3.775,0,0,0-4.943-2.257,3.737,3.737,0,0,0-1.955,5.166c.148.309.164.484-.1.737-1.176,1.141-2.331,2.3-3.488,3.466a1.478,1.478,0,0,1-1.1.469c-2.713-.006-5.425-.015-8.138.008-.472,0-.565-.151-.56-.585.022-1.812.009-3.624.009-5.436,0-1.269,0-1.221,1.263-1.287a1.6,1.6,0,0,1,1.76.939,3.531,3.531,0,0,0,4.126,1.55,3.767,3.767,0,0,0,2.747-3.569,3.767,3.767,0,0,0-2.567-3.558,3.5,3.5,0,0,0-4.235,1.4,1.72,1.72,0,0,1-2,1.01,1.451,1.451,0,0,0-.439,0c-.563.1-.681-.164-.713-.681a8.617,8.617,0,0,0-4.434-7.15,12.468,12.468,0,0,0-3.2-1.152h-2.64c-.168.262-.471.209-.708.271a8.457,8.457,0,0,0-5.453,4.1,1.334,1.334,0,0,1-1.344.791,9.25,9.25,0,0,0-9.058,8.543c-.027.416-.124.521-.557.483a9.292,9.292,0,0,0-9.824,11.681c.2.769-.017,1.03-.564,1.415a11.955,11.955,0,0,0-5.292,9.049,12.362,12.362,0,0,0,5.712,11.916c.3.206.416.353.277.752a8.8,8.8,0,0,0-.312,4.624,9.176,9.176,0,0,0,2.067,4.3,1.124,1.124,0,0,0,1.617.251,1.112,1.112,0,0,0,.168-1.573c-.172-.267-.38-.509-.555-.774a6.9,6.9,0,0,1-1.163-4.8,7.078,7.078,0,0,1,3.563-5.343,1.127,1.127,0,0,0,.485-1.615,1.128,1.128,0,0,0-1.663-.271,8.726,8.726,0,0,0-2.686,2.346c-.22.3-.375.39-.743.148a10.532,10.532,0,0,1-4.077-12.006,10.567,10.567,0,0,1,9.677-7.122c.906-.023,1.386-.46,1.365-1.182s-.535-1.082-1.448-1.055a12.326,12.326,0,0,0-3.726.662c-.314.109-.454.121-.556-.262a6.717,6.717,0,0,1,.5-4.977,7.078,7.078,0,0,1,8.233-3.739c1.259.276,1.8-.166,1.7-1.454a8,8,0,0,1,.432-3.167,7.165,7.165,0,0,1,7.391-4.571,7.061,7.061,0,0,1,6.393,6.855c.06.826.528,1.33,1.194,1.287s1.057-.559,1.007-1.421a9.022,9.022,0,0,0-5.7-8.239c-.683-.306-.621-.539-.245-1a6.6,6.6,0,0,1,6.238-2.591,6.694,6.694,0,0,1,5.729,6.178c.01.4-.112.5-.483.478-.536-.027-1.076-.025-1.613,0a1.1,1.1,0,0,0-1.1,1.062,1.113,1.113,0,0,0,1.107,1.129,15.637,15.637,0,0,0,1.612,0c.385-.023.492.1.489.487q-.027,3.2,0,6.391c0,.4-.141.478-.5.477-2.737-.013-5.475.018-8.211-.016a3.626,3.626,0,0,1-3.778-3.5c-.075-.8-.5-1.236-1.178-1.21s-1.049.485-1.027,1.311A5.809,5.809,0,0,0,1518-184.01q4.032.038,8.065-.009c.585-.007.77.1.767.738q-.044,8.522,0,17.043c0,.686-.209.772-.811.77-5.475-.023-10.949-.013-16.424-.013a5.356,5.356,0,0,0-.659.011,1.158,1.158,0,0,0-1.049,1.128,1.113,1.113,0,0,0,1.081,1.072c.243.02.489.015.733.015,5.475,0,10.949.008,16.423-.011.523,0,.7.092.7.668q-.04,6.905,0,13.811c0,.586-.185.68-.7.657-.9-.04-1.809-.033-2.712,0a5.628,5.628,0,0,0-5.585,5.534,1.1,1.1,0,0,0,1.018,1.2c.664.042,1.125-.452,1.2-1.285a3.337,3.337,0,0,1,3.005-3.161c1.119-.156,2.246-.024,3.367-.076.35-.016.394.156.394.443-.007,2.4-.012,4.8,0,7.2,0,.367-.127.453-.465.44a11.843,11.843,0,0,0-1.684.019,1.059,1.059,0,0,0-1.037,1.121,1.036,1.036,0,0,0,1.065,1.081c.473.024.948,0,1.538,0a6.525,6.525,0,0,1-5.614,3.867,6.417,6.417,0,0,1-5.871-2.79c-.283-.382-.311-.543.209-.728a8.371,8.371,0,0,0,2.942-1.874,1.111,1.111,0,0,0,.149-1.576,1.121,1.121,0,0,0-1.573-.126,4.538,4.538,0,0,0-.4.323,6.844,6.844,0,0,1-2.895,1.485,7.154,7.154,0,0,1-8.837-6.58.761.761,0,0,1,.553-.877,6.77,6.77,0,0,0,1.9-1.213,1.031,1.031,0,0,0,.192-1.45,1.011,1.011,0,0,0-1.409-.349,4.833,4.833,0,0,0-.68.429,6.889,6.889,0,0,1-3.09,1.231c-.554.071-1.122.032-1.682.074a1.112,1.112,0,0,0-1.127,1.116,1.08,1.08,0,0,0,1.057,1.1,2.962,2.962,0,0,0,1.02.032c.85-.224,1.014.059,1.142.918a9.242,9.242,0,0,0,9.347,8,.81.81,0,0,1,.847.5,8.7,8.7,0,0,0,3.631,3.607c.851.474,1.819.593,2.68,1.012h2.64a1.1,1.1,0,0,1,.254-.123,8.706,8.706,0,0,0,7.164-6.585,13.989,13.989,0,0,0,.261-4.015c0-.395.085-.564.524-.558,1.637.024,3.275.013,4.912.007a1.522,1.522,0,0,1,1.166.506c.626.653,1.256,1.306,1.926,1.913a.674.674,0,0,1,.149.928,3.458,3.458,0,0,0,.623,3.88,3.51,3.51,0,0,0,3.765,1.158,3.716,3.716,0,0,0,2.678-4.6,3.748,3.748,0,0,0-4.645-2.6.753.753,0,0,1-.887-.217c-.7-.723-1.421-1.416-2.124-2.131a3.465,3.465,0,0,0-2.627-1.073c-1.637.018-3.275-.006-4.912.012-.394,0-.557-.078-.55-.518q.038-2.387,0-4.775c-.006-.439.1-.589.57-.585q4.215.033,8.431,0a.719.719,0,0,1,.759.495,3.706,3.706,0,0,0,4.25,2.064,3.834,3.834,0,0,0,2.909-3.683,3.787,3.787,0,0,0-2.971-3.622,3.656,3.656,0,0,0-4.181,2.048.7.7,0,0,1-.747.495q-4.215-.032-8.431,0c-.425,0-.6-.07-.591-.553.028-2.081.025-4.163,0-6.244C1529.048-158.312,1529.154-158.449,1529.616-158.447Zm14.452-2.627a1.565,1.565,0,0,1,1.517,1.488,1.544,1.544,0,0,1-1.512,1.561,1.579,1.579,0,0,1-1.514-1.483A1.587,1.587,0,0,1,1544.068-161.074Zm-8.693-10.192a1.539,1.539,0,0,1,1.516,1.467,1.548,1.548,0,0,1-1.545,1.527,1.518,1.518,0,0,1-1.5-1.48A1.507,1.507,0,0,1,1535.375-171.266Zm10.354-22.8a1.566,1.566,0,0,1,1.6,1.47,1.6,1.6,0,0,1-1.479,1.537,1.564,1.564,0,0,1-1.588-1.491A1.54,1.54,0,0,1,1545.729-194.065Zm-10.508-2.045a1.517,1.517,0,0,1,1.481,1.491,1.529,1.529,0,0,1-1.543,1.509,1.5,1.5,0,0,1-1.476-1.5A1.5,1.5,0,0,1,1535.22-196.109Zm5.968,58.635a1.466,1.466,0,0,1,1.481,1.473,1.5,1.5,0,0,1-1.518,1.522,1.488,1.488,0,0,1-1.478-1.487A1.461,1.461,0,0,1,1541.188-137.475Zm1.021-14a1.516,1.516,0,0,1,1.488,1.489,1.533,1.533,0,0,1-1.516,1.537,1.526,1.526,0,0,1-1.482-1.494A1.511,1.511,0,0,1,1542.21-151.47Z" transform="translate(0 0)" fill="#1a1818"/>
      <path id="Path_9912" data-name="Path 9912" d="M1560.955-88.126c-.4.1-.82.1-1.222.184a1.029,1.029,0,0,0-.864,1.171,1.105,1.105,0,0,0,1.157,1,6.79,6.79,0,0,0,6.682-6.748,6.746,6.746,0,0,0-6.627-6.707,1.11,1.11,0,0,0-1.234,1.136c.037.636.5,1.011,1.333,1.08a4.449,4.449,0,0,1,4.283,4.291A4.409,4.409,0,0,1,1560.955-88.126Z" transform="translate(-59.558 -86.113)" fill="#1a1818"/>
      <path id="Path_9913" data-name="Path 9913" d="M1553.977,59.167a3.414,3.414,0,0,0,.1-.5,3.348,3.348,0,0,1,2.488-3,4.209,4.209,0,0,1,1.23-.12c2.93,0,5.86,0,8.79-.007,1.077,0,1.681-.842,1.23-1.664a1.257,1.257,0,0,0-1.257-.575h-4.835v.056c-1.635,0-3.278-.1-4.9.023a5.509,5.509,0,0,0-4.99,5.533,1.09,1.09,0,0,0,2.152.256Z" transform="translate(-53.829 -210.61)" fill="#1a1818"/>
      <path id="Path_9914" data-name="Path 9914" d="M1606.261,88.087a4.355,4.355,0,0,1-2.109.733,1.042,1.042,0,0,0-.967,1.221,1.14,1.14,0,0,0,1.254.973,5.612,5.612,0,0,0,5.338-5.608,5.711,5.711,0,0,0-.848-2.774,5.444,5.444,0,0,0-4.572-2.6,1.1,1.1,0,0,0-.2,2.193c.241.042.484.068.724.116a3.061,3.061,0,0,1,2.531,2.35A3.136,3.136,0,0,1,1606.261,88.087Z" transform="translate(-95.744 -232.428)" fill="#1a1818"/>
      <path id="Path_9915" data-name="Path 9915" d="M1665.682-53.777c-.864.089-1.308.52-1.265,1.211s.539,1.056,1.41,1a4.781,4.781,0,0,0,4.52-4.828,4.849,4.849,0,0,0-4.709-4.821,1.049,1.049,0,0,0-1.184.862,1.018,1.018,0,0,0,.63,1.25,2.988,2.988,0,0,0,.785.158A2.575,2.575,0,0,1,1668-55.6,2.518,2.518,0,0,1,1665.682-53.777Z" transform="translate(-145.73 -117.139)" fill="#1a1818"/>
      <path id="Path_9916" data-name="Path 9916" d="M1597.052-55.143a1,1,0,0,0,.942.958c.24.023.485,0,.924,0a7.779,7.779,0,0,0,5.914-3.628,7.3,7.3,0,0,0,1.259-4.2,1.094,1.094,0,0,0-1.068-1.159,1.08,1.08,0,0,0-1.126,1.01c-.039.241-.089.481-.109.724a5.653,5.653,0,0,1-5.3,5.031,2.525,2.525,0,0,0-.714.13A1.007,1.007,0,0,0,1597.052-55.143Z" transform="translate(-90.737 -115.542)" fill="#1a1818"/>
      <path id="Path_9917" data-name="Path 9917" d="M1530.474-15.693a1.058,1.058,0,0,0-1.184-1.1,1.122,1.122,0,0,0-1.01,1.287,5.857,5.857,0,0,0,1.933,4.128,6.155,6.155,0,0,0,4.82,1.515c.866,0,1.452.01,2.038,0,.859-.017,1.33-.428,1.313-1.124s-.51-1.089-1.364-1.1c-.757-.008-1.518-.054-2.27.008A3.778,3.778,0,0,1,1530.474-15.693Z" transform="translate(-34.608 -153.395)" fill="#1a1818"/>
      <path id="Path_9918" data-name="Path 9918" d="M1603.833-149.411a2.6,2.6,0,0,1,1.888-2.278,9.723,9.723,0,0,1,1.083-.136,1.034,1.034,0,0,0,.931-1.125,1.061,1.061,0,0,0-1.02-1.057,4.818,4.818,0,0,0-5.071,4.475,1.125,1.125,0,0,0,.993,1.158A1.122,1.122,0,0,0,1603.833-149.411Z" transform="translate(-94.493 -41.371)" fill="#1a1818"/>
      <path id="Path_9919" data-name="Path 9919" d="M1652.692,55.514c1.466.03,2.933.027,4.4,0a1.172,1.172,0,0,0,1.22-1.119,1.147,1.147,0,0,0-1.217-1.1c-.708-.029-1.417-.006-2.126-.006v0c-.757,0-1.516-.025-2.272.007a1.09,1.09,0,0,0-1.168,1.06A1.121,1.121,0,0,0,1652.692,55.514Z" transform="translate(-135.21 -210.594)" fill="#1a1818"/>
      <path id="Path_9920" data-name="Path 9920" d="M1827.721-26.8a2.332,2.332,0,0,1-2.68-.98,6.1,6.1,0,0,0-.723-.727,1.146,1.146,0,0,0-1.687-.07,1.125,1.125,0,0,0,.1,1.631c.519.551,1.047,1.1,1.613,1.6a.787.787,0,0,1,.228,1,3.488,3.488,0,0,0,1,3.933,3.584,3.584,0,0,0,4.006.694,3.755,3.755,0,0,0,2.292-3.454A3.593,3.593,0,0,0,1827.721-26.8Zm1.884,3.628a1.468,1.468,0,0,1-1.453,1.5,1.474,1.474,0,0,1-1.549-1.48,1.468,1.468,0,0,1,1.453-1.5A1.468,1.468,0,0,1,1829.6-23.171Z" transform="translate(-274.626 -143.504)" fill="#1a1818"/>
      <path id="Path_9921" data-name="Path 9921" d="M1825.925-95.987a3.786,3.786,0,0,0,3.745,3.789,3.772,3.772,0,0,0,3.743-3.783,3.774,3.774,0,0,0-3.773-3.755A3.79,3.79,0,0,0,1825.925-95.987Zm3.777-1.468a1.532,1.532,0,0,1,1.5,1.481,1.543,1.543,0,0,1-1.559,1.505,1.555,1.555,0,0,1-1.5-1.49A1.538,1.538,0,0,1,1829.7-97.455Z" transform="translate(-277.562 -85.695)" fill="#1a1818"/>
      <path id="Path_9922" data-name="Path 9922" d="M1823.486,116.556a3.789,3.789,0,0,0-3.772,3.76,3.778,3.778,0,0,0,7.556-.011A3.788,3.788,0,0,0,1823.486,116.556Zm-.051,5.225a1.462,1.462,0,0,1-1.442-1.51,1.5,1.5,0,1,1,3,.041A1.464,1.464,0,0,1,1823.435,121.781Z" transform="translate(-272.492 -262.244)" fill="#1a1818"/>
      <path id="Path_9923" data-name="Path 9923" d="M1849.654,53.756a3.813,3.813,0,0,0-3.768,3.778,3.748,3.748,0,1,0,3.768-3.778Zm-.02,5.272a1.5,1.5,0,1,1,.011-2.992,1.5,1.5,0,1,1-.011,2.992Z" transform="translate(-293.856 -210.983)" fill="#1a1818"/>
    </g>
  </g>
</svg>
