<svg xmlns="http://www.w3.org/2000/svg" width="231.96" height="194.23" viewBox="0 0 231.96 194.23">
  <g id="app" transform="translate(267 -202.5)">
    <g id="Path_2093" data-name="Path 2093" transform="translate(0 0)" fill="#0075c3">
      <path d="M -49.88552093505859 365.3500061035156 L -252.1545562744141 365.3500061035156 C -259.7889709472656 365.3500061035156 -266 359.1389465332031 -266 351.5045166015625 L -266 336.5500793457031 L -266 333.7700500488281 L -266 217.3454284667969 C -266 209.7109832763672 -259.7889709472656 203.4999237060547 -252.1545562744141 203.4999237060547 L -49.88552093505859 203.4999237060547 C -42.25110626220703 203.4999237060547 -36.0400505065918 209.7109832763672 -36.0400505065918 217.3454284667969 L -36.0400505065918 351.5045166015625 C -36.0400505065918 359.1389465332031 -42.25110626220703 365.3500061035156 -49.88552093505859 365.3500061035156 Z M -261.219970703125 337.5500793457031 L -261.219970703125 351.5045166015625 C -261.219970703125 356.5032958984375 -257.1532287597656 360.570068359375 -252.1545562744141 360.570068359375 L -49.88552093505859 360.570068359375 C -44.88681411743164 360.570068359375 -40.82004928588867 356.5032958984375 -40.82004928588867 351.5045166015625 L -40.82004928588867 337.5500793457031 L -261.219970703125 337.5500793457031 Z M -148.6301116943359 332.7700500488281 L -40.82004928588867 332.7700500488281 L -40.82004928588867 217.3454284667969 C -40.82004928588867 212.3467254638672 -44.88681411743164 208.2799530029297 -49.88552093505859 208.2799530029297 L -148.6301116943359 208.2799530029297 L -148.6301116943359 332.7700500488281 Z M -261.219970703125 332.7700500488281 L -153.4101409912109 332.7700500488281 L -153.4101409912109 208.2799530029297 L -252.1545562744141 208.2799530029297 C -257.1532287597656 208.2799530029297 -261.219970703125 212.3467254638672 -261.219970703125 217.3454284667969 L -261.219970703125 332.7700500488281 Z" stroke="none"/>
      <path d="M -252.154541015625 204.4999389648438 C -259.2370300292969 204.4999389648438 -265 210.2629089355469 -265 217.3453979492188 L -265 351.5045166015625 C -265 358.5871276855469 -259.2370300292969 364.3499755859375 -252.154541015625 364.3499755859375 L -49.88551330566406 364.3499755859375 C -42.80300903320312 364.3499755859375 -37.0400390625 358.5871276855469 -37.0400390625 351.5045166015625 L -37.0400390625 217.3453979492188 C -37.0400390625 210.2629089355469 -42.80300903320312 204.4999389648438 -49.88551330566406 204.4999389648438 L -252.154541015625 204.4999389648438 M -152.4101409912109 333.7700500488281 L -262.219970703125 333.7700500488281 L -262.219970703125 217.3453979492188 C -262.219970703125 211.795654296875 -257.7042846679688 207.2799682617188 -252.154541015625 207.2799682617188 L -152.4101409912109 207.2799682617188 L -152.4101409912109 333.7700500488281 M -39.820068359375 333.7700500488281 L -149.6301116943359 333.7700500488281 L -149.6301116943359 207.2799682617188 L -49.88551330566406 207.2799682617188 C -44.33575439453125 207.2799682617188 -39.820068359375 211.795654296875 -39.820068359375 217.3453979492188 L -39.820068359375 333.7700500488281 M -49.88551330566406 361.570068359375 L -252.154541015625 361.570068359375 C -257.7042846679688 361.570068359375 -262.219970703125 357.0542602539062 -262.219970703125 351.5045166015625 L -262.219970703125 336.5500793457031 L -39.820068359375 336.5500793457031 L -39.820068359375 351.5045166015625 C -39.820068359375 357.0542602539062 -44.33575439453125 361.570068359375 -49.88551330566406 361.570068359375 M -252.154541015625 202.4999389648438 L -49.88551330566406 202.4999389648438 C -41.69970703125 202.4999389648438 -35.0400390625 209.1595764160156 -35.0400390625 217.3453979492188 L -35.0400390625 351.5045166015625 C -35.0400390625 359.6903381347656 -41.69970703125 366.3499755859375 -49.88551330566406 366.3499755859375 L -252.154541015625 366.3499755859375 C -260.34033203125 366.3499755859375 -267 359.6903381347656 -267 351.5045166015625 L -267 217.3453979492188 C -267 209.1595764160156 -260.34033203125 202.4999389648438 -252.154541015625 202.4999389648438 Z M -154.4101409912109 209.2799682617188 L -252.154541015625 209.2799682617188 C -256.6018371582031 209.2799682617188 -260.219970703125 212.8981018066406 -260.219970703125 217.3453979492188 L -260.219970703125 331.7700500488281 L -154.4101409912109 331.7700500488281 L -154.4101409912109 209.2799682617188 Z M -41.820068359375 331.7700500488281 L -41.820068359375 217.3453979492188 C -41.820068359375 212.8981018066406 -45.438232421875 209.2799682617188 -49.88551330566406 209.2799682617188 L -147.6301116943359 209.2799682617188 L -147.6301116943359 331.7700500488281 L -41.820068359375 331.7700500488281 Z M -41.820068359375 338.5500793457031 L -260.219970703125 338.5500793457031 L -260.219970703125 351.5045166015625 C -260.219970703125 355.9518737792969 -256.6018371582031 359.570068359375 -252.154541015625 359.570068359375 L -49.88551330566406 359.570068359375 C -45.438232421875 359.570068359375 -41.820068359375 355.9518737792969 -41.820068359375 351.5045166015625 L -41.820068359375 338.5500793457031 Z" stroke="none" fill="#0075c3"/>
    </g>
    <g id="Path_2094" data-name="Path 2094" transform="translate(-7.077 -13.017)" fill="#00a1ed">
      <path d="M -118.486686706543 408.8465270996094 L -119.3866882324219 408.8465270996094 L -168.5000152587891 408.8465270996094 L -169.4000091552734 408.8465270996094 L -169.4000091552734 407.946533203125 L -169.4000091552734 405.16650390625 L -169.4000091552734 404.2665100097656 L -168.5000152587891 404.2665100097656 L -146.4649963378906 404.2665100097656 L -146.4649963378906 382 L -146.4649963378906 381.1000061035156 L -145.5649871826172 381.1000061035156 L -142.7850189208984 381.1000061035156 L -141.8850250244141 381.1000061035156 L -141.8850250244141 382 L -141.8850250244141 404.2665100097656 L -119.3866882324219 404.2665100097656 L -118.486686706543 404.2665100097656 L -118.486686706543 405.16650390625 L -118.486686706543 407.946533203125 L -118.486686706543 408.8465270996094 Z" stroke="none"/>
      <path d="M -145.5649871826172 382 L -145.5649871826172 405.16650390625 L -168.5000305175781 405.16650390625 L -168.5000305175781 407.946533203125 L -119.3866882324219 407.946533203125 L -119.3866882324219 405.16650390625 L -142.7850189208984 405.16650390625 L -142.7850189208984 382 L -145.5649871826172 382 M -147.364990234375 380.1999816894531 L -140.9850158691406 380.1999816894531 L -140.9850158691406 403.3665161132812 L -117.5866851806641 403.3665161132812 L -117.5866851806641 409.7465515136719 L -170.3000183105469 409.7465515136719 L -170.3000183105469 403.3665161132812 L -147.364990234375 403.3665161132812 L -147.364990234375 380.1999816894531 Z" stroke="none" fill="#00a1ed"/>
    </g>
    <g id="Rectangle_63" data-name="Rectangle 63" transform="translate(-164.92 346.743)" fill="#00a1ed" stroke="#00a1ed" stroke-width="1.8">
      <rect width="25.947" height="2.78" stroke="none"/>
      <rect x="-0.9" y="-0.9" width="27.747" height="4.58" fill="none"/>
    </g>
    <g id="Path_2095" data-name="Path 2095" transform="translate(-1.467 -6.857)" fill="#4ec9ff">
      <path d="M -224.6399993896484 329.47998046875 L -225.5400085449219 329.47998046875 L -245.0000610351562 329.47998046875 L -245.9000701904297 329.47998046875 L -245.9000701904297 328.5799865722656 L -245.9000701904297 298.0000305175781 L -245.9000701904297 297.1000366210938 L -245.0000610351562 297.1000366210938 L -225.5400085449219 297.1000366210938 L -224.6399993896484 297.1000366210938 L -224.6399993896484 298.0000305175781 L -224.6399993896484 328.5799865722656 L -224.6399993896484 329.47998046875 Z M -241.3199462890625 324.8999633789062 L -229.2199401855469 324.8999633789062 L -229.2199401855469 301.6800231933594 L -241.3199462890625 301.6800231933594 L -241.3199462890625 324.8999633789062 Z" stroke="none"/>
      <path d="M -225.5400085449219 328.5799865722656 L -225.5400085449219 298.0000305175781 L -245.0000610351562 298.0000305175781 L -245.0000610351562 328.5799865722656 L -225.5400085449219 328.5799865722656 M -242.2199401855469 300.780029296875 L -228.3199462890625 300.780029296875 L -228.3199462890625 325.7999572753906 L -242.2199401855469 325.7999572753906 L -242.2199401855469 300.780029296875 M -223.7400054931641 330.3799743652344 L -246.8000640869141 330.3799743652344 L -246.8000640869141 296.2000427246094 L -223.7400054931641 296.2000427246094 L -223.7400054931641 330.3799743652344 Z M -240.4199523925781 323.9999694824219 L -230.1199493408203 323.9999694824219 L -230.1199493408203 302.5800170898438 L -240.4199523925781 302.5800170898438 L -240.4199523925781 323.9999694824219 Z" stroke="none" fill="#4ec9ff"/>
    </g>
    <g id="Path_2096" data-name="Path 2096" transform="translate(-3.813 -2.237)" fill="#4ec9ff">
      <path d="M -192.6399536132812 324.8599548339844 L -193.5399475097656 324.8599548339844 L -213 324.8599548339844 L -213.8999938964844 324.8599548339844 L -213.8999938964844 323.9599609375 L -213.8999938964844 234.9999237060547 L -213.8999938964844 234.0999298095703 L -213 234.0999298095703 L -193.5399475097656 234.0999298095703 L -192.6399536132812 234.0999298095703 L -192.6399536132812 234.9999237060547 L -192.6399536132812 323.9599609375 L -192.6399536132812 324.8599548339844 Z M -209.3199768066406 320.2799377441406 L -197.2199554443359 320.2799377441406 L -197.2199554443359 238.6798706054688 L -209.3199768066406 238.6798706054688 L -209.3199768066406 320.2799377441406 Z" stroke="none"/>
      <path d="M -193.5399475097656 323.9599609375 L -193.5399475097656 234.9999237060547 L -213 234.9999237060547 L -213 323.9599609375 L -193.5399475097656 323.9599609375 M -210.219970703125 237.7798614501953 L -196.3199615478516 237.7798614501953 L -196.3199615478516 321.179931640625 L -210.219970703125 321.179931640625 L -210.219970703125 237.7798614501953 M -191.7399444580078 325.7599487304688 L -214.8000030517578 325.7599487304688 L -214.8000030517578 233.1999206542969 L -191.7399444580078 233.1999206542969 L -191.7399444580078 325.7599487304688 Z M -208.4199676513672 319.3799438476562 L -198.1199645996094 319.3799438476562 L -198.1199645996094 239.5798645019531 L -208.4199676513672 239.5798645019531 L -208.4199676513672 319.3799438476562 Z" stroke="none" fill="#4ec9ff"/>
    </g>
    <g id="Path_2097" data-name="Path 2097" transform="translate(-6.16 -5.097)" fill="#4ec9ff">
      <path d="M -160.6399841308594 327.7200012207031 L -161.5399780273438 327.7200012207031 L -180.9999847412109 327.7200012207031 L -181.8999938964844 327.7200012207031 L -181.8999938964844 326.8200073242188 L -181.8999938964844 273.9998779296875 L -181.8999938964844 273.0998840332031 L -180.9999847412109 273.0998840332031 L -161.5399780273438 273.0998840332031 L -160.6399841308594 273.0998840332031 L -160.6399841308594 273.9998779296875 L -160.6399841308594 326.8200073242188 L -160.6399841308594 327.7200012207031 Z M -177.3200531005859 323.1400146484375 L -165.2200622558594 323.1400146484375 L -165.2200622558594 277.6799926757812 L -177.3200531005859 277.6799926757812 L -177.3200531005859 323.1400146484375 Z" stroke="none"/>
      <path d="M -180.9999847412109 273.9998779296875 L -180.9999847412109 326.8200073242188 L -161.5399780273438 326.8200073242188 L -161.5399780273438 273.9998779296875 L -180.9999847412109 273.9998779296875 M -164.320068359375 324.0400085449219 L -178.2200622558594 324.0400085449219 L -178.2200622558594 276.7799987792969 L -164.320068359375 276.7799987792969 L -164.320068359375 324.0400085449219 M -182.7999877929688 272.1998596191406 L -159.7399749755859 272.1998596191406 L -159.7399749755859 328.6199951171875 L -182.7999877929688 328.6199951171875 L -182.7999877929688 272.1998596191406 Z M -166.1200714111328 278.5799865722656 L -176.4200592041016 278.5799865722656 L -176.4200592041016 322.239990234375 L -166.1200714111328 322.239990234375 L -166.1200714111328 278.5799865722656 Z" stroke="none" fill="#4ec9ff"/>
    </g>
    <g id="Path_2098" data-name="Path 2098" transform="translate(-10.267 -3.19)" fill="#4ec9ff">
      <path d="M -86.07996368408203 326.739990234375 C -108.0368270874023 326.739990234375 -125.9000396728516 308.8768310546875 -125.9000396728516 286.9199829101562 C -125.9000396728516 264.9631958007812 -108.0368270874023 247.1000671386719 -86.07996368408203 247.1000671386719 C -86.07106781005859 247.1000671386719 -86.06219482421875 247.1000823974609 -86.05331420898438 247.10009765625 L -86.05331420898438 247.1000671386719 L -85.1533203125 247.1000671386719 L -82.37329864501953 247.1000671386719 L -81.47329711914062 247.1000671386719 L -81.47329711914062 248.0000610351562 L -81.47329711914062 266.5332641601562 L -81.47329711914062 267.4332580566406 L -82.23142242431641 267.4332580566406 L -82.28285980224609 267.7811279296875 L -83.1737060546875 267.6487731933594 C -84.13616180419922 267.5057678222656 -85.11397552490234 267.4332580566406 -86.07996368408203 267.4332580566406 C -96.82495880126953 267.4332580566406 -105.5666580200195 276.1749877929688 -105.5666580200195 286.9199829101562 C -105.5666580200195 297.6649475097656 -96.82495880126953 306.4065856933594 -86.07996368408203 306.4065856933594 C -75.33499145507812 306.4065856933594 -66.59331512451172 297.6649475097656 -66.59331512451172 286.9199829101562 C -66.59331512451172 286.1873779296875 -66.62825775146484 285.5112609863281 -66.70012664794922 284.8530578613281 L -66.79709625244141 283.965087890625 L -66.59331512451172 283.9412841796875 L -66.59331512451172 283.2399597167969 L -65.69331359863281 283.2399597167969 L -47.15999603271484 283.2399597167969 L -46.25999450683594 283.2399597167969 L -46.25999450683594 284.1399536132812 L -46.25999450683594 286.9199829101562 C -46.25999450683594 308.8768310546875 -64.12316131591797 326.739990234375 -86.07996368408203 326.739990234375 Z M -86.07996368408203 251.6799926757812 C -105.5113830566406 251.6799926757812 -121.3200073242188 267.4885864257812 -121.3200073242188 286.9199829101562 C -121.3200073242188 306.3514099121094 -105.5113830566406 322.1600646972656 -86.07996368408203 322.1600646972656 C -66.94980621337891 322.1600646972656 -51.33096694946289 306.8367004394531 -50.85128784179688 287.8199768066406 L -62.02993774414062 287.8199768066406 C -62.50487518310547 300.6750793457031 -73.11088562011719 310.9866027832031 -86.07996368408203 310.9866027832031 C -99.35039520263672 310.9866027832031 -110.1466827392578 300.1903686523438 -110.1466827392578 286.9199829101562 C -110.1466827392578 273.6495666503906 -99.35039520263672 262.853271484375 -86.07996368408203 262.853271484375 C -86.07106781005859 262.853271484375 -86.06218719482422 262.853271484375 -86.05331420898438 262.8533020019531 L -86.05331420898438 251.6800231933594 C -86.06219482421875 251.6799926757812 -86.07107543945312 251.6799926757812 -86.07996368408203 251.6799926757812 Z" stroke="none"/>
      <path d="M -86.07996368408203 325.8399963378906 C -64.61931610107422 325.8399963378906 -47.15999603271484 308.3806762695312 -47.15999603271484 286.9199829101562 L -47.15999603271484 284.1399536132812 L -65.69331359863281 284.1399536132812 L -65.69331359863281 284.7422485351562 L -65.80545043945312 284.7553405761719 C -65.73036956787109 285.4429016113281 -65.69331359863281 286.1508483886719 -65.69331359863281 286.9199829101562 C -65.69331359863281 298.1614074707031 -74.83860778808594 307.3065795898438 -86.07996368408203 307.3065795898438 C -97.32137298583984 307.3065795898438 -106.4666595458984 298.1614074707031 -106.4666595458984 286.9199829101562 C -106.4666595458984 275.6786499023438 -97.32137298583984 266.5332641601562 -86.07996368408203 266.5332641601562 C -85.06813049316406 266.5332641601562 -84.04600524902344 266.6092834472656 -83.04144287109375 266.758544921875 L -83.00812530517578 266.5332641601562 L -82.37329864501953 266.5332641601562 L -82.37329864501953 248.0000610351562 L -85.1533203125 248.0000610351562 L -85.1533203125 248.0195159912109 C -85.46190643310547 248.0120391845703 -85.76679229736328 248.0000610351562 -86.07996368408203 248.0000610351562 C -107.5407028198242 248.0000610351562 -125.0000381469727 265.4593811035156 -125.0000381469727 286.9199829101562 C -125.0000381469727 308.3806762695312 -107.5407028198242 325.8399963378906 -86.07996368408203 325.8399963378906 M -86.07996368408203 250.7799835205078 C -85.76679229736328 250.7799835205078 -85.46100616455078 250.7919464111328 -85.1533203125 250.7994384765625 L -85.1533203125 263.7875671386719 C -85.46285247802734 263.7756042480469 -85.77238464355469 263.7532653808594 -86.07996368408203 263.7532653808594 C -98.85410308837891 263.7532653808594 -109.2466812133789 274.1458435058594 -109.2466812133789 286.9199829101562 C -109.2466812133789 299.6940002441406 -98.85410308837891 310.0866088867188 -86.07996368408203 310.0866088867188 C -73.30587005615234 310.0866088867188 -62.91333770751953 299.6940002441406 -62.91333770751953 286.9199829101562 L -49.93996047973633 286.9199829101562 C -49.93996047973633 306.8479309082031 -66.15205383300781 323.06005859375 -86.07996368408203 323.06005859375 C -106.0079803466797 323.06005859375 -122.2200088500977 306.8479309082031 -122.2200088500977 286.9199829101562 C -122.2200088500977 266.9920043945312 -106.0079803466797 250.7799835205078 -86.07996368408203 250.7799835205078 M -86.07996368408203 327.6400146484375 C -108.5330810546875 327.6400146484375 -126.8000411987305 309.3730773925781 -126.8000411987305 286.9199829101562 C -126.8000411987305 264.7588500976562 -109.0047607421875 246.6757202148438 -86.95331573486328 246.2092895507812 L -86.95331573486328 246.2000732421875 L -80.57329559326172 246.2000732421875 L -80.57329559326172 268.333251953125 L -81.45471954345703 268.333251953125 L -81.52428436279297 268.8037109375 L -83.30596923828125 268.5390014648438 C -84.22478485107422 268.4024963378906 -85.15809631347656 268.333251953125 -86.07996368408203 268.333251953125 C -96.32870483398438 268.333251953125 -104.6666641235352 276.6712341308594 -104.6666641235352 286.9199829101562 C -104.6666641235352 297.1686706542969 -96.32870483398438 305.506591796875 -86.07996368408203 305.506591796875 C -75.83125305175781 305.506591796875 -67.49331665039062 297.1686706542969 -67.49331665039062 286.9199829101562 C -67.49331665039062 286.2203369140625 -67.52651977539062 285.5762023925781 -67.59481811523438 284.9507446289062 L -67.78874206542969 283.1748046875 L -67.49331665039062 283.1402893066406 L -67.49331665039062 282.3399658203125 L -45.35999298095703 282.3399658203125 L -45.35999298095703 286.9199829101562 C -45.35999298095703 309.3730773925781 -63.62689590454102 327.6400146484375 -86.07996368408203 327.6400146484375 Z M -86.95331573486328 252.5909271240234 C -105.485954284668 253.0565643310547 -120.4200057983398 268.2772521972656 -120.4200057983398 286.9199829101562 C -120.4200057983398 305.8551635742188 -105.0151290893555 321.2600402832031 -86.07996368408203 321.2600402832031 C -67.74810028076172 321.2600402832031 -52.7252197265625 306.8224182128906 -51.78655624389648 288.7200012207031 L -61.17754364013672 288.7200012207031 C -62.10271835327148 301.6500549316406 -72.91829681396484 311.8865966796875 -86.07996368408203 311.8865966796875 C -99.84666442871094 311.8865966796875 -111.0466842651367 300.6866455078125 -111.0466842651367 286.9199829101562 C -111.0466842651367 273.4457092285156 -100.3170776367188 262.4302062988281 -86.95331573486328 261.9683227539062 L -86.95331573486328 252.5909271240234 Z" stroke="none" fill="#4ec9ff"/>
    </g>
    <g id="Path_2099" data-name="Path 2099" transform="translate(-14.08 -2.605)" fill="#4ec9ff">
      <path d="M -34.96952056884766 277.9677734375 L -35.94908142089844 277.9677734375 L -54.514892578125 277.9677734375 L -55.29040908813477 277.9677734375 L -55.40501022338867 277.2007751464844 L -55.58195114135742 276.0165405273438 C -56.83420944213867 267.6323852539062 -63.56444931030273 260.9022521972656 -71.94867706298828 259.6499938964844 L -73.13311004638672 259.4728698730469 L -73.90000152587891 259.3581848144531 L -73.90000152587891 258.582763671875 L -73.90000152587891 240.0170288085938 L -73.90000152587891 239.0375061035156 L -72.92398071289062 239.1202545166016 L -71.41631317138672 239.2480621337891 C -52.07012939453125 240.8986053466797 -36.83085250854492 256.1378479003906 -35.18021011352539 275.4836120605469 L -35.05229949951172 276.9917297363281 L -34.96952056884766 277.9677734375 Z M -51.42873764038086 273.3877868652344 L -40.04334259033203 273.3877868652344 C -40.59767913818359 269.8373413085938 -41.68078231811523 266.4183349609375 -43.26861190795898 263.2106323242188 C -44.96421051025391 259.7852172851562 -47.19610214233398 256.67626953125 -49.90227890014648 253.9700927734375 C -52.60845947265625 251.2639312744141 -55.71743011474609 249.0320434570312 -59.14284896850586 247.3364410400391 C -62.35056304931641 245.7485961914062 -65.76957702636719 244.6654815673828 -69.32000732421875 244.1111145019531 L -69.32000732421875 255.4965362548828 C -65.00044250488281 256.5185241699219 -61.04999923706055 258.7309875488281 -57.85676193237305 261.9242858886719 C -54.66370391845703 265.1174621582031 -52.45112991333008 269.0680541992188 -51.42873764038086 273.3877868652344 Z" stroke="none"/>
      <path d="M -35.94908142089844 277.0677795410156 L -36.07695007324219 275.5601196289062 C -37.69029235839844 256.6515502929688 -52.58369064331055 241.758056640625 -71.49233245849609 240.1448364257812 L -73 240.0170288085938 L -73 258.582763671875 L -71.81572723388672 258.7598571777344 C -63.04389190673828 260.0700073242188 -56.00215148925781 267.1106872558594 -54.69182968139648 275.883544921875 L -54.514892578125 277.0677795410156 L -35.94908142089844 277.0677795410156 M -39.00712203979492 274.2877807617188 L -52.15190124511719 274.2877807617188 C -53.99407958984375 265.264892578125 -61.19707107543945 258.0610961914062 -70.22000885009766 256.2197570800781 L -70.22000885009766 243.0748901367188 C -53.88568115234375 245.1488647460938 -41.08097076416016 257.9534301757812 -39.00712203979492 274.2877807617188 M -33.98995208740234 278.8677673339844 L -56.0659294128418 278.8677673339844 L -56.47207260131836 276.1495361328125 C -57.66640090942383 268.1532287597656 -64.08528137207031 261.7344360351562 -72.08163452148438 260.5401000976562 L -74.80000305175781 260.1336059570312 L -74.80000305175781 238.0579833984375 L -71.34027862548828 238.3512725830078 C -51.55570983886719 240.0392150878906 -35.97146987915039 255.6234130859375 -34.28347015380859 275.4071044921875 L -33.98995208740234 278.8677673339844 Z M -50.72748947143555 272.48779296875 L -41.11096954345703 272.48779296875 C -41.68980026245117 269.3994750976562 -42.68356704711914 266.4212341308594 -44.07519912719727 263.6098937988281 C -45.72726058959961 260.2724609375 -47.90188980102539 257.2432556152344 -50.53868103027344 254.6064910888672 C -53.17546081542969 251.9697265625 -56.20465087890625 249.7950897216797 -59.54212188720703 248.1430206298828 C -62.35347747802734 246.7513885498047 -65.33169555664062 245.7575988769531 -68.42001342773438 245.1787567138672 L -68.42001342773438 254.7952423095703 C -64.20823669433594 255.9213409423828 -60.36089706420898 258.1472778320312 -57.22035980224609 261.2879028320312 C -54.08000183105469 264.4283447265625 -51.85395431518555 268.2759094238281 -50.72748947143555 272.48779296875 Z" stroke="none" fill="#4ec9ff"/>
    </g>
  </g>
</svg>
