<svg xmlns="http://www.w3.org/2000/svg" xmlns:xlink="http://www.w3.org/1999/xlink" width="1920" height="1080" viewBox="0 0 1920 1080"><defs><linearGradient id="a" x1="0.987" y1="0.015" x2="-0.007" y2="0.99" gradientUnits="objectBoundingBox"><stop offset="0" stop-color="#1198ef"/><stop offset="1" stop-color="#722fa3"/></linearGradient><clipPath id="b"><rect width="1920" height="1080" fill="#fff" stroke="#707070" stroke-width="1"/></clipPath><linearGradient id="c" x1="0.987" y1="0.015" x2="-0.007" y2="0.99" gradientUnits="objectBoundingBox"><stop offset="0" stop-color="#1198ef"/><stop offset="0.406" stop-color="#4c58c1"/><stop offset="1" stop-color="#722fa3"/></linearGradient><clipPath id="d"><rect width="1080" height="1920" transform="translate(0 1080) rotate(-90)"/></clipPath><linearGradient id="e" x1="0.5" x2="0.5" y2="1" gradientUnits="objectBoundingBox"><stop offset="0" stop-color="#4a4580" stop-opacity="0"/><stop offset="1" stop-color="#070336"/></linearGradient><linearGradient id="k" x1="0.29" y1="0.875" x2="0.29" y2="1.223" gradientUnits="objectBoundingBox"><stop offset="0" stop-color="#01c8ef"/><stop offset="0.124" stop-color="#00a1c1"/><stop offset="0.298" stop-color="#007086"/><stop offset="0.466" stop-color="#004856"/><stop offset="0.625" stop-color="#002931"/><stop offset="0.771" stop-color="#001216"/><stop offset="0.901" stop-color="#000405"/><stop offset="1"/></linearGradient><linearGradient id="l" x1="0.279" y1="1.194" x2="0.279" y2="1.353" xlink:href="#k"/><linearGradient id="m" x1="-11.604" y1="2.148" x2="-11.604" y2="1.283" gradientUnits="objectBoundingBox"><stop offset="0" stop-color="#020230"/><stop offset="0.189" stop-color="#010532"/><stop offset="0.335" stop-color="#010e3c"/><stop offset="0.465" stop-color="#011f4c"/><stop offset="0.588" stop-color="#013662"/><stop offset="0.704" stop-color="#01547f"/><stop offset="0.816" stop-color="#0179a2"/><stop offset="0.922" stop-color="#01a3cc"/><stop offset="1" stop-color="#01c8ef"/></linearGradient><linearGradient id="n" x1="-19.86" y1="3.242" x2="-19.86" y2="2.378" xlink:href="#m"/><linearGradient id="o" x1="-23.156" y1="3.77" x2="-23.156" y2="2.905" xlink:href="#m"/><linearGradient id="p" x1="-25.617" y1="4.167" x2="-25.617" y2="3.302" xlink:href="#m"/><linearGradient id="q" x1="-14.604" y1="2.774" x2="-14.604" y2="1.909" xlink:href="#m"/><linearGradient id="r" x1="1.06" y1="0.5" x2="0.355" y2="0.5" gradientUnits="objectBoundingBox"><stop offset="0" stop-color="#01c8ef"/><stop offset="0.13" stop-color="#04b0dd"/><stop offset="0.547" stop-color="#0e6ba6"/><stop offset="0.848" stop-color="#143f84"/><stop offset="1" stop-color="#172f78"/></linearGradient><radialGradient id="s" cx="1.185" cy="-0.066" r="2.72" gradientTransform="matrix(-0.579, 0, 0, 1, 1.583, 0)" gradientUnits="objectBoundingBox"><stop offset="0" stop-color="#01c8ef"/><stop offset="0.14" stop-color="#03bae4"/><stop offset="0.403" stop-color="#0895c7"/><stop offset="0.76" stop-color="#105a99"/><stop offset="1" stop-color="#172f78"/></radialGradient><radialGradient id="x" cx="1.046" cy="0.098" r="1.87" gradientTransform="matrix(-0.579, 0, 0, 1, 1.422, 0)" gradientUnits="objectBoundingBox"><stop offset="0" stop-color="#f9636b"/><stop offset="1" stop-color="#f57344"/></radialGradient><radialGradient id="z" cx="1.185" cy="-0.066" r="2.719" gradientTransform="matrix(-0.579, 0, 0, 1, 1.583, 0)" xlink:href="#x"/><radialGradient id="ab" cx="1.185" cy="-0.066" r="2.719" xlink:href="#s"/><radialGradient id="ac" cx="1.046" cy="0.098" r="1.87" xlink:href="#x"/><radialGradient id="ae" cx="1.185" cy="-0.066" r="2.719" xlink:href="#s"/><radialGradient id="ag" cx="1.185" cy="-0.066" r="2.719" xlink:href="#s"/><radialGradient id="aj" cx="1.046" cy="0.098" r="1.87" xlink:href="#x"/><radialGradient id="al" cx="1.185" cy="-0.066" r="2.72" xlink:href="#s"/><radialGradient id="am" cx="1.046" cy="0.098" r="1.87" xlink:href="#x"/><radialGradient id="ao" cx="1.185" cy="-0.066" r="2.719" xlink:href="#s"/><radialGradient id="aq" cx="1.185" cy="-0.066" r="2.72" xlink:href="#s"/><radialGradient id="ar" cx="1.046" cy="0.098" r="1.87" xlink:href="#x"/><radialGradient id="at" cx="1.185" cy="-0.066" r="2.72" xlink:href="#s"/><radialGradient id="av" cx="1.185" cy="-0.066" r="2.72" xlink:href="#s"/></defs><g clip-path="url(#b)"><rect width="1080" height="1920" transform="translate(0 1080) rotate(-90)" fill="url(#c)"/><g clip-path="url(#d)"><circle cx="101.5" cy="101.5" r="101.5" transform="translate(1447.014 -124.193) rotate(49)" opacity="0.309" fill="url(#e)" style="mix-blend-mode:overlay;isolation:isolate"/><circle cx="154.195" cy="154.195" r="154.195" transform="translate(1501.168 1034.916) rotate(137)" opacity="0.309" fill="url(#e)" style="mix-blend-mode:overlay;isolation:isolate"/><circle cx="154.195" cy="154.195" r="154.195" transform="matrix(-0.934, 0.358, -0.358, -0.934, 237.211, 1116)" opacity="0.309" fill="url(#e)" style="mix-blend-mode:overlay;isolation:isolate"/><circle cx="57.428" cy="57.428" r="57.428" transform="translate(-30.423 221.851) rotate(-113)" opacity="0.549" fill="url(#e)" style="mix-blend-mode:overlay;isolation:isolate"/><circle cx="57.428" cy="57.428" r="57.428" transform="matrix(-0.454, 0.891, -0.891, -0.454, 1997.24, 386.097)" opacity="0.309" fill="url(#e)" style="mix-blend-mode:overlay;isolation:isolate"/></g><g clip-path="url(#d)"><g transform="translate(-618.073 -72.542)" opacity="0.155"><path d="M373.651,273.368c-122.393,0-233.9,49.287-316.665,136.875a431.048,431.048,0,0,1,57.792-3.747c86.76,0,168.043,24.861,237.652,70.51a188.276,188.276,0,0,1,21.221-1.189c146.281,0,265.323,153.812,265.323,342.823V1968.35H837.246V818.641C837.246,488.321,629.282,273.368,373.651,273.368Z" transform="translate(773.463 -269.044)" fill="#3062ad"/><path d="M497.46,1968.3c255.559,0,463.522-215.026,463.522-545.346V877.791H762.746v545.165c0,189.084-118.97,342.894-265.287,342.894-146.245,0-265.287-153.81-265.287-342.894V273.248H33.937V1422.957C33.937,1753.277,241.9,1968.3,497.46,1968.3Z" transform="translate(-33.937 -273.248)" fill="#3062ad"/><path d="M507.643,279.2c-255.559,0-463.522,215.027-463.522,545.347v545.129H242.357V824.549c0-189.085,119.006-342.895,265.287-342.895,146.245,0,265.287,153.809,265.287,342.895v934.719H971.166V824.549C971.166,494.229,763.239,279.2,507.643,279.2Z" transform="translate(322.806 -64.68)" fill="#3062ad"/></g></g><g transform="translate(1065.305 138.484)"><g transform="translate(71.228)"><g transform="translate(0)"><path d="M716.678,445.363v0c-27.032-37.39-60.7-62.83-91.825-69.382l-59-12.418c-24.73-5.207-51.3-22.4-74.96-48.524L457.537,278.21c-27.126-29.944-57.906-47.993-85.258-50h0c-34.24-2.513-73.326-30.069-103.769-73.16l-13.125-18.581c-29.545-41.819-67.3-69.09-100.9-72.89h0c-44.5-5.035-74.781,28.065-77.161,84.354l-5.251,124.2L780.064,721.809l3.282-77.56C785.988,581.742,760.667,506.2,716.678,445.363Z" transform="translate(-72.073 -38.096)" opacity="0.2" fill="url(#k)" style="mix-blend-mode:lighten;isolation:isolate"/><path d="M775.432,545.772l2.544-1.841-70.927-98.1c-27.353-37.833-61.169-63.348-92.78-70l-58.992-12.418c-24.378-5.129-50.7-22.192-74.118-48.044L447.8,278.543c-27.243-30.072-58.7-48.486-86.31-50.512-33.929-2.484-72.287-29.586-102.6-72.494l-13.128-18.58c-29.809-42.2-67.94-69.7-102-73.546L70.519,55.125l-.358,3.122,73.245,8.285c33.185,3.75,70.49,30.757,99.793,72.233l13.128,18.581c30.848,43.669,70.076,71.263,104.935,73.82,26.809,1.969,57.5,20.006,84.209,49.488l33.361,36.822c23.857,26.338,50.776,43.741,75.8,49.008L613.625,378.9c30.854,6.492,63.98,31.561,90.88,68.766Z" transform="translate(-60.51 -55.125)" opacity="0.2" fill="url(#l)" style="mix-blend-mode:lighten;isolation:isolate"/><path d="M120,171.255l-8.57,202.678-.652-.414,8.57-202.678Z" transform="translate(469.916 192.59)" opacity="0.6" fill="url(#m)" style="mix-blend-mode:lighten;isolation:isolate"/><path d="M159.13,156.827l-5.991,141.685-.652-.414,5.991-141.685Z" transform="translate(299.773 161.703)" opacity="0.6" fill="url(#n)" style="mix-blend-mode:lighten;isolation:isolate"/><path d="M194.345,124.9,188.354,266.58l-.652-.414,5.991-141.685Z" transform="translate(153.958 93.346)" opacity="0.6" fill="url(#o)" style="mix-blend-mode:lighten;isolation:isolate"/><path d="M224.151,112.162,218.16,253.848l-.652-.414L223.5,111.748Z" transform="translate(30.538 66.09)" opacity="0.6" fill="url(#p)" style="mix-blend-mode:lighten;isolation:isolate"/><path d="M271.292,72.025,258.956,363.759l-.652-.414L270.64,71.611Z" transform="translate(-144.73 -19.833)" opacity="0.6" fill="url(#q)" style="mix-blend-mode:lighten;isolation:isolate"/></g></g><g transform="translate(0 58.194)"><path d="M357.943,308.63a25.527,25.527,0,0,0,12.478-2.977l83.9-48.439c3.48-2.007,5.4-4.727,5.4-7.654s-1.916-5.644-5.4-7.651l-83.452-48.527c-6.875-3.976-18.069-3.979-24.956,0l-83.895,48.436c-3.48,2.007-5.4,4.727-5.4,7.654s1.919,5.644,5.4,7.654l83.449,48.527A25.556,25.556,0,0,0,357.943,308.63Zm.443-116.694a23.936,23.936,0,0,1,11.7,2.792l83.452,48.53c2.981,1.718,4.617,3.954,4.617,6.3s-1.636,4.585-4.614,6.3l-83.9,48.439c-6.454,3.719-16.944,3.719-23.4,0l-83.449-48.527c-2.98-1.721-4.62-3.96-4.62-6.3s1.639-4.586,4.617-6.307l83.895-48.436A23.957,23.957,0,0,1,358.386,191.937Z" transform="translate(-256.614 176.263)" fill="#03a7d3"/><g transform="translate(0.371 300.429)"><path d="M256.995,240.519h0l.013-40.223,50.829,6.784L345.9,185.1c6.677-3.857,17.5-3.857,24.177,0L376,188.87l82.526,11.011v40.955l-.031-.006c-.094,2.453-1.727,4.887-4.969,6.759l-83.9,48.436c-6.677,3.854-17.5,3.854-24.174,0L262,247.5c-3.229-1.866-4.862-4.29-4.965-6.737l-.041,0Z" transform="translate(-256.995 -141.69)" fill="url(#r)"/><path d="M262,220.636,345.893,172.2c6.677-3.854,17.5-3.854,24.177,0l83.452,48.527c6.677,3.854,6.677,10.1,0,13.957l-83.9,48.436c-6.677,3.854-17.5,3.854-24.174,0L262,234.594C255.324,230.74,255.324,224.49,262,220.636Z" transform="translate(-256.992 -169.31)" fill="url(#s)"/><path d="M261.988,193.246l83.455,48.527c6.674,3.854,17.5,3.854,24.174,0l83.9-48.436c2.8-1.617,4.41-3.656,4.859-5.76.628,2.915-.983,5.958-4.859,8.2l-83.9,48.436c-6.677,3.854-17.5,3.854-24.174,0l-83.455-48.527c-3.876-2.236-5.484-5.283-4.859-8.2C257.578,189.593,259.189,191.632,261.988,193.246Z" transform="translate(-256.981 -130.399)" fill="#fff"/><g transform="translate(11.021 81.765)"><path d="M295.323,212.091l3.972,2.293V209.8l-3.972-2.293Z" transform="translate(-229.164 -169.308)" fill="#fff"/><path d="M297.969,210.564l3.972,2.293v-4.586l-3.972-2.293Z" transform="translate(-240.119 -172.578)" fill="#fff"/><path d="M300.615,209.037l3.972,2.293v-4.586l-3.972-2.293Z" transform="translate(-251.073 -175.848)" fill="#fff"/><path d="M298.451,213.244l3.972,2.293v-4.586l-3.972-2.293Z" transform="translate(-242.117 -166.841)" fill="#fff"/><path d="M300.781,211.9l3.972,2.293v-4.586l-3.972-2.293Z" transform="translate(-251.763 -169.72)" fill="#fff"/><path d="M309.1,204.137l3.972,2.293v-4.586l-3.972-2.293Z" transform="translate(-286.211 -186.336)" fill="#fff"/><path d="M316.388,199.93l3.972,2.293v-4.586l-3.972-2.293Z" transform="translate(-316.388 -195.344)" fill="#fff"/><path d="M303.26,207.509l3.972,2.293v-4.586l-3.972-2.293Z" transform="translate(-262.028 -179.118)" fill="#fff"/></g></g><path d="M335.4,247.335l56.445-32.588c2.293-1.325,2.007-3.637-.644-5.166l-55.157-31.847c-2.648-1.53-6.655-1.7-8.951-.371l-56.442,32.588c-2.3,1.325-2.007,3.637.641,5.167l55.157,31.847C329.1,248.494,333.107,248.66,335.4,247.335Z" transform="translate(-229.514 146.443)" fill="#06033e" opacity="0.4"/><path d="M267.037,234.774l46.577-26.891a4.826,4.826,0,0,0,2.013-3.847v-3.458c0-1.482-.9-2.164-2.013-1.523l-46.577,26.894a4.815,4.815,0,0,0-2.013,3.844v3.458C265.024,234.733,265.925,235.414,267.037,234.774Z" transform="translate(-138.943 194.278)" fill="#fff"/><g transform="translate(0.371 224.967)"><path d="M256.995,216.492h0l.013-40.223,50.829,6.784L345.9,161.078c6.677-3.857,17.5-3.857,24.177,0L376,164.843l82.526,11.011V216.81l-.031-.006c-.094,2.453-1.727,4.887-4.969,6.759L369.631,272c-6.677,3.854-17.5,3.854-24.174,0L262,223.471c-3.229-1.866-4.862-4.29-4.965-6.737l-.041-.006Z" transform="translate(-256.995 -117.663)" fill="url(#r)"/><path d="M262,196.609l83.895-48.436c6.677-3.854,17.5-3.854,24.177,0L453.522,196.7c6.677,3.854,6.677,10.1,0,13.957l-83.9,48.436c-6.677,3.854-17.5,3.854-24.174,0L262,210.567C255.324,206.713,255.324,200.463,262,196.609Z" transform="translate(-256.992 -145.283)" fill="url(#s)"/><path d="M273.3,182.946l48.885-28.226a15.568,15.568,0,0,1,14.086,0L384.9,183c3.888,2.246,3.888,5.886,0,8.134l-48.885,28.223a15.568,15.568,0,0,1-14.086,0L273.3,191.077C269.41,188.831,269.41,185.191,273.3,182.946Z" transform="translate(-228.33 -128.686)" fill="#06033e" opacity="0.4"/><path d="M261.988,169.219l83.455,48.527c6.674,3.854,17.5,3.854,24.174,0l83.9-48.436c2.8-1.617,4.41-3.656,4.859-5.76.628,2.915-.983,5.958-4.859,8.2l-83.9,48.436c-6.677,3.854-17.5,3.854-24.174,0l-83.455-48.527c-3.876-2.236-5.484-5.283-4.859-8.2C257.578,165.566,259.189,167.6,261.988,169.219Z" transform="translate(-256.981 -106.372)" fill="#fff"/><g transform="translate(11.021 81.765)"><path d="M295.323,188.064l3.972,2.293v-4.586l-3.972-2.293Z" transform="translate(-229.164 -145.281)" fill="#fff"/><path d="M297.969,186.537l3.972,2.293v-4.586l-3.972-2.293Z" transform="translate(-240.119 -148.551)" fill="#fff"/><path d="M300.615,185.009l3.972,2.293v-4.586l-3.972-2.293Z" transform="translate(-251.073 -151.821)" fill="#fff"/><path d="M298.451,189.217l3.972,2.293v-4.586l-3.972-2.293Z" transform="translate(-242.117 -142.814)" fill="#fff"/><path d="M300.781,187.872l3.972,2.293v-4.586l-3.972-2.293Z" transform="translate(-251.763 -145.693)" fill="#fff"/><path d="M309.1,180.11l3.972,2.293v-4.586l-3.972-2.293Z" transform="translate(-286.211 -162.309)" fill="#fff"/><path d="M316.388,175.9l3.972,2.293V173.61l-3.972-2.293Z" transform="translate(-316.388 -171.316)" fill="#fff"/><path d="M303.26,183.482l3.972,2.293v-4.586L303.26,178.9Z" transform="translate(-262.028 -155.091)" fill="#fff"/></g></g><g transform="translate(0.371 149.505)"><path d="M256.995,192.466h0l.013-40.223,50.829,6.784L345.9,137.051c6.677-3.857,17.5-3.857,24.177,0L376,140.816l82.526,11.011v40.955l-.031-.006c-.094,2.453-1.727,4.887-4.969,6.759l-83.9,48.436c-6.677,3.854-17.5,3.854-24.174,0L262,199.444c-3.229-1.866-4.862-4.29-4.965-6.737l-.041-.006Z" transform="translate(-256.995 -93.636)" fill="url(#r)"/><path d="M262,172.582l83.895-48.436c6.677-3.854,17.5-3.854,24.177,0l83.452,48.527c6.677,3.854,6.677,10.1,0,13.957l-83.9,48.436c-6.677,3.854-17.5,3.854-24.174,0L262,186.54C255.324,182.686,255.324,176.436,262,172.582Z" transform="translate(-256.992 -121.256)" fill="url(#s)"/><path d="M262,172.582l83.895-48.436c6.677-3.854,17.5-3.854,24.177,0l83.452,48.527c6.677,3.854,6.677,10.1,0,13.957l-83.9,48.436c-6.677,3.854-17.5,3.854-24.174,0L262,186.54C255.324,182.686,255.324,176.436,262,172.582Z" transform="translate(-256.992 -121.256)" fill="url(#x)"/><path d="M271.136,161.534l55.588-32.1a17.7,17.7,0,0,1,16.018,0l55.3,32.155c4.422,2.553,4.422,6.693,0,9.246l-55.588,32.1a17.7,17.7,0,0,1-16.018,0l-55.3-32.155C266.714,168.227,266.714,164.088,271.136,161.534Z" transform="translate(-233.818 -107.837)" fill="#934827"/><path d="M261.988,145.192l83.455,48.527c6.674,3.854,17.5,3.854,24.174,0l83.9-48.436c2.8-1.617,4.41-3.656,4.859-5.76.628,2.915-.983,5.958-4.859,8.2l-83.9,48.436c-6.677,3.854-17.5,3.854-24.174,0l-83.455-48.527c-3.876-2.236-5.484-5.283-4.859-8.2C257.578,141.539,259.189,143.578,261.988,145.192Z" transform="translate(-256.981 -82.345)" fill="#fff"/><g transform="translate(11.021 81.765)"><path d="M295.323,164.037l3.972,2.293v-4.586l-3.972-2.293Z" transform="translate(-229.164 -121.254)" fill="#fff"/><path d="M297.969,162.51l3.972,2.293v-4.586l-3.972-2.293Z" transform="translate(-240.119 -124.524)" fill="#fff"/><path d="M300.615,160.982l3.972,2.293V158.69l-3.972-2.293Z" transform="translate(-251.073 -127.794)" fill="#fff"/><path d="M298.451,165.19l3.972,2.293V162.9l-3.972-2.293Z" transform="translate(-242.117 -118.787)" fill="#fff"/><path d="M300.781,163.845l3.972,2.293v-4.586l-3.972-2.293Z" transform="translate(-251.763 -121.666)" fill="#fff"/><path d="M309.1,156.083l3.972,2.293V153.79L309.1,151.5Z" transform="translate(-286.211 -138.282)" fill="#fff"/><path d="M316.388,151.875l3.972,2.293v-4.586l-3.972-2.293Z" transform="translate(-316.388 -147.29)" fill="#fff"/><path d="M303.26,159.455l3.972,2.293v-4.586l-3.972-2.293Z" transform="translate(-262.028 -131.064)" fill="#fff"/></g></g><g transform="translate(0.371 75.462)"><path d="M256.995,168.892h0l.013-40.223,50.829,6.781L345.9,113.474c6.677-3.854,17.5-3.854,24.177,0L376,117.243l82.526,11.008v40.955l-.031-.006c-.094,2.453-1.727,4.887-4.969,6.759l-83.9,48.439c-6.677,3.854-17.5,3.854-24.174,0L262,175.868c-3.229-1.862-4.862-4.29-4.965-6.734l-.041-.006Z" transform="translate(-256.995 -70.059)" fill="url(#r)"/><path d="M262,149.01l83.895-48.439c6.677-3.854,17.5-3.854,24.177,0L453.522,149.1c6.677,3.854,6.677,10.1,0,13.957l-83.9,48.436c-6.677,3.857-17.5,3.857-24.174,0L262,162.968C255.324,159.114,255.324,152.864,262,149.01Z" transform="translate(-256.992 -97.681)" fill="url(#z)"/><path d="M273.3,135.342l48.885-28.223a15.568,15.568,0,0,1,14.086,0L384.9,135.395c3.888,2.246,3.888,5.886,0,8.131l-48.885,28.223a15.569,15.569,0,0,1-14.086,0L273.3,143.473C269.41,141.227,269.41,137.587,273.3,135.342Z" transform="translate(-228.33 -81.082)" fill="#934827"/><path d="M261.988,121.618l83.455,48.524c6.674,3.854,17.5,3.854,24.174,0l83.9-48.436c2.8-1.617,4.41-3.656,4.859-5.76.628,2.915-.983,5.961-4.859,8.2l-83.9,48.439c-6.677,3.854-17.5,3.854-24.174,0l-83.455-48.527c-3.876-2.239-5.484-5.283-4.859-8.2C257.578,117.962,259.189,120,261.988,121.618Z" transform="translate(-256.981 -58.768)" fill="#fff"/><g transform="translate(11.021 81.766)"><path d="M295.323,140.463l3.972,2.293V138.17l-3.972-2.293Z" transform="translate(-229.164 -97.68)" fill="#fff"/><path d="M297.969,138.935l3.972,2.293v-4.586l-3.972-2.293Z" transform="translate(-240.119 -100.949)" fill="#fff"/><path d="M300.615,137.408l3.972,2.293v-4.586l-3.972-2.293Z" transform="translate(-251.073 -104.219)" fill="#fff"/><path d="M298.451,141.615l3.972,2.293v-4.586l-3.972-2.293Z" transform="translate(-242.117 -95.212)" fill="#fff"/><path d="M300.781,140.27l3.972,2.293v-4.586l-3.972-2.293Z" transform="translate(-251.763 -98.091)" fill="#fff"/><path d="M309.1,132.508l3.972,2.293v-4.586l-3.972-2.293Z" transform="translate(-286.211 -114.707)" fill="#fff"/><path d="M316.388,128.3l3.972,2.293v-4.586l-3.972-2.293Z" transform="translate(-316.388 -123.715)" fill="#fff"/><path d="M303.26,135.88l3.972,2.293v-4.586l-3.972-2.293Z" transform="translate(-262.028 -107.489)" fill="#fff"/></g></g><g transform="translate(0.371)"><path d="M256.995,144.865h0l.013-40.223,50.829,6.781L345.9,89.447c6.677-3.854,17.5-3.854,24.177,0L376,93.216l82.526,11.008v40.955l-.031-.006c-.094,2.453-1.727,4.887-4.969,6.759l-83.9,48.439c-6.677,3.854-17.5,3.854-24.174,0L262,151.841c-3.229-1.862-4.862-4.29-4.965-6.734l-.041-.006Z" transform="translate(-256.995 -46.032)" fill="url(#r)"/><path d="M262,124.983l83.895-48.439c6.677-3.854,17.5-3.854,24.177,0l83.452,48.527c6.677,3.854,6.677,10.1,0,13.957l-83.9,48.436c-6.677,3.857-17.5,3.857-24.174,0L262,138.941C255.324,135.087,255.324,128.837,262,124.983Z" transform="translate(-256.992 -73.654)" fill="url(#ab)"/><path d="M262,124.983l83.895-48.439c6.677-3.854,17.5-3.854,24.177,0l83.452,48.527c6.677,3.854,6.677,10.1,0,13.957l-83.9,48.436c-6.677,3.857-17.5,3.857-24.174,0L262,138.941C255.324,135.087,255.324,128.837,262,124.983Z" transform="translate(-256.992 -73.654)" fill="url(#ac)"/><path d="M335.183,159.107a17.458,17.458,0,0,0,8.555-2.076l55.585-32.092c2.491-1.438,3.863-3.417,3.863-5.572s-1.373-4.13-3.863-5.568L344.033,81.65a18.654,18.654,0,0,0-17.111,0l-55.588,32.092c-2.491,1.442-3.863,3.417-3.863,5.572s1.376,4.127,3.863,5.565l55.289,32.152A17.446,17.446,0,0,0,335.183,159.107Zm.292-77.353a15.262,15.262,0,0,1,7.462,1.781l55.292,32.148c1.793,1.036,2.779,2.346,2.779,3.684s-.986,2.651-2.776,3.681L342.648,155.14a16.493,16.493,0,0,1-14.928,0l-55.292-32.148c-1.79-1.033-2.776-2.34-2.776-3.681s.986-2.651,2.773-3.681l55.588-32.1A15.271,15.271,0,0,1,335.475,81.754Z" transform="translate(-234.56 -60.987)" fill="#934827"/><path d="M261.988,97.591l83.455,48.524c6.674,3.854,17.5,3.854,24.174,0l83.9-48.436c2.8-1.617,4.41-3.656,4.859-5.76.628,2.915-.983,5.958-4.859,8.2l-83.9,48.439c-6.677,3.854-17.5,3.854-24.174,0l-83.455-48.527c-3.876-2.239-5.484-5.283-4.859-8.2C257.578,93.935,259.189,95.974,261.988,97.591Z" transform="translate(-256.981 -34.741)" fill="#fff"/><g transform="translate(11.021 81.766)"><path d="M295.323,116.436l3.972,2.293v-4.586l-3.972-2.293Z" transform="translate(-229.164 -73.653)" fill="#fff"/><path d="M297.969,114.908l3.972,2.293v-4.586l-3.972-2.293Z" transform="translate(-240.119 -76.923)" fill="#fff"/><path d="M300.615,113.381l3.972,2.293v-4.586l-3.972-2.293Z" transform="translate(-251.073 -80.192)" fill="#fff"/><path d="M298.451,117.588l3.972,2.293V115.3L298.451,113Z" transform="translate(-242.117 -71.185)" fill="#fff"/><path d="M300.781,116.243l3.972,2.293v-4.586l-3.972-2.293Z" transform="translate(-251.763 -74.064)" fill="#fff"/><path d="M309.1,108.481l3.972,2.293v-4.586L309.1,103.9Z" transform="translate(-286.211 -90.68)" fill="#fff"/><path d="M316.388,104.274l3.972,2.293v-4.586l-3.972-2.293Z" transform="translate(-316.388 -99.688)" fill="#fff"/><path d="M303.26,111.853l3.972,2.293v-4.586l-3.972-2.293Z" transform="translate(-262.028 -83.462)" fill="#fff"/></g></g></g><g transform="translate(167.68 230.189)"><path d="M304.555,339.539a25.469,25.469,0,0,0,12.472-2.981l83.895-48.439c3.483-2,5.4-4.727,5.4-7.651s-1.916-5.647-5.4-7.654l-83.449-48.527c-6.881-3.97-18.075-3.976-24.956,0l-83.895,48.439c-3.483,2.007-5.4,4.727-5.4,7.651s1.913,5.647,5.4,7.654l83.449,48.527A25.518,25.518,0,0,0,304.555,339.539Zm.437-116.693a23.939,23.939,0,0,1,11.7,2.792l83.449,48.527c2.984,1.718,4.62,3.957,4.62,6.3s-1.636,4.585-4.617,6.3l-83.895,48.436c-6.445,3.725-16.941,3.725-23.4,0L209.4,286.681c-2.977-1.718-4.62-3.957-4.62-6.3s1.643-4.585,4.617-6.3L293.3,225.638A23.953,23.953,0,0,1,304.992,222.845Z" transform="translate(-203.226 70.436)" fill="#03a7d3"/><g transform="translate(0.367 225.507)"><path d="M203.607,271.429h0l.013-40.223,50.829,6.781,38.059-21.976c6.677-3.854,17.5-3.854,24.174,0l5.93,3.769,82.526,11.008v40.955l-.031-.006c-.094,2.453-1.731,4.887-4.969,6.759l-83.895,48.439c-6.677,3.854-17.5,3.854-24.177,0L208.613,278.4c-3.229-1.862-4.862-4.29-4.965-6.737l-.041,0Z" transform="translate(-203.607 -172.596)" fill="url(#r)"/><path d="M208.611,251.547l83.895-48.439c6.677-3.854,17.5-3.854,24.174,0l83.455,48.527c6.674,3.854,6.674,10.1,0,13.957L316.24,314.029c-6.677,3.857-17.5,3.857-24.177,0L208.611,265.5C201.937,261.648,201.937,255.4,208.611,251.547Z" transform="translate(-203.604 -200.218)" fill="url(#ae)"/><path d="M208.6,224.155l83.452,48.524c6.677,3.854,17.5,3.854,24.177,0l83.895-48.436c2.8-1.617,4.41-3.656,4.859-5.76.625,2.915-.983,5.958-4.859,8.2L316.23,275.12c-6.677,3.854-17.5,3.854-24.177,0L208.6,226.592c-3.876-2.239-5.487-5.283-4.859-8.2C204.191,220.5,205.8,222.538,208.6,224.155Z" transform="translate(-203.595 -161.305)" fill="#fff"/><g transform="translate(11.021 81.766)"><path d="M241.935,243l3.972,2.293v-4.586l-3.972-2.293Z" transform="translate(-175.776 -200.217)" fill="#fff"/><path d="M244.581,241.472l3.972,2.293v-4.586l-3.972-2.293Z" transform="translate(-186.731 -203.487)" fill="#fff"/><path d="M247.227,239.945l3.972,2.293v-4.586l-3.972-2.293Z" transform="translate(-197.685 -206.756)" fill="#fff"/><path d="M245.064,244.152l3.971,2.293v-4.586l-3.971-2.293Z" transform="translate(-188.729 -197.749)" fill="#fff"/><path d="M247.393,242.808l3.972,2.293v-4.586l-3.972-2.293Z" transform="translate(-198.374 -200.628)" fill="#fff"/><path d="M255.713,235.046l3.972,2.293v-4.586l-3.972-2.293Z" transform="translate(-232.823 -217.245)" fill="#fff"/><path d="M263,230.838l3.972,2.293v-4.586L263,226.252Z" transform="translate(-263 -226.252)" fill="#fff"/><path d="M249.872,238.417l3.972,2.293v-4.586l-3.972-2.293Z" transform="translate(-208.64 -210.026)" fill="#fff"/></g></g><path d="M282.013,278.241l56.445-32.588c2.293-1.322,2-3.637-.644-5.166l-55.157-31.844c-2.648-1.53-6.655-1.7-8.951-.374l-56.445,32.588c-2.293,1.325-2,3.64.644,5.17l55.157,31.844C275.709,279.4,279.717,279.567,282.013,278.241Z" transform="translate(-176.13 40.615)" fill="#06033e" opacity="0.4"/><path d="M213.649,265.681l46.58-26.891a4.821,4.821,0,0,0,2.013-3.847v-3.458c0-1.482-.9-2.164-2.013-1.52l-46.58,26.891a4.821,4.821,0,0,0-2.013,3.847v3.458C211.636,265.643,212.537,266.325,213.649,265.681Z" transform="translate(-85.561 88.449)" fill="#fff"/><g transform="translate(0.367 150.045)"><path d="M203.607,247.4h0l.013-40.223,50.829,6.781,38.059-21.976c6.677-3.854,17.5-3.854,24.174,0l5.93,3.769,82.526,11.008v40.955l-.031-.006c-.094,2.453-1.731,4.887-4.969,6.759L316.243,302.9c-6.677,3.857-17.5,3.857-24.177,0l-83.452-48.527c-3.229-1.862-4.862-4.29-4.965-6.737l-.041,0Z" transform="translate(-203.607 -148.569)" fill="url(#r)"/><path d="M208.611,227.52l83.895-48.439c6.677-3.854,17.5-3.854,24.174,0l83.455,48.527c6.674,3.854,6.674,10.1,0,13.957L316.24,290c-6.677,3.857-17.5,3.857-24.177,0l-83.452-48.524C201.937,237.621,201.937,231.374,208.611,227.52Z" transform="translate(-203.604 -176.191)" fill="url(#ag)"/><path d="M219.911,213.851,268.8,185.629a15.569,15.569,0,0,1,14.086,0L331.51,213.9c3.888,2.249,3.888,5.889,0,8.134l-48.885,28.222a15.568,15.568,0,0,1-14.086,0l-48.628-28.276C216.022,219.737,216.022,216.1,219.911,213.851Z" transform="translate(-174.942 -159.592)" fill="#06033e" opacity="0.4"/><path d="M208.6,200.125l83.452,48.527c6.677,3.854,17.5,3.854,24.177,0l83.895-48.436c2.8-1.617,4.41-3.656,4.859-5.76.625,2.915-.983,5.958-4.859,8.2L316.23,251.093c-6.677,3.851-17.5,3.854-24.177,0L208.6,202.565c-3.876-2.239-5.487-5.283-4.859-8.2C204.191,196.472,205.8,198.511,208.6,200.125Z" transform="translate(-203.595 -137.278)" fill="#fff"/><g transform="translate(11.021 81.766)"><path d="M241.935,218.973l3.972,2.293V216.68l-3.972-2.293Z" transform="translate(-175.776 -176.19)" fill="#fff"/><path d="M244.581,217.445l3.972,2.293v-4.586l-3.972-2.293Z" transform="translate(-186.731 -179.46)" fill="#fff"/><path d="M247.227,215.918l3.972,2.293v-4.586l-3.972-2.293Z" transform="translate(-197.685 -182.729)" fill="#fff"/><path d="M245.064,220.125l3.971,2.293v-4.586l-3.971-2.293Z" transform="translate(-188.729 -173.722)" fill="#fff"/><path d="M247.393,218.781l3.972,2.293v-4.586l-3.972-2.293Z" transform="translate(-198.374 -176.601)" fill="#fff"/><path d="M255.713,211.019l3.972,2.293v-4.586l-3.972-2.293Z" transform="translate(-232.823 -193.218)" fill="#fff"/><path d="M263,206.811l3.972,2.293v-4.586L263,202.225Z" transform="translate(-263 -202.225)" fill="#fff"/><path d="M249.872,214.39l3.972,2.293V212.1l-3.972-2.293Z" transform="translate(-208.64 -185.999)" fill="#fff"/></g></g><g transform="translate(0.367 74.583)"><path d="M203.607,223.375h0l.013-40.223,50.829,6.781,38.059-21.976c6.677-3.854,17.5-3.854,24.174,0l5.93,3.769,82.526,11.008v40.955l-.031-.006c-.094,2.453-1.731,4.887-4.969,6.759l-83.895,48.436c-6.677,3.857-17.5,3.857-24.177,0l-83.452-48.527c-3.229-1.862-4.862-4.29-4.965-6.737l-.041,0Z" transform="translate(-203.607 -124.542)" fill="url(#r)"/><path d="M208.611,203.493l83.895-48.439c6.677-3.854,17.5-3.854,24.174,0l83.455,48.527c6.674,3.854,6.674,10.1,0,13.957L316.24,265.975c-6.677,3.857-17.5,3.857-24.177,0l-83.452-48.524C201.937,213.594,201.937,207.347,208.611,203.493Z" transform="translate(-203.604 -152.164)" fill="url(#ag)"/><path d="M208.611,203.493l83.895-48.439c6.677-3.854,17.5-3.854,24.174,0l83.455,48.527c6.674,3.854,6.674,10.1,0,13.957L316.24,265.975c-6.677,3.857-17.5,3.857-24.177,0l-83.452-48.524C201.937,213.594,201.937,207.347,208.611,203.493Z" transform="translate(-203.604 -152.164)" fill="url(#aj)"/><path d="M217.748,192.44l55.588-32.092a17.7,17.7,0,0,1,16.018,0l55.3,32.152c4.422,2.553,4.422,6.693,0,9.249l-55.588,32.092a17.7,17.7,0,0,1-16.018,0l-55.3-32.152C213.325,199.136,213.325,194.994,217.748,192.44Z" transform="translate(-180.43 -138.742)" fill="#934827"/><path d="M208.6,176.1l83.452,48.527c6.677,3.854,17.5,3.854,24.177,0l83.895-48.436c2.8-1.617,4.41-3.656,4.859-5.76.625,2.915-.983,5.958-4.859,8.2L316.23,227.062c-6.677,3.854-17.5,3.857-24.177,0L208.6,178.538c-3.876-2.239-5.487-5.283-4.859-8.2C204.191,172.445,205.8,174.484,208.6,176.1Z" transform="translate(-203.595 -113.251)" fill="#fff"/><g transform="translate(11.021 81.766)"><path d="M241.935,194.946l3.972,2.293v-4.586l-3.972-2.293Z" transform="translate(-175.776 -152.163)" fill="#fff"/><path d="M244.581,193.418l3.972,2.293v-4.586l-3.972-2.293Z" transform="translate(-186.731 -155.432)" fill="#fff"/><path d="M247.227,191.891l3.972,2.293V189.6l-3.972-2.293Z" transform="translate(-197.685 -158.702)" fill="#fff"/><path d="M245.064,196.1l3.971,2.293v-4.586l-3.971-2.293Z" transform="translate(-188.729 -149.695)" fill="#fff"/><path d="M247.393,194.753l3.972,2.293v-4.586l-3.972-2.293Z" transform="translate(-198.374 -152.574)" fill="#fff"/><path d="M255.713,186.992l3.972,2.293V184.7l-3.972-2.293Z" transform="translate(-232.823 -169.19)" fill="#fff"/><path d="M263,182.784l3.972,2.293v-4.586L263,178.2Z" transform="translate(-263 -178.198)" fill="#fff"/><path d="M249.872,190.363l3.972,2.293V188.07l-3.972-2.293Z" transform="translate(-208.64 -161.972)" fill="#fff"/></g></g><g transform="translate(0.367)"><path d="M203.607,199.626h0l.013-40.223,50.829,6.784,38.059-21.976c6.677-3.857,17.5-3.857,24.174,0l5.93,3.766,82.526,11.011v40.952l-.031,0c-.094,2.453-1.731,4.887-4.969,6.759l-83.895,48.436c-6.677,3.854-17.5,3.854-24.177,0l-83.452-48.527c-3.229-1.866-4.862-4.293-4.965-6.737l-.041-.006Z" transform="translate(-203.607 -100.797)" fill="url(#r)"/><path d="M208.611,179.743l83.895-48.436c6.677-3.854,17.5-3.854,24.174,0l83.455,48.527c6.674,3.854,6.674,10.1,0,13.957L316.24,242.228c-6.677,3.854-17.5,3.854-24.177,0L208.611,193.7C201.937,189.847,201.937,183.6,208.611,179.743Z" transform="translate(-203.604 -128.417)" fill="url(#al)"/><path d="M208.611,179.743l83.895-48.436c6.677-3.854,17.5-3.854,24.174,0l83.455,48.527c6.674,3.854,6.674,10.1,0,13.957L316.24,242.228c-6.677,3.854-17.5,3.854-24.177,0L208.611,193.7C201.937,189.847,201.937,183.6,208.611,179.743Z" transform="translate(-203.604 -128.417)" fill="url(#am)"/><path d="M281.794,213.869a17.424,17.424,0,0,0,8.555-2.076l55.588-32.1c2.487-1.438,3.863-3.411,3.863-5.565s-1.376-4.13-3.866-5.568l-55.289-32.152a18.66,18.66,0,0,0-17.114,0l-55.588,32.1c-2.491,1.438-3.86,3.417-3.86,5.568s1.369,4.13,3.86,5.569l55.292,32.148A17.4,17.4,0,0,0,281.794,213.869Zm.292-77.353a15.272,15.272,0,0,1,7.462,1.784l55.292,32.148c1.793,1.033,2.776,2.343,2.776,3.684s-.983,2.648-2.773,3.678l-55.588,32.1a16.513,16.513,0,0,1-14.928,0l-55.289-32.152c-1.79-1.033-2.776-2.34-2.776-3.681s.986-2.648,2.773-3.678l55.588-32.1A15.263,15.263,0,0,1,282.086,136.516Z" transform="translate(-181.171 -115.752)" fill="#934827"/><path d="M208.6,152.353l83.452,48.527c6.677,3.854,17.5,3.854,24.177,0l83.895-48.436c2.8-1.617,4.41-3.656,4.859-5.76.625,2.915-.983,5.958-4.859,8.2L316.23,203.318c-6.677,3.854-17.5,3.854-24.177,0L208.6,154.79c-3.876-2.236-5.487-5.283-4.859-8.2C204.191,148.7,205.8,150.736,208.6,152.353Z" transform="translate(-203.595 -89.506)" fill="#fff"/><g transform="translate(11.021 81.764)"><path d="M241.935,171.2l3.972,2.293v-4.586l-3.972-2.293Z" transform="translate(-175.776 -128.415)" fill="#fff"/><path d="M244.581,169.671l3.972,2.293v-4.586l-3.972-2.293Z" transform="translate(-186.731 -131.685)" fill="#fff"/><path d="M247.227,168.143l3.972,2.293V165.85l-3.972-2.293Z" transform="translate(-197.685 -134.955)" fill="#fff"/><path d="M245.064,172.351l3.971,2.293v-4.586l-3.971-2.293Z" transform="translate(-188.729 -125.948)" fill="#fff"/><path d="M247.393,171.006l3.972,2.293v-4.586l-3.972-2.293Z" transform="translate(-198.374 -128.827)" fill="#fff"/><path d="M255.713,163.244l3.972,2.293v-4.586l-3.972-2.293Z" transform="translate(-232.823 -145.443)" fill="#fff"/><path d="M263,159.036l3.972,2.293v-4.586L263,154.45Z" transform="translate(-263 -154.45)" fill="#fff"/><path d="M249.872,166.616l3.972,2.293v-4.586l-3.972-2.293Z" transform="translate(-208.64 -138.225)" fill="#fff"/></g></g></g><g transform="translate(333.642 477.342)"><path d="M251.712,370.455a25.5,25.5,0,0,0,12.475-2.981l83.895-48.439c3.48-2.007,5.4-4.727,5.4-7.651s-1.919-5.647-5.4-7.654L264.633,255.2c-6.888-3.97-18.084-3.967-24.959,0l-83.892,48.439c-3.483,2-5.4,4.727-5.4,7.651s1.916,5.647,5.4,7.654l83.449,48.527A25.505,25.505,0,0,0,251.712,370.455Zm.44-116.693a23.965,23.965,0,0,1,11.7,2.792L347.3,305.081c2.981,1.718,4.62,3.957,4.62,6.3s-1.639,4.585-4.617,6.3l-83.895,48.439c-6.457,3.725-16.951,3.725-23.4,0L156.564,317.6c-2.984-1.718-4.62-3.957-4.62-6.3s1.636-4.585,4.617-6.3l83.895-48.436A23.952,23.952,0,0,1,252.152,253.762Z" transform="translate(-150.383 -110.525)" fill="#03a7d3"/><g transform="translate(0.367 75.462)"><path d="M150.764,302.348h0l.013-40.223,50.829,6.781,38.062-21.976c6.674-3.854,17.5-3.854,24.174,0l5.927,3.766L352.3,261.707v40.955l-.031-.006c-.1,2.453-1.73,4.887-4.972,6.759l-83.9,48.436c-6.677,3.857-17.5,3.857-24.174,0l-83.452-48.527c-3.232-1.862-4.865-4.29-4.969-6.737l-.041,0Z" transform="translate(-150.764 -203.515)" fill="url(#r)"/><path d="M155.771,282.466l83.9-48.439c6.674-3.854,17.5-3.854,24.174,0l83.452,48.527c6.677,3.854,6.677,10.1,0,13.957l-83.9,48.436c-6.674,3.857-17.5,3.857-24.174,0l-83.455-48.524C149.094,292.567,149.094,286.32,155.771,282.466Z" transform="translate(-150.761 -231.137)" fill="url(#ao)"/><path d="M155.76,255.073,239.212,303.6c6.674,3.854,17.5,3.854,24.174,0l83.9-48.436c2.8-1.617,4.41-3.656,4.862-5.76.625,2.915-.986,5.958-4.862,8.2l-83.9,48.436c-6.674,3.854-17.5,3.857-24.174,0L155.76,257.513c-3.879-2.239-5.487-5.283-4.862-8.2C151.351,251.42,152.959,253.459,155.76,255.073Z" transform="translate(-150.751 -192.226)" fill="#fff"/><g transform="translate(11.022 81.766)"><path d="M189.093,273.918l3.972,2.293v-4.586l-3.972-2.293Z" transform="translate(-122.934 -231.136)" fill="#fff"/><path d="M191.739,272.391l3.972,2.293V270.1l-3.972-2.293Z" transform="translate(-133.888 -234.405)" fill="#fff"/><path d="M194.384,270.864l3.972,2.293v-4.586l-3.972-2.293Z" transform="translate(-144.843 -237.675)" fill="#fff"/><path d="M192.221,275.071l3.971,2.293v-4.586l-3.971-2.293Z" transform="translate(-135.886 -228.668)" fill="#fff"/><path d="M194.551,273.726l3.972,2.293v-4.586l-3.972-2.293Z" transform="translate(-145.532 -231.547)" fill="#fff"/><path d="M202.87,265.964l3.972,2.293v-4.586l-3.972-2.293Z" transform="translate(-179.981 -248.163)" fill="#fff"/><path d="M210.158,261.757l3.972,2.293v-4.586l-3.972-2.293Z" transform="translate(-210.158 -257.171)" fill="#fff"/><path d="M197.03,269.336,201,271.629v-4.586l-3.972-2.293Z" transform="translate(-155.798 -240.945)" fill="#fff"/></g></g><path d="M229.17,309.16l56.445-32.588c2.293-1.322,2.007-3.637-.644-5.167l-55.154-31.844c-2.651-1.529-6.658-1.7-8.951-.374l-56.445,32.588c-2.3,1.325-2.007,3.64.641,5.17l55.157,31.844C222.87,310.319,226.877,310.486,229.17,309.16Z" transform="translate(-123.287 -140.349)" fill="#06033e" opacity="0.4"/><path d="M160.807,296.6l46.577-26.891a4.822,4.822,0,0,0,2.013-3.847V262.4c0-1.482-.9-2.164-2.013-1.52l-46.577,26.891a4.821,4.821,0,0,0-2.013,3.847v3.458C158.794,296.562,159.7,297.244,160.807,296.6Z" transform="translate(-32.716 -92.515)" fill="#fff"/><g transform="translate(-1.611 1.406)"><path d="M97.267,285.136h0l.013-40.223,50.829,6.781,38.059-21.976c6.677-3.854,17.5-3.854,24.174,0l5.927,3.769L298.8,244.5V285.45l-.031,0c-.094,2.45-1.73,4.887-4.969,6.759l-83.9,48.436c-6.674,3.854-17.5,3.854-24.174,0l-83.452-48.527c-3.232-1.866-4.862-4.293-4.966-6.737l-.041-.006Z" transform="translate(-97.265 -186.305)" fill="url(#r)"/><path d="M102.273,265.253l83.895-48.436c6.677-3.857,17.5-3.854,24.174,0L293.8,265.341c6.674,3.857,6.674,10.1,0,13.957l-83.9,48.439c-6.674,3.854-17.5,3.854-24.174,0L102.273,279.21C95.6,275.357,95.6,269.107,102.273,265.253Z" transform="translate(-97.265 -213.925)" fill="url(#aq)"/><path d="M102.273,265.253l83.895-48.436c6.677-3.857,17.5-3.854,24.174,0L293.8,265.341c6.674,3.857,6.674,10.1,0,13.957l-83.9,48.439c-6.674,3.854-17.5,3.854-24.174,0L102.273,279.21C95.6,275.357,95.6,269.107,102.273,265.253Z" transform="translate(-97.265 -213.925)" fill="url(#ar)"/><path d="M175.452,299.377a17.47,17.47,0,0,0,8.558-2.076l55.585-32.1c2.491-1.438,3.863-3.414,3.863-5.565s-1.372-4.133-3.863-5.572L184.305,221.92a18.67,18.67,0,0,0-17.114,0l-55.588,32.1c-2.491,1.438-3.86,3.417-3.86,5.565s1.369,4.133,3.86,5.572L166.9,297.3A17.434,17.434,0,0,0,175.452,299.377Zm.292-77.353a15.241,15.241,0,0,1,7.465,1.784L238.5,255.956c1.8,1.033,2.78,2.343,2.78,3.684s-.983,2.648-2.773,3.678L182.917,295.41a16.494,16.494,0,0,1-14.928,0L112.7,263.262c-1.793-1.033-2.776-2.34-2.776-3.684s.983-2.645,2.773-3.678l55.588-32.092A15.216,15.216,0,0,1,175.744,222.024Z" transform="translate(-74.831 -201.259)" fill="#934827"/><path d="M102.263,237.862l83.452,48.524c6.677,3.857,17.5,3.857,24.174,0l83.9-48.436c2.8-1.614,4.406-3.653,4.859-5.76.625,2.918-.983,5.961-4.859,8.2l-83.9,48.439c-6.674,3.854-17.5,3.854-24.174,0L102.263,240.3c-3.876-2.239-5.487-5.283-4.862-8.2C97.853,234.206,99.465,236.245,102.263,237.862Z" transform="translate(-97.255 -175.014)" fill="#fff"/><g transform="translate(11.022 81.765)"><path d="M135.6,256.707,139.567,259v-4.586l-3.971-2.293Z" transform="translate(-69.436 -213.924)" fill="#fff"/><path d="M138.241,255.18l3.971,2.293v-4.586l-3.971-2.293Z" transform="translate(-80.391 -217.194)" fill="#fff"/><path d="M140.887,253.652l3.971,2.293v-4.586l-3.971-2.293Z" transform="translate(-91.346 -220.464)" fill="#fff"/><path d="M138.724,257.86l3.972,2.293v-4.586l-3.972-2.293Z" transform="translate(-82.389 -211.456)" fill="#fff"/><path d="M141.053,256.515l3.971,2.293v-4.586l-3.971-2.293Z" transform="translate(-92.035 -214.336)" fill="#fff"/><path d="M149.373,248.753l3.971,2.293V246.46l-3.971-2.293Z" transform="translate(-126.484 -230.952)" fill="#fff"/><path d="M156.661,244.545l3.971,2.293v-4.586l-3.971-2.293Z" transform="translate(-156.661 -239.959)" fill="#fff"/><path d="M143.533,252.125l3.971,2.293v-4.586l-3.971-2.293Z" transform="translate(-102.3 -223.734)" fill="#fff"/></g></g></g><g transform="translate(501.665 498.748)"><path d="M198.212,401.3a25.48,25.48,0,0,0,12.475-2.981l83.895-48.436c3.483-2.01,5.4-4.727,5.4-7.657s-1.916-5.641-5.4-7.651l-83.449-48.524c-6.881-3.976-18.072-3.979-24.956,0l-83.895,48.436c-3.483,2.007-5.4,4.724-5.4,7.654s1.913,5.644,5.4,7.654l83.449,48.527A25.546,25.546,0,0,0,198.212,401.3Zm.44-116.694a23.949,23.949,0,0,1,11.7,2.792L293.8,335.926c2.981,1.718,4.62,3.957,4.62,6.3s-1.639,4.586-4.617,6.307l-83.895,48.436c-6.451,3.725-16.938,3.728-23.4,0l-83.449-48.527c-2.981-1.721-4.62-3.96-4.62-6.3s1.639-4.586,4.617-6.307l83.9-48.436A23.953,23.953,0,0,1,198.652,284.607Z" transform="translate(-96.886 -65.91)" fill="#03a7d3"/><g transform="translate(0.366 150.925)"><path d="M97.267,333.19h0l.013-40.223,50.829,6.781,38.059-21.976c6.677-3.854,17.5-3.854,24.174,0l5.927,3.769L298.8,292.552V333.5l-.031,0c-.094,2.45-1.73,4.887-4.969,6.759L209.9,388.7c-6.674,3.854-17.5,3.854-24.174,0l-83.452-48.527c-3.232-1.866-4.862-4.293-4.966-6.737l-.041-.006Z" transform="translate(-97.265 -234.36)" fill="url(#r)"/><path d="M102.273,313.306l83.895-48.436c6.677-3.854,17.5-3.854,24.174,0L293.8,313.4c6.674,3.854,6.674,10.1,0,13.957l-83.9,48.436c-6.674,3.854-17.5,3.854-24.174,0l-83.452-48.527C95.6,323.41,95.6,317.16,102.273,313.306Z" transform="translate(-97.265 -261.98)" fill="url(#at)"/><path d="M102.263,285.916l83.452,48.527c6.677,3.854,17.5,3.854,24.174,0L293.787,286c2.8-1.614,4.406-3.653,4.859-5.76.625,2.918-.983,5.961-4.859,8.2l-83.9,48.439c-6.674,3.854-17.5,3.854-24.174,0l-83.452-48.527c-3.876-2.236-5.487-5.283-4.862-8.2C97.853,282.26,99.465,284.3,102.263,285.916Z" transform="translate(-97.255 -223.069)" fill="#fff"/><g transform="translate(11.022 81.764)"><path d="M135.6,304.761l3.971,2.293v-4.586l-3.971-2.293Z" transform="translate(-69.436 -261.978)" fill="#fff"/><path d="M138.241,303.233l3.971,2.293v-4.586l-3.971-2.293Z" transform="translate(-80.391 -265.248)" fill="#fff"/><path d="M140.887,301.706,144.858,304v-4.586l-3.971-2.293Z" transform="translate(-91.346 -268.518)" fill="#fff"/><path d="M138.724,305.914l3.972,2.293v-4.586l-3.972-2.293Z" transform="translate(-82.389 -259.51)" fill="#fff"/><path d="M141.053,304.569l3.971,2.293v-4.586l-3.971-2.293Z" transform="translate(-92.035 -262.389)" fill="#fff"/><path d="M149.373,296.807l3.971,2.293v-4.586l-3.971-2.293Z" transform="translate(-126.484 -279.006)" fill="#fff"/><path d="M156.661,292.6l3.971,2.293v-4.586l-3.971-2.293Z" transform="translate(-156.661 -288.013)" fill="#fff"/><path d="M143.533,300.179l3.971,2.293v-4.586l-3.971-2.293Z" transform="translate(-102.3 -271.787)" fill="#fff"/></g></g><path d="M175.674,340l56.442-32.588c2.3-1.325,2.007-3.64-.641-5.17L176.318,270.4c-2.651-1.53-6.658-1.7-8.951-.371l-56.445,32.588c-2.293,1.325-2.007,3.637.644,5.166l55.157,31.847C169.371,341.164,173.378,341.327,175.674,340Z" transform="translate(-69.791 -95.73)" fill="#06033e" opacity="0.4"/><path d="M107.31,327.444l46.577-26.894a4.815,4.815,0,0,0,2.013-3.844v-3.458c0-1.482-.9-2.164-2.013-1.523L107.31,318.615a4.826,4.826,0,0,0-2.013,3.847v3.458C105.3,327.4,106.2,328.084,107.31,327.444Z" transform="translate(20.778 -47.895)" fill="#fff"/><g transform="translate(0.366 75.463)"><path d="M97.267,309.163h0l.013-40.223,50.829,6.781,38.059-21.976c6.677-3.854,17.5-3.854,24.174,0l5.927,3.769L298.8,268.525v40.952l-.031,0c-.094,2.45-1.73,4.887-4.969,6.759l-83.9,48.436c-6.674,3.854-17.5,3.854-24.174,0l-83.452-48.527c-3.232-1.866-4.862-4.293-4.966-6.737l-.041-.006Z" transform="translate(-97.265 -210.333)" fill="url(#r)"/><path d="M102.273,289.279l83.895-48.436c6.677-3.854,17.5-3.854,24.174,0L293.8,289.37c6.674,3.854,6.674,10.1,0,13.954l-83.9,48.439c-6.674,3.854-17.5,3.854-24.174,0l-83.452-48.527C95.6,299.383,95.6,293.133,102.273,289.279Z" transform="translate(-97.265 -237.953)" fill="url(#av)"/><path d="M113.571,275.612l48.885-28.223a15.568,15.568,0,0,1,14.086,0l48.625,28.276c3.891,2.246,3.891,5.886,0,8.131l-48.882,28.226a15.568,15.568,0,0,1-14.086,0l-48.628-28.276C109.683,281.5,109.683,277.858,113.571,275.612Z" transform="translate(-68.6 -221.356)" fill="#06033e" opacity="0.4"/><path d="M102.263,261.889l83.452,48.527c6.677,3.854,17.5,3.854,24.174,0l83.9-48.439c2.8-1.614,4.406-3.653,4.859-5.76.625,2.918-.983,5.961-4.859,8.2l-83.9,48.439c-6.674,3.854-17.5,3.854-24.174,0l-83.452-48.527c-3.876-2.239-5.487-5.283-4.862-8.2C97.853,258.233,99.465,260.272,102.263,261.889Z" transform="translate(-97.255 -199.042)" fill="#fff"/><g transform="translate(11.022 81.764)"><path d="M135.6,280.734l3.971,2.293v-4.586l-3.971-2.293Z" transform="translate(-69.436 -237.951)" fill="#fff"/><path d="M138.241,279.207l3.971,2.293v-4.586l-3.971-2.293Z" transform="translate(-80.391 -241.221)" fill="#fff"/><path d="M140.887,277.679l3.971,2.293v-4.586l-3.971-2.293Z" transform="translate(-91.346 -244.491)" fill="#fff"/><path d="M138.724,281.887l3.972,2.293v-4.586l-3.972-2.293Z" transform="translate(-82.389 -235.483)" fill="#fff"/><path d="M141.053,280.542l3.971,2.293v-4.586l-3.971-2.293Z" transform="translate(-92.035 -238.362)" fill="#fff"/><path d="M149.373,272.78l3.971,2.293v-4.586l-3.971-2.293Z" transform="translate(-126.484 -254.979)" fill="#fff"/><path d="M156.661,268.572l3.971,2.293v-4.586l-3.971-2.293Z" transform="translate(-156.661 -263.986)" fill="#fff"/><path d="M143.533,276.152l3.971,2.293v-4.586l-3.971-2.293Z" transform="translate(-102.3 -247.76)" fill="#fff"/></g></g><g transform="translate(0.366)"><path d="M97.267,285.136h0l.013-40.223,50.829,6.781,38.059-21.976c6.677-3.854,17.5-3.854,24.174,0l5.927,3.769L298.8,244.5V285.45l-.031,0c-.094,2.45-1.73,4.887-4.969,6.759l-83.9,48.436c-6.674,3.854-17.5,3.854-24.174,0l-83.452-48.527c-3.232-1.866-4.862-4.293-4.966-6.737l-.041-.006Z" transform="translate(-97.265 -186.305)" fill="url(#r)"/><path d="M102.273,265.253l83.895-48.436c6.677-3.857,17.5-3.854,24.174,0L293.8,265.341c6.674,3.857,6.674,10.1,0,13.957l-83.9,48.439c-6.674,3.854-17.5,3.854-24.174,0L102.273,279.21C95.6,275.357,95.6,269.107,102.273,265.253Z" transform="translate(-97.265 -213.925)" fill="url(#aq)"/><path d="M102.273,265.253l83.895-48.436c6.677-3.857,17.5-3.854,24.174,0L293.8,265.341c6.674,3.857,6.674,10.1,0,13.957l-83.9,48.439c-6.674,3.854-17.5,3.854-24.174,0L102.273,279.21C95.6,275.357,95.6,269.107,102.273,265.253Z" transform="translate(-97.265 -213.925)" fill="url(#ar)"/><path d="M175.452,299.377a17.47,17.47,0,0,0,8.558-2.076l55.585-32.1c2.491-1.438,3.863-3.414,3.863-5.565s-1.372-4.133-3.863-5.572L184.305,221.92a18.67,18.67,0,0,0-17.114,0l-55.588,32.1c-2.491,1.438-3.86,3.417-3.86,5.565s1.369,4.133,3.86,5.572L166.9,297.3A17.434,17.434,0,0,0,175.452,299.377Zm.292-77.353a15.241,15.241,0,0,1,7.465,1.784L238.5,255.956c1.8,1.033,2.78,2.343,2.78,3.684s-.983,2.648-2.773,3.678L182.917,295.41a16.494,16.494,0,0,1-14.928,0L112.7,263.262c-1.793-1.033-2.776-2.34-2.776-3.684s.983-2.645,2.773-3.678l55.588-32.092A15.216,15.216,0,0,1,175.744,222.024Z" transform="translate(-74.831 -201.259)" fill="#934827"/><path d="M102.263,237.862l83.452,48.524c6.677,3.857,17.5,3.857,24.174,0l83.9-48.436c2.8-1.614,4.406-3.653,4.859-5.76.625,2.918-.983,5.961-4.859,8.2l-83.9,48.439c-6.674,3.854-17.5,3.854-24.174,0L102.263,240.3c-3.876-2.239-5.487-5.283-4.862-8.2C97.853,234.206,99.465,236.245,102.263,237.862Z" transform="translate(-97.255 -175.014)" fill="#fff"/><g transform="translate(11.022 81.765)"><path d="M135.6,256.707,139.567,259v-4.586l-3.971-2.293Z" transform="translate(-69.436 -213.924)" fill="#fff"/><path d="M138.241,255.18l3.971,2.293v-4.586l-3.971-2.293Z" transform="translate(-80.391 -217.194)" fill="#fff"/><path d="M140.887,253.652l3.971,2.293v-4.586l-3.971-2.293Z" transform="translate(-91.346 -220.464)" fill="#fff"/><path d="M138.724,257.86l3.972,2.293v-4.586l-3.972-2.293Z" transform="translate(-82.389 -211.456)" fill="#fff"/><path d="M141.053,256.515l3.971,2.293v-4.586l-3.971-2.293Z" transform="translate(-92.035 -214.336)" fill="#fff"/><path d="M149.373,248.753l3.971,2.293V246.46l-3.971-2.293Z" transform="translate(-126.484 -230.952)" fill="#fff"/><path d="M156.661,244.545l3.971,2.293v-4.586l-3.971-2.293Z" transform="translate(-156.661 -239.959)" fill="#fff"/><path d="M143.533,252.125l3.971,2.293v-4.586l-3.971-2.293Z" transform="translate(-102.3 -223.734)" fill="#fff"/></g></g></g><g transform="translate(632.768 339.342)"><path d="M110.352,178.017A14.849,14.849,0,1,0,125.2,163.171,14.85,14.85,0,0,0,110.352,178.017Z" transform="translate(-110.352 -163.171)" fill="#03a7d3" opacity="0.4"/><path d="M112.757,172.871a7.3,7.3,0,1,0,7.3-7.3A7.3,7.3,0,0,0,112.757,172.871Z" transform="translate(-105.204 -158.025)" fill="#03a7d3" opacity="0.8"/></g><g transform="translate(504.499 300.84)"><ellipse cx="12.109" cy="12.109" rx="12.109" ry="12.109" transform="translate(0)" fill="#03a7d3" opacity="0.4"/><path d="M154.9,158.822a5.949,5.949,0,1,0,5.949-5.949A5.949,5.949,0,0,0,154.9,158.822Z" transform="translate(-148.738 -146.713)" fill="#03a7d3" opacity="0.8"/></g><g transform="translate(565.208 112.922)"><path d="M131.864,105.925a14.848,14.848,0,1,0,14.849-14.846A14.85,14.85,0,0,0,131.864,105.925Z" transform="translate(-131.864 -91.079)" fill="#03a7d3" opacity="0.4"/><path d="M134.268,100.779a7.3,7.3,0,1,0,7.3-7.3A7.3,7.3,0,0,0,134.268,100.779Z" transform="translate(-126.715 -85.933)" fill="#03a7d3" opacity="0.8"/></g><g transform="translate(302.813 162.872)"><path d="M218.764,116.565a9.581,9.581,0,1,0,9.582-9.582A9.582,9.582,0,0,0,218.764,116.565Z" transform="translate(-218.764 -106.983)" fill="#03a7d3" opacity="0.4"/><path d="M220.315,113.243a4.708,4.708,0,1,0,4.708-4.708A4.709,4.709,0,0,0,220.315,113.243Z" transform="translate(-215.441 -103.661)" fill="#03a7d3" opacity="0.8"/></g><g transform="translate(169.42 28.232)"><path d="M257.882,78.963a14.848,14.848,0,1,0,14.846-14.849A14.847,14.847,0,0,0,257.882,78.963Z" transform="translate(-257.882 -64.114)" fill="#03a7d3" opacity="0.4"/><path d="M260.287,73.815a7.3,7.3,0,1,0,7.3-7.3A7.3,7.3,0,0,0,260.287,73.815Z" transform="translate(-252.737 -58.966)" fill="#03a7d3" opacity="0.8"/></g><path d="M130.167,252.478c26.643,15.38,69.834,15.38,96.477,0s26.64-40.318,0-55.7-69.834-15.383-96.474,0S103.527,237.094,130.167,252.478Z" transform="translate(416.36 223.414)" fill="#06033e" opacity="0.4"/></g><g transform="translate(-206.593 -123.37)" opacity="0.05"><path d="M-2165.624,626.01c111.543-3.647,213.523-34.187,305.184-100.924,19.019-13.827,39.666-42.306,61.888-5.636,21.408,35.316-15.645,39.346-29.836,50.057-194.679,147.051-463.068,148.39-666.069,5.109-206.873-146-308.549-416.525-251.728-669.744,56.754-252.935,252.685-443.9,488.834-482.347,157.842-25.693,300.426,11.362,431.163,104.807,14.086,10.06,50.151,15.988,25.516,51.248-22.372,32-39.136,5.343-56.538-6.54-230.883-157.8-508.218-129.042-693.332,69.872-27.664,29.726-38.269,51.138-.333,77.6,51.2,35.7,50.817,72.808,20.777,130.837-68.7,132.734-65.609,273.54,4.362,404.581,27.917,52.275,24.873,82.058-17.823,112.545-44.934,32.067-35.876,57.874.045,93.707C-2436.305,568.2-2309.9,620.549-2165.624,626.01Zm-452.248-266.738c45.6-26.1,55.42-55.734,30.381-110.93-59.86-131.9-59.208-269.874.122-402.111,24.316-54.164,16.032-85.1-31.144-110.168C-2739.3-74.126-2739.047,173.847-2617.871,359.271Z" transform="translate(2761.784 585.421)" fill="#fff"/><path d="M-2273.233,232.575c-14.756-41.606-5.517-61.916,20.094-84.419,160.351-140.926,158.585-322.046-2.039-468.942-25.438-23.258-25.438-23.258-18.386-74.347,53.423,21.757,90.918,62.082,126.079,101.069,73.561-36.5,51.375-71.076,5.434-111.278-130.24-113.981-322.6-141.984-479.334-66.661-15.154,7.281-31.419,13.683-44.209,24.078-22.131,17.979-40.829,14.338-54.688-7.021-17.67-27.243,12.442-30.622,25.32-39.358,204.737-138.944,504.5-82.769,657.969,122.559,136.8,183.028,122.169,444.595-34.336,613.866-158.1,171-415.775,208.627-613.248,88.046-15.718-9.6-55.231-11.073-33.218-46.855,18.318-29.766,39.924-11.566,61.441-.193,185.948,98.286,390.331,75.184,526.689-60.609,18.689-18.622,54.964-33.376,17.14-73.508-37.573-39.883-48.973-5.749-70.363,12.43C-2209.918,184.417-2238.611,205.491-2273.233,232.575Zm220.185-526.638c-49.153,29.948-64.186,58.866-42.672,110.109a253.666,253.666,0,0,1,.744,195.469c-22.137,53.63-8.483,84.963,43.01,112.075C-1982.093-15.519-1980.039-152.693-2053.048-294.063Z" transform="translate(3011.234 718.278)" fill="#fff"/><path d="M-2732.338-216.789c.952-174.181,148.7-326.567,327.925-336.743,20.864-1.185,52-13.506,53.451,25.73,1.249,34.028-25.081,25.561-45.367,27.36-162.1,14.4-278.189,132.328-278.884,283-.7,154.283,113.672,271.236,281.971,286.76,22.657,2.085,45.008-1.181,42.228,30.671-2.935,33.877-30.065,23.721-49.255,23.15C-2579.329,117.862-2733.308-40.222-2732.338-216.789Z" transform="translate(2990.608 848.825)" fill="#fff"/><path d="M-2468.25-174.92c-4.708,119.965-38.412,237.336-114.847,340.671-9.382,12.695-14.236,45.617-44.727,28.106-28.617-16.449-17.571-34.761-2.566-57.064,141.937-210.872,141.236-422.974.809-634.216-14.333-21.564-28.159-39.256.973-57.037,31.166-19.008,35.452,14.594,45,26.915C-2513.313-436.8-2468.32-297.387-2468.25-174.92Z" transform="translate(3675.435 813.823)" fill="#fff"/></g></g></svg>