<svg xmlns="http://www.w3.org/2000/svg" width="80.472" height="72.622" viewBox="0 0 80.472 72.622">
  <g id="cloud" transform="translate(-1065.853 -4336.366)">
    <g id="Group_635" data-name="Group 635" transform="translate(1068.703 4336.366)">
      <path id="Path_1713" data-name="Path 1713" d="M5905.684,1972.222c-17.188,0-17.323-17.553-38.79-16.9s3.843-24.824,9.237-40.155,8.782-25.559,29.552,0,26.964,26.475,29.962,40.155S5922.873,1972.222,5905.684,1972.222Z" transform="translate(-5858.393 -1899.6)" fill="#5784fe" opacity="0.2"/>
    </g>
    <g id="cloud-2" data-name="cloud" transform="translate(149.981 3507.36)">
      <path id="Path_9862" data-name="Path 9862" d="M915.872,884.541c.273-.867.367-1.777.671-2.642a12.663,12.663,0,0,1,14.6-8.266c.736.154.567-.377.631-.667a9.925,9.925,0,0,1,7.272-7.846,9.579,9.579,0,0,1,6.878.55c.423.19.523.18.674-.311,2.372-7.679,7.494-12.475,15.413-13.8A18.922,18.922,0,0,1,983.636,866.4a17.678,17.678,0,0,1,.151,7.016c-.095.5.05.713.533.915a12.682,12.682,0,0,1-2.395,24.164,13.02,13.02,0,0,1-2.664.218q-13.814,0-27.628,0c-1.108,0-1.694-.4-1.825-1.226a1.479,1.479,0,0,1,1.367-1.761c.247-.021.5-.006.744-.006q13.739,0,27.479,0a9.679,9.679,0,0,0,2.91-18.922c-.26-.078-.528-.13-.784-.218a1.48,1.48,0,0,1-1.05-1.914,15.726,15.726,0,0,0-.418-9.786c-2.367-6.013-6.767-9.64-13.208-10.411a15.855,15.855,0,0,0-17.576,12.575,11.665,11.665,0,0,0-.2,1.32,1.651,1.651,0,0,1-.981,1.54,1.673,1.673,0,0,1-1.774-.421,7.1,7.1,0,0,0-11.454,3.478,8.124,8.124,0,0,0-.238,2.5c.041,1.566-.893,2.218-2.336,1.647a9.68,9.68,0,1,0-5.263,18.487,33.343,33.343,0,0,0,4.31.118c2.631.025,5.262,0,7.893.01a1.5,1.5,0,0,1,.836,2.819,1.631,1.631,0,0,1-.863.17c-3.723,0-7.447.039-11.17-.02a12.668,12.668,0,0,1-11.871-9.805,4.7,4.7,0,0,0-.3-1.363Z" transform="translate(0)" fill="#1a1818"/>
      <path id="Path_9863" data-name="Path 9863" d="M1193.152,900.149a1.63,1.63,0,0,1-.939,1.77,1.411,1.411,0,0,1-1.585-.269,1.742,1.742,0,0,1-.516-1.418,10.116,10.116,0,0,0-4.9-8.347,1.527,1.527,0,0,1-.833-1.674,1.448,1.448,0,0,1,1.1-1.175,1.392,1.392,0,0,1,1.2.219,12.946,12.946,0,0,1,6.344,9.712c.027.2.065.392.086.589S1193.139,899.952,1193.152,900.149Z" transform="translate(-215.04 -30.186)" fill="#1a1818"/>
      <path id="Path_9864" data-name="Path 9864" d="M1158.215,882.786a1.5,1.5,0,1,1-3.009.029,1.505,1.505,0,0,1,3.009-.029Z" transform="translate(-191.695 -24.064)" fill="#1a1818"/>
      <path id="Path_9865" data-name="Path 9865" d="M1057.782,1077.481a1.459,1.459,0,0,1-1.487-1.508,1.5,1.5,0,0,1,1.459-1.476,1.548,1.548,0,0,1,1.546,1.486A1.507,1.507,0,0,1,1057.782,1077.481Z" transform="translate(-112.472 -178.777)" fill="#1a1818"/>
    </g>
  </g>
</svg>
