<svg xmlns="http://www.w3.org/2000/svg" width="78.38" height="81.063" viewBox="0 0 78.38 81.063">
  <g id="data" transform="translate(-1067.946 -4131.297)">
    <path id="Path_1713" data-name="Path 1713" d="M5905.684,1972.222c-17.188,0-17.323-17.553-38.79-16.9s3.843-24.824,9.237-40.155,8.782-25.559,29.552,0,26.964,26.475,29.962,40.155S5922.873,1972.222,5905.684,1972.222Z" transform="translate(-4789.689 2231.697)" fill="#fe5757" opacity="0.2"/>
    <g id="_1" data-name="1" transform="translate(3225.967 4602.724)">
      <path id="Path_9870" data-name="Path 9870" d="M-1808.91-320.3c-.5.146-1.011.267-1.5.448-.3.111-.388.008-.458-.249-.182-.671-.377-1.339-.6-2.138-.287.744-.521,1.385-.78,2.015a66.52,66.52,0,0,1-10.875,17.484c-1.226,1.457-2.542,2.831-3.808,4.25-.285.319-.426.281-.708.005-1.1-1.07-1.115-1.067-.082-2.165a71.206,71.206,0,0,0,12.184-17.2,43.777,43.777,0,0,0,2.61-6.6c-1.017.293-1.955.532-2.87.838-.554.185-.831.143-.984-.508-.3-1.263-.339-1.255.94-1.624q1.849-.534,3.7-1.062c1.066-.3,1.466-.068,1.785.989.488,1.617.846,3.273,1.449,4.856Z" transform="translate(-281.972 -111.833)" fill="#1a1818"/>
      <path id="Path_9871" data-name="Path 9871" d="M-1999.773-108.245c-.172-.629-.637-1.384-.435-1.851.212-.49,1.159-.412,1.766-.638.16-.059.321-.115.521-.187-10.13-3.652-18.627-10.541-24-15.776,1.286-1.581,1.284-1.579,2.747-.209a70.259,70.259,0,0,0,17.086,12.01,44.163,44.163,0,0,0,6.425,2.533c-.253-.921-.482-1.765-.718-2.607-.284-1.015-.286-1.014.716-1.3.957-.27.961-.271,1.224.648q.584,2.04,1.158,4.084c.287,1.022.045,1.411-.99,1.731-1.742.538-3.526.933-5.242,1.56Z" transform="translate(-116.458 -282.118)" fill="#1a1818"/>
      <path id="Path_9872" data-name="Path 9872" d="M-2013.578-453.552c.24,1.15.439,2.22.7,3.275.088.359.005.45-.324.523-1.6.357-1.6.365-1.937-1.249q-.377-1.79-.76-3.579c-.193-.9.109-1.4.987-1.586,1.768-.377,3.539-.739,5.3-1.131.324-.072.5-.073.513.314a3.306,3.306,0,0,0,.11.51c.221,1.113.218,1.1-.915,1.34a3.429,3.429,0,0,0-1.185.328,59.433,59.433,0,0,1,9.782,5.1c-.113-.56-.74-.939-.511-1.326.21-.355.795-.489,1.216-.718.459-.25.927-.485,1.377-.749.274-.161.418-.178.6.159.755,1.438.768,1.429-.678,2.2-.454.243-.9.5-1.4.765,1.379.992,2.714,1.928,4.022,2.9a85.658,85.658,0,0,1,8.286,7.156c.332.319.283.5-.022.76-.363.313-.67.89-1.048.932s-.7-.566-1.044-.894a73.107,73.107,0,0,0-17.9-12.88A42.307,42.307,0,0,0-2013.578-453.552Z" transform="translate(-121.557 -0.243)" fill="#1a1818"/>
      <path id="Path_9873" data-name="Path 9873" d="M-2154.05-300.824c1.112-.231,2.157-.417,3.185-.676.4-.1.536-.031.624.357.339,1.5.35,1.5-1.181,1.85q-1.912.434-3.833.832a1.068,1.068,0,0,1-1.391-.924c-.393-1.787-.765-3.579-1.162-5.366-.078-.35.007-.483.364-.576,1.528-.395,1.523-.408,1.851,1.137.053.251.12.5.18.747.26.038.227-.192.272-.3,3.56-8.485,8.949-15.707,15.325-22.254.318-.327.491-.3.76.013.312.365.883.669.932,1.051s-.562.7-.887,1.035a72.887,72.887,0,0,0-12.974,18.086A39.483,39.483,0,0,0-2154.05-300.824Z" transform="translate(-0.159 -112.424)" fill="#1a1818"/>
      <path id="Path_9874" data-name="Path 9874" d="M-1867.387-452.713a30.9,30.9,0,0,0-11.511,2.665c-.838.345-.838.343-1.187-.451-.473-1.077-.469-1.067.628-1.524a36.06,36.06,0,0,1,8.315-2.433c3.565-.554,7.094-.524,10.449,1.066a11.024,11.024,0,0,1,5.9,6.82,18.953,18.953,0,0,1,.532,8.423c-.045.359-.171.47-.54.433-1.5-.149-1.538-.141-1.392-1.626a15.906,15.906,0,0,0-.55-6.608,9.083,9.083,0,0,0-6.071-6.1A13.765,13.765,0,0,0-1867.387-452.713Z" transform="translate(-237.561 -2.429)" fill="#1a1818"/>
      <path id="Path_9875" data-name="Path 9875" d="M-1796.137-166.943a14.443,14.443,0,0,1-2.135,8.192,11.1,11.1,0,0,1-6.049,4.551,19.186,19.186,0,0,1-8.558.526c-.3-.038-.386-.145-.313-.419a.767.767,0,0,0,.01-.131c.139-1.581.132-1.511,1.693-1.362,3.092.294,6.12.092,8.841-1.64a9.323,9.323,0,0,0,4.173-6.525c.776-4.22-.148-8.242-1.5-12.2-.324-.945-.715-1.868-1.09-2.8-.107-.264-.092-.4.2-.54,1.5-.739,1.5-.749,2.129.82A33.884,33.884,0,0,1-1796.137-166.943Z" transform="translate(-295.034 -237.743)" fill="#1a1818"/>
      <path id="Path_9876" data-name="Path 9876" d="M-1963.462-185.382c0,1.15-.013,2.2.007,3.247a.842.842,0,0,1-.431.747,8.364,8.364,0,0,1-3.638,1.352,21.858,21.858,0,0,1-8.2-.12,8.069,8.069,0,0,1-2.9-1.122,1.12,1.12,0,0,1-.547-1.038c.025-.852.017-1.705,0-2.558-.006-.371.02-.507.457-.317a18.954,18.954,0,0,0,8.453,1.317A17.564,17.564,0,0,0-1963.462-185.382Z" transform="translate(-153.033 -232.942)" fill="#1a1818"/>
      <path id="Path_9877" data-name="Path 9877" d="M-1963.416-226.909c0,1.038-.016,2.066.007,3.093a1.033,1.033,0,0,1-.619.922,9.4,9.4,0,0,1-3.812,1.274,20.2,20.2,0,0,1-9.015-.5c-.146-.044-.292-.088-.435-.143-1.687-.65-1.83-.86-1.83-2.669v-1.97A21.646,21.646,0,0,0-1963.416-226.909Z" transform="translate(-153.079 -197.409)" fill="#1a1818"/>
      <path id="Path_9878" data-name="Path 9878" d="M-1963.475-269.412c0,1.111-.015,2.139.006,3.166.011.509-.327.734-.677.955a9.956,9.956,0,0,1-4.014,1.275,20.99,20.99,0,0,1-7.682-.248,8.2,8.2,0,0,1-2.727-1.046,1.2,1.2,0,0,1-.618-1.134c.032-.852.019-1.705,0-2.558-.006-.347.064-.407.4-.257a18.329,18.329,0,0,0,7.856,1.358A18.33,18.33,0,0,0-1963.475-269.412Z" transform="translate(-153.02 -161.041)" fill="#1a1818"/>
      <path id="Path_9879" data-name="Path 9879" d="M-1971.519-298.685a16.335,16.335,0,0,1-6.463-1.1,4.813,4.813,0,0,1-.908-.511c-.619-.447-.618-.751.021-1.19a8.489,8.489,0,0,1,3.537-1.268,20.474,20.474,0,0,1,9.517.483,5.6,5.6,0,0,1,1.641.787c.641.466.635.765-.026,1.228a8,8,0,0,1-2.836,1.118A19.161,19.161,0,0,1-1971.519-298.685Z" transform="translate(-152.881 -132.228)" fill="#1a1818"/>
      <path id="Path_9880" data-name="Path 9880" d="M-2141.809-455.529a12.148,12.148,0,0,0-6.209,1.288,9.484,9.484,0,0,0-4.953,7.352,13.716,13.716,0,0,0-.161,3.656c.031.3-.011.449-.378.51-1.693.282-1.7.277-1.708-1.434a15.668,15.668,0,0,1,1.059-6.077,11.219,11.219,0,0,1,8.381-6.973,20.679,20.679,0,0,1,7.552-.13c.325.045.406.191.344.479-.009.043-.012.087-.019.13-.264,1.555-.267,1.572-1.822,1.3A18.345,18.345,0,0,0-2141.809-455.529Z" transform="translate(-2.399)" fill="#1a1818"/>
      <path id="Path_9881" data-name="Path 9881" d="M-2158.015-110.549a22.764,22.764,0,0,1,.265-3.713c.047-.317.139-.427.443-.36.149.033.3.052.45.083,1.245.255,1.2.25,1.039,1.542a15.774,15.774,0,0,0,.39,6.615c1.243,4.075,4.132,6.195,8.221,6.866a15.643,15.643,0,0,0,3.466.142c.37-.022.573-.006.6.484.1,1.6.126,1.608-1.477,1.6a14.806,14.806,0,0,1-7.66-1.851,11.246,11.246,0,0,1-5.323-7.442A15.317,15.317,0,0,1-2158.015-110.549Z" transform="translate(0 -293.473)" fill="#1a1818"/>
      <path id="Path_9882" data-name="Path 9882" d="M-2053.928-164.739c.089.107.167.21.255.306.78.854,1.552,1.716,2.349,2.554.217.228.212.348,0,.577-1.149,1.227-1.142,1.233-2.267-.006-.5-.55-.982-1.115-1.5-1.643-.314-.319-.443-.545.028-.839a7.379,7.379,0,0,0,.844-.722C-2054.142-164.583-2054.052-164.644-2053.928-164.739Z" transform="translate(-87.828 -250.605)" fill="#1a1818"/>
      <path id="Path_9883" data-name="Path 9883" d="M-1906.05-83.5c.015.175-.132.224-.229.3-1,.738-2.013,1.466-3.013,2.208-.179.133-.295.149-.406-.054a.371.371,0,0,0-.036-.055c-1.061-1.327-1.061-1.326.32-2.33.619-.449,1.243-.892,1.846-1.362.234-.182.372-.222.563.054C-1906.707-84.312-1906.368-83.91-1906.05-83.5Z" transform="translate(-211.798 -318.883)" fill="#1a1818"/>
      <path id="Path_9884" data-name="Path 9884" d="M-1781.812-272.857c.069.079.143.151.2.233.725,1,1.439,2.018,2.178,3.013.181.243.115.331-.1.491-1.341,1.02-1.336,1.025-2.318-.344-.456-.636-.911-1.273-1.374-1.9-.124-.169-.224-.293.017-.462.41-.287.8-.6,1.195-.908C-1781.957-272.776-1781.9-272.8-1781.812-272.857Z" transform="translate(-320.59 -158.093)" fill="#1a1818"/>
      <path id="Path_9885" data-name="Path 9885" d="M-2017.886-352.982l-1.329-1.483c.453-.431.9-.868,1.361-1.293.5-.46,1.012-.9,1.5-1.367.23-.22.373-.263.62.011,1.1,1.219,1.109,1.209-.132,2.318C-2016.531-354.2-2017.2-353.6-2017.886-352.982Z" transform="translate(-118.77 -85.836)" fill="#1a1818"/>
      <path id="Path_9886" data-name="Path 9886" d="M-1971.34-41.741c-.017.163-.16.19-.272.246-1.1.554-2.211,1.1-3.311,1.665-.25.128-.343.088-.478-.174-.77-1.494-.777-1.482.734-2.213q1-.481,1.964-1.017c.3-.166.482-.19.646.179C-1971.852-42.6-1971.581-42.177-1971.34-41.741Z" transform="translate(-155.824 -354.473)" fill="#1a1818"/>
      <path id="Path_9887" data-name="Path 9887" d="M-1859.992-122.19c-.093.1-.164.18-.243.253-.883.813-1.773,1.618-2.647,2.441-.244.23-.4.233-.6-.045-.311-.418-.894-.8-.917-1.214-.018-.326.638-.694,1-1.035.573-.537,1.163-1.057,1.725-1.606.22-.214.367-.239.576,0,.285.33.6.634.9.952C-1860.13-122.365-1860.067-122.28-1859.992-122.19Z" transform="translate(-251.235 -285.836)" fill="#1a1818"/>
      <path id="Path_9888" data-name="Path 9888" d="M-1820.446-319.723c.158,0,.213.137.295.227.809.885,1.6,1.783,2.422,2.659.224.24.2.377-.045.564-.413.319-.791.9-1.216.928-.45.034-.714-.663-1.07-1.03-.531-.547-1.033-1.123-1.542-1.692-.1-.108-.309-.237-.219-.364.366-.515.774-1,1.167-1.495Z" transform="translate(-287.653 -117.819)" fill="#1a1818"/>
      <path id="Path_9889" data-name="Path 9889" d="M-2129.1-270.807c-.257.052-.267-.159-.326-.273-.551-1.083-1.078-2.177-1.637-3.256-.153-.3-.061-.389.2-.521,1.472-.737,1.461-.741,2.164.719.329.684.7,1.349,1.031,2.031.064.132.295.309.069.45C-2128.1-271.347-2128.618-271.079-2129.1-270.807Z" transform="translate(-23 -155.965)" fill="#1a1818"/>
      <path id="Path_9890" data-name="Path 9890" d="M-2088.467-206.49a.79.79,0,0,1-.083.15,1.43,1.43,0,0,1-.149.126c-1.281,1.141-1.28,1.141-2.278-.234-.459-.634-.913-1.272-1.385-1.9-.194-.257-.263-.4.077-.64,1.321-.923,1.308-.939,2.265.38.434.6.873,1.193,1.31,1.789C-2088.634-206.711-2088.555-206.607-2088.467-206.49Z" transform="translate(-56.043 -212.184)" fill="#1a1818"/>
      <path id="Path_9891" data-name="Path 9891" d="M-1968.653-394.836c.367.541.992,1.057,1,1.584.01.577-.866.785-1.342,1.17-.524.425-1.106.777-1.635,1.2-.282.224-.413.156-.62-.1-1.007-1.238-1.016-1.233.292-2.183C-1970.2-393.717-1969.439-394.266-1968.653-394.836Z" transform="translate(-159.193 -53.722)" fill="#1a1818"/>
      <path id="Path_9892" data-name="Path 9892" d="M-2148.734-322.868c-.167.042-.158-.162-.2-.292-.292-.979-.575-1.961-.865-2.941-.083-.282-.015-.4.3-.487,1.552-.451,1.544-.465,1.97,1.079.156.566.337,1.125.515,1.684.046.146.158.315-.045.39C-2147.584-323.237-2148.125-323.071-2148.734-322.868Z" transform="translate(-7.01 -111.892)" fill="#1a1818"/>
      <path id="Path_9893" data-name="Path 9893" d="M-2027.1-16.839c-.259.071-.3-.12-.339-.288-.11-.442-.211-.886-.319-1.329-.057-.236.026-.334.271-.4q1.411-.384,2.805-.825c.253-.08.342,0,.439.214.714,1.567.712,1.588-.917,2.086C-2025.8-17.184-2026.452-17.019-2027.1-16.839Z" transform="translate(-111.447 -374.699)" fill="#1a1818"/>
      <path id="Path_9894" data-name="Path 9894" d="M-1745.938-217.289c.227-.041.271.088.332.2.437.826.865,1.657,1.324,2.47.14.249.059.348-.151.44-.02.009-.042.012-.061.023-1.431.8-1.431.8-2.2-.65-.1-.192-.22-.376-.308-.574-.146-.329-.586-.767-.406-.954A7.046,7.046,0,0,1-1745.938-217.289Z" transform="translate(-351.305 -205.634)" fill="#1a1818"/>
    </g>
  </g>
</svg>
