<svg xmlns="http://www.w3.org/2000/svg" width="80.325" height="72.622" viewBox="0 0 80.325 72.622">
  <g id="erp" transform="translate(-1462.617 -4336.366)">
    <path id="Path_1713" data-name="Path 1713" d="M5905.684,1972.222c-17.188,0-17.323-17.553-38.79-16.9s3.843-24.824,9.237-40.155,8.782-25.559,29.552,0,26.964,26.475,29.962,40.155S5922.873,1972.222,5905.684,1972.222Z" transform="translate(-4393.073 2436.766)" fill="#e7b1ff" opacity="0.2"/>
    <g id="erp-2" data-name="erp" transform="translate(4210.617 5544.869)">
      <path id="Path_9855" data-name="Path 9855" d="M-2696.956-1146.97c-.354.1-.5.009-.66-.3-1.088-2.017-2.215-4.012-3.292-6.034a1.714,1.714,0,0,0-1.7-1.031c-4.006.031-8.012,0-12.018.026-.5,0-.613-.139-.591-.608.039-.82.014-1.643.01-2.465a1.312,1.312,0,0,0-1.451-1.5,11.445,11.445,0,0,1-11.134-12.966,11.4,11.4,0,0,1,13.88-9.635,11.287,11.287,0,0,1,8.087,6.9c.392.922,1.038,1.272,1.757.96s.923-1.034.547-1.927a13.528,13.528,0,0,0-1.647-2.937c-.362-.479-.742-.943-1.158-1.47,3.556,0,7.025-.008,10.494.008a1.784,1.784,0,0,0,1.369-.564c1.023-1.04,2.069-2.057,3.084-3.1a.6.6,0,0,1,.8-.167,3.823,3.823,0,0,0,3.043.01,4.2,4.2,0,0,0,2.606-4.6,4.271,4.271,0,0,0-4.156-3.51,4.2,4.2,0,0,0-3.877,5.709.618.618,0,0,1-.148.8c-.9.867-1.786,1.758-2.656,2.66a.943.943,0,0,1-.758.3q-6.286-.012-12.573,0a1.612,1.612,0,0,1-.818-.2,14.658,14.658,0,0,0-3.785-1.388c-.489-.116-1.186.057-1.43-.328-.234-.369-.035-1-.08-1.507-.04-.452.087-.579.561-.577,4.006.022,8.012,0,12.018.021a1.749,1.749,0,0,0,1.726-1.018c1.068-2,2.192-3.977,3.271-5.976.194-.359.361-.436.759-.3a3.809,3.809,0,0,0,2.876-.2,4.187,4.187,0,0,0,2.1-5.535,4.2,4.2,0,0,0-5.532-2.112,4.174,4.174,0,0,0-2.047,5.685.67.67,0,0,1-.028.719c-1.069,1.911-2.128,3.827-3.161,5.756a.777.777,0,0,1-.814.458q-5.578-.022-11.155,0c-.446,0-.581-.083-.578-.561.023-3.657.015-7.314.011-10.971a1.269,1.269,0,0,0-1.424-1.448q-2.558-.009-5.115,0a1.294,1.294,0,0,0-1.465,1.481c-.007,1.048-.018,2.1.008,3.143a.465.465,0,0,1-.412.545,25.471,25.471,0,0,0-6.435,2.665c-.332.193-.488.1-.711-.13-.7-.723-1.416-1.431-2.133-2.138a1.326,1.326,0,0,0-2.174-.016q-3.71,3.7-7.4,7.413a1.3,1.3,0,0,0,0,2.127c.734.747,1.472,1.491,2.228,2.217a.422.422,0,0,1,.088.618,25.748,25.748,0,0,0-2.688,6.492c-.083.319-.25.389-.562.381-.945-.023-1.891.02-2.834-.017a1.766,1.766,0,0,0-1.749.859v11.835a1.365,1.365,0,0,0,1.437,1.012c.944.023,1.888.02,2.832,0a.7.7,0,0,1,.8.577,26.321,26.321,0,0,0,2.474,5.953.657.657,0,0,1-.138.921c-.654.622-1.288,1.267-1.919,1.913a1.545,1.545,0,0,0-.016,2.516q3.606,3.665,7.271,7.272a1.558,1.558,0,0,0,2.483.01c.616-.574,1.194-1.186,1.792-1.779.568-.564.577-.581,1.253-.205a25.367,25.367,0,0,0,5.737,2.354.72.72,0,0,1,.617.828c-.021.944-.022,1.889,0,2.833a1.365,1.365,0,0,0,1.012,1.437h6.287a1.257,1.257,0,0,0,1.035-1.388c.012-.246.006-.493.006-.739q0-4.989,0-9.977c0-.719.052-.781.7-.782,3.551-.006,7.1,0,10.654-.006a.9.9,0,0,1,.889.516q1.468,2.706,2.958,5.4a1.123,1.123,0,0,1,.076,1.1c-1.1,2.385.5,5.673,3.284,5.872h1.479c.1-.124.259-.109.393-.151a4.214,4.214,0,0,0,2.911-5.162A4.161,4.161,0,0,0-2696.956-1146.97Zm7.932-42.39a1.721,1.721,0,0,1,1.67,1.7,1.73,1.73,0,0,1-1.75,1.681,1.716,1.716,0,0,1-1.7-1.73A1.7,1.7,0,0,1-2689.023-1189.359Zm-6.717-10.075a1.77,1.77,0,0,1,1.727,1.73,1.77,1.77,0,0,1-1.747,1.711,1.764,1.764,0,0,1-1.694-1.761A1.764,1.764,0,0,1-2695.74-1199.435Zm-21.926,57.62c0,.452-.092.6-.564.573a18.449,18.449,0,0,0-2.033,0c-.372.016-.5-.081-.484-.473.03-.965.017-1.931.007-2.9a1.258,1.258,0,0,0-1.123-1.442,26.544,26.544,0,0,1-7.946-3.3,1.283,1.283,0,0,0-1.867.26c-.774.764-1.533,1.542-2.306,2.323-1.951-1.951-3.864-3.872-5.792-5.779-.226-.224-.189-.332.012-.527q1.04-1.008,2.051-2.046a1.287,1.287,0,0,0,.237-1.915,26.414,26.414,0,0,1-3.264-7.9,1.264,1.264,0,0,0-1.442-1.13c-.945-.015-1.89-.019-2.835,0-.375.009-.533-.057-.529-.492.023-2.527.019-5.054,0-7.581,0-.371.081-.5.473-.486.9.03,1.807.014,2.711.008,1.061-.006,1.389-.237,1.641-1.264a27.009,27.009,0,0,1,3.209-7.722c.537-.878.468-1.282-.25-2.009-.664-.672-1.328-1.345-2.008-2-.209-.2-.224-.313,0-.53,1.926-1.908,3.839-3.829,5.8-5.789.758.773,1.5,1.541,2.254,2.3a1.326,1.326,0,0,0,1.966.271,26.433,26.433,0,0,1,7.775-3.238c.994-.24,1.235-.591,1.24-1.6,0-.945.015-1.891-.006-2.835-.007-.328.1-.422.417-.413q1.139.032,2.28,0c.3-.008.377.088.376.381q-.012,7.211.006,14.423c0,.454-.277.439-.542.47a13.151,13.151,0,0,0-6.327,2.479,13.657,13.657,0,0,0-5.718,9.448,13.971,13.971,0,0,0,11.367,15.659c.395.074.945-.073,1.145.252.185.3.062.8.062,1.205C-2717.677-1150.69-2717.685-1146.252-2717.666-1141.814Zm21.969.556a1.765,1.765,0,0,1-1.756-1.7,1.763,1.763,0,0,1,1.713-1.742,1.77,1.77,0,0,1,1.728,1.729A1.774,1.774,0,0,1-2695.7-1141.259Z" fill="#1a1818"/>
      <path id="Path_9856" data-name="Path 9856" d="M-2585.779-1048.7A1.256,1.256,0,0,0-2587-1050a1.242,1.242,0,0,0-1.238,1.195c-.031.286-.059.572-.093.857a6.839,6.839,0,0,1-7.878,5.973,6.851,6.851,0,0,1-4.82-10.353,6.909,6.909,0,0,1,5.889-3.349,1.221,1.221,0,0,0,1.227-1.266,1.279,1.279,0,0,0-1.322-1.193,7.558,7.558,0,0,0-1.224.1,9.4,9.4,0,0,0-8.035,8.326,9.387,9.387,0,0,0,9.334,10.312,9.338,9.338,0,0,0,8.22-4.846A9.034,9.034,0,0,0-2585.779-1048.7Z" transform="translate(-121.307 -121.575)" fill="#1a1818"/>
      <path id="Path_9857" data-name="Path 9857" d="M-2459.43-931.471a.567.567,0,0,1-.741-.16c-1.031-1.059-2.088-2.092-3.126-3.143a1.708,1.708,0,0,0-1.315-.544c-1.416.022-2.833.007-4.249.007-1.458,0-2.915-.005-4.372,0a1.2,1.2,0,0,0-1.292.906,1.208,1.208,0,0,0,1.3,1.554q3.879.014,7.759,0a1.192,1.192,0,0,1,.967.387c.791.834,1.6,1.657,2.439,2.436a.867.867,0,0,1,.234,1.1,3.876,3.876,0,0,0,.908,4.2,3.922,3.922,0,0,0,4.088,1.168,4.131,4.131,0,0,0,2.886-5.438A4.144,4.144,0,0,0-2459.43-931.471Zm1.557,5.562a1.711,1.711,0,0,1-1.735-1.691,1.723,1.723,0,0,1,1.678-1.688,1.73,1.73,0,0,1,1.768,1.662A1.719,1.719,0,0,1-2457.873-925.91Z" transform="translate(-231.192 -225.42)" fill="#1a1818"/>
      <path id="Path_9858" data-name="Path 9858" d="M-2413.64-1024.322a3.963,3.963,0,0,0-4.854,1.567,1.917,1.917,0,0,1-2.249,1.126,2.486,2.486,0,0,0-.308,0c-.513,0-1.026-.01-1.539,0a1.265,1.265,0,0,0-1.38,1.251,1.237,1.237,0,0,0,1.391,1.224c.985.013,1.971.025,2.954-.007a.643.643,0,0,1,.71.483,4.187,4.187,0,0,0,4.575,2.436,4.282,4.282,0,0,0,3.42-3.775A4.246,4.246,0,0,0-2413.64-1024.322Zm-1.48,5.646a1.74,1.74,0,0,1-1.7-1.742,1.761,1.761,0,0,1,1.711-1.681,1.767,1.767,0,0,1,1.73,1.726A1.744,1.744,0,0,1-2415.12-1018.676Z" transform="translate(-273.981 -149.944)" fill="#1a1818"/>
      <path id="Path_9859" data-name="Path 9859" d="M-2469.468-1004.368a1.2,1.2,0,0,0,1.231,1.236,1.227,1.227,0,0,0,1.231-1.248,1.226,1.226,0,0,0-1.243-1.237A1.2,1.2,0,0,0-2469.468-1004.368Z" transform="translate(-235.51 -165.981)" fill="#1a1818"/>
      <path id="Path_9860" data-name="Path 9860" d="M-2507.546-934.02a1.275,1.275,0,0,0,1.225,1.219,1.236,1.236,0,0,0,1.25-1.239,1.243,1.243,0,0,0-1.208-1.223A1.284,1.284,0,0,0-2507.546-934.02Z" transform="translate(-203.314 -225.467)" fill="#1a1818"/>
      <path id="Path_9861" data-name="Path 9861" d="M-2656.181-1112.059c.922-.389,1.264-1.065.951-1.761-.324-.723-1.009-.9-1.927-.522a17.241,17.241,0,0,0-3.243,1.726,19.248,19.248,0,0,0-8.66,15.412c0,.287-.018.576,0,.861a1.135,1.135,0,0,0,.934,1.079,1.151,1.151,0,0,0,1.32-.556,1.875,1.875,0,0,0,.215-1.006,16.7,16.7,0,0,1,3.809-10.343A16.807,16.807,0,0,1-2656.181-1112.059Z" transform="translate(-66.742 -73.885)" fill="#1a1818"/>
    </g>
  </g>
</svg>
