<svg xmlns="http://www.w3.org/2000/svg" width="219.467" height="219.478" viewBox="0 0 219.467 219.478">
  <g id="erp_tile" transform="translate(2748 1201.917)">
    <path id="Path_9855" data-name="Path 9855" d="M-2570.537-1010.884c-1.232.349-1.722.032-2.3-1.032-3.781-7.011-7.7-13.948-11.444-20.979a5.959,5.959,0,0,0-5.925-3.586c-13.927.106-27.854.013-41.783.092-1.723.01-2.13-.482-2.054-2.113.134-2.851.05-5.712.034-8.569-.018-3.481-1.606-5.115-5.045-5.226a39.791,39.791,0,0,1-38.708-45.078c2.8-23.073,25.708-39.011,48.258-33.5,13.356,3.266,22.727,11.307,28.115,23.972,1.363,3.2,3.609,4.423,6.108,3.339s3.208-3.6,1.9-6.7a47.042,47.042,0,0,0-5.726-10.212c-1.258-1.664-2.581-3.279-4.028-5.109,12.363,0,24.424-.028,36.484.028a6.206,6.206,0,0,0,4.761-1.962c3.556-3.616,7.194-7.151,10.723-10.793a2.088,2.088,0,0,1,2.766-.582,13.291,13.291,0,0,0,10.579.033,14.607,14.607,0,0,0,9.059-15.976,14.847,14.847,0,0,0-14.447-12.2,14.587,14.587,0,0,0-13.479,19.847,2.147,2.147,0,0,1-.516,2.769c-3.144,3.015-6.209,6.113-9.234,9.248a3.28,3.28,0,0,1-2.634,1.032q-21.854-.042-43.711,0a5.612,5.612,0,0,1-2.845-.691,50.971,50.971,0,0,0-13.158-4.826c-1.7-.4-4.122.2-4.973-1.141-.814-1.282-.121-3.467-.278-5.238-.14-1.571.3-2.014,1.949-2.005,13.927.077,27.854.01,41.782.072a6.079,6.079,0,0,0,6-3.538c3.714-6.966,7.622-13.828,11.372-20.775.673-1.247,1.254-1.516,2.64-1.055a13.242,13.242,0,0,0,10-.693,14.556,14.556,0,0,0,7.3-19.243,14.593,14.593,0,0,0-19.232-7.343,14.513,14.513,0,0,0-7.116,19.766,2.33,2.33,0,0,1-.1,2.5c-3.715,6.643-7.4,13.3-10.991,20.013a2.7,2.7,0,0,1-2.83,1.59q-19.392-.076-38.782.007c-1.55.007-2.021-.288-2.01-1.949.082-12.713.053-25.428.04-38.143,0-3.366-1.634-5.022-4.952-5.035q-8.892-.033-17.784,0c-3.443.011-5.07,1.656-5.095,5.148-.025,3.642-.063,7.287.027,10.927a1.617,1.617,0,0,1-1.434,1.9,88.54,88.54,0,0,0-22.373,9.265c-1.153.672-1.7.352-2.474-.453-2.434-2.515-4.923-4.976-7.414-7.434-2.667-2.632-4.933-2.673-7.557-.057q-12.9,12.861-25.741,25.773c-2.59,2.6-2.569,4.8-.018,7.4s5.119,5.185,7.745,7.708a1.466,1.466,0,0,1,.306,2.148,89.524,89.524,0,0,0-9.344,22.571c-.287,1.109-.871,1.351-1.952,1.326-3.284-.079-6.574.07-9.854-.059-2.636-.1-4.7.679-6.08,2.987v41.145c.729,2.5,2.576,3.461,5,3.52,3.281.079,6.565.069,9.847,0a2.45,2.45,0,0,1,2.8,2.006,91.491,91.491,0,0,0,8.6,20.7,2.285,2.285,0,0,1-.479,3.2c-2.275,2.163-4.478,4.4-6.672,6.65-2.985,3.057-3.083,5.674-.057,8.749q12.538,12.741,25.279,25.283c2.947,2.9,5.612,2.848,8.634.033,2.141-1.994,4.152-4.124,6.229-6.186,1.976-1.96,2.008-2.018,4.356-.713a88.172,88.172,0,0,0,19.943,8.182,2.5,2.5,0,0,1,2.146,2.878c-.071,3.281-.077,6.566,0,9.848.058,2.419,1.018,4.267,3.52,5H-2637c2.688-.928,3.459-1.953,3.6-4.825.042-.856.021-1.713.021-2.569q0-17.343.007-34.687c0-2.5.181-2.716,2.42-2.719,12.347-.02,24.693,0,37.04-.022a3.124,3.124,0,0,1,3.091,1.794q5.1,9.408,10.283,18.774a3.9,3.9,0,0,1,.266,3.839c-3.812,8.292,1.748,19.722,11.417,20.416h5.142c.358-.43.9-.379,1.367-.525,7.866-2.456,12.339-10.39,10.121-17.947A14.467,14.467,0,0,0-2570.537-1010.884Zm27.578-147.374a5.982,5.982,0,0,1,5.807,5.9,6.014,6.014,0,0,1-6.083,5.844,5.966,5.966,0,0,1-5.894-6.013A5.923,5.923,0,0,1-2542.958-1158.259Zm-23.353-35.028a6.155,6.155,0,0,1,6,6.015,6.156,6.156,0,0,1-6.072,5.947,6.135,6.135,0,0,1-5.891-6.122A6.135,6.135,0,0,1-2566.311-1193.287Zm-76.229,200.325c.007,1.573-.317,2.1-1.961,1.99a64.14,64.14,0,0,0-7.067-.014c-1.292.055-1.728-.281-1.684-1.644.105-3.354.06-6.713.025-10.07-.03-2.953-1.009-4.32-3.905-5.013a92.294,92.294,0,0,1-27.627-11.468c-2.579-1.612-4.261-1.3-6.491.9-2.69,2.655-5.329,5.363-8.018,8.077-6.783-6.781-13.435-13.463-20.139-20.091-.786-.777-.657-1.154.043-1.833,2.41-2.336,4.78-4.715,7.13-7.113,2.287-2.334,2.548-3.867.824-6.659a91.825,91.825,0,0,1-11.348-27.449c-.678-2.881-2.044-3.883-5.014-3.929-3.285-.051-6.572-.064-9.856.012-1.3.031-1.854-.2-1.84-1.71.078-8.785.064-17.571.009-26.356-.008-1.289.283-1.735,1.644-1.69,3.139.1,6.283.048,9.427.028,3.688-.022,4.83-.824,5.706-4.4a93.908,93.908,0,0,1,11.156-26.847c1.868-3.053,1.627-4.458-.87-6.986-2.31-2.337-4.617-4.677-6.982-6.958-.726-.7-.777-1.087-.016-1.842,6.7-6.632,13.346-13.313,20.157-20.127,2.636,2.688,5.213,5.358,7.837,7.982,2.384,2.383,4.033,2.682,6.836.944a91.888,91.888,0,0,1,27.031-11.259c3.454-.835,4.293-2.055,4.311-5.556.016-3.286.051-6.572-.022-9.856-.025-1.142.334-1.466,1.449-1.435q3.961.111,7.927,0c1.04-.027,1.311.307,1.309,1.325q-.042,25.072.021,50.143c.006,1.577-.962,1.526-1.883,1.633a45.722,45.722,0,0,0-22,8.617c-11.193,8.161-17.925,19.072-19.88,32.849a48.571,48.571,0,0,0,39.52,54.44c1.371.258,3.286-.255,3.979.877.643,1.048.215,2.767.216,4.191C-2642.576-1023.819-2642.6-1008.39-2642.54-992.962Zm76.377,1.932a6.137,6.137,0,0,1-6.106-5.906,6.13,6.13,0,0,1,5.956-6.057,6.155,6.155,0,0,1,6.007,6.012A6.168,6.168,0,0,1-2566.163-991.03Z" transform="translate(0)" fill="#0075c3"/>
    <path id="Path_9856" data-name="Path 9856" d="M-2539.33-1025.349a4.367,4.367,0,0,0-4.239-4.492,4.318,4.318,0,0,0-4.306,4.154c-.109.994-.205,1.988-.321,2.981a23.777,23.777,0,0,1-27.388,20.765,23.819,23.819,0,0,1-16.759-35.993c4.647-7.576,11.686-11.178,20.473-11.645a4.245,4.245,0,0,0,4.265-4.4,4.448,4.448,0,0,0-4.595-4.148,26.277,26.277,0,0,0-4.255.354,32.694,32.694,0,0,0-27.934,28.946,32.636,32.636,0,0,0,32.45,35.853,32.465,32.465,0,0,0,28.577-16.847A31.408,31.408,0,0,0-2539.33-1025.349Z" transform="translate(-66.426 -66.572)" fill="#4ec9ff"/>
    <path id="Path_9857" data-name="Path 9857" d="M-2421.921-921.943a1.97,1.97,0,0,1-2.578-.558c-3.585-3.68-7.258-7.273-10.87-10.927a5.936,5.936,0,0,0-4.573-1.89c-4.922.075-9.848.026-14.771.026-5.067,0-10.133-.019-15.2.008-2.419.012-3.967,1.139-4.49,3.148-.782,3.007,1.162,5.392,4.52,5.4q13.487.047,26.974-.016a4.146,4.146,0,0,1,3.362,1.345c2.75,2.9,5.548,5.76,8.479,8.47,1.313,1.215,1.4,2.231.814,3.841-1.994,5.476-.73,10.448,3.158,14.6a13.634,13.634,0,0,0,14.214,4.06c8.468-2.281,12.787-10.554,10.034-18.907A14.407,14.407,0,0,0-2421.921-921.943Zm5.413,19.336a5.948,5.948,0,0,1-6.033-5.879,5.992,5.992,0,0,1,5.836-5.868,6.013,6.013,0,0,1,6.145,5.778A5.975,5.975,0,0,1-2416.508-902.607Z" transform="translate(-126.597 -123.437)" fill="#4ec9ff"/>
    <path id="Path_9858" data-name="Path 9858" d="M-2388.057-1023.677c-6.382-2.226-13.777-.317-16.876,5.447-1.983,3.689-4.342,4.342-7.818,3.913a8.693,8.693,0,0,0-1.07-.005c-1.783,0-3.568-.034-5.351.008-2.9.068-4.809,1.821-4.8,4.351.012,2.554,1.847,4.215,4.836,4.255,3.424.045,6.852.086,10.271-.025a2.236,2.236,0,0,1,2.47,1.678,14.556,14.556,0,0,0,15.906,8.469,14.887,14.887,0,0,0,11.892-13.125A14.76,14.76,0,0,0-2388.057-1023.677Zm-5.145,19.628a6.05,6.05,0,0,1-5.9-6.057,6.121,6.121,0,0,1,5.947-5.845,6.142,6.142,0,0,1,6.016,6A6.065,6.065,0,0,1-2393.2-1004.049Z" transform="translate(-150.028 -82.107)" fill="#4ec9ff"/>
    <path id="Path_9859" data-name="Path 9859" d="M-2469.468-1001.276a4.173,4.173,0,0,0,4.281,4.3,4.267,4.267,0,0,0,4.281-4.337,4.262,4.262,0,0,0-4.32-4.3A4.179,4.179,0,0,0-2469.468-1001.276Z" transform="translate(-128.962 -90.888)" fill="#4ec9ff"/>
    <path id="Path_9860" data-name="Path 9860" d="M-2507.546-930.94a4.432,4.432,0,0,0,4.257,4.24,4.3,4.3,0,0,0,4.345-4.308,4.323,4.323,0,0,0-4.2-4.254A4.464,4.464,0,0,0-2507.546-930.94Z" transform="translate(-111.332 -123.462)" fill="#4ec9ff"/>
    <path id="Path_9861" data-name="Path 9861" d="M-2624.27-1105.928c3.206-1.354,4.4-3.7,3.308-6.123-1.128-2.514-3.507-3.121-6.7-1.815a59.967,59.967,0,0,0-11.274,6c-18.822,12.916-28.653,30.9-30.106,53.583,0,1-.062,2,.013,2.995a3.948,3.948,0,0,0,3.249,3.751,4,4,0,0,0,4.587-1.932,6.508,6.508,0,0,0,.746-3.5,58.063,58.063,0,0,1,13.241-35.958A58.434,58.434,0,0,1-2624.27-1105.928Z" transform="translate(-36.547 -40.458)" fill="#4ec9ff"/>
  </g>
</svg>
