<svg xmlns="http://www.w3.org/2000/svg" width="16.376" height="16.397" viewBox="0 0 16.376 16.397">
  <path id="Ic_call" d="M3.3,6.164a1.206,1.206,0,0,1,.307-.655L6.065,3.052q.287-.246.43.082L8.481,6.86a.536.536,0,0,1-.1.635l-.9.9a1.019,1.019,0,0,0-.287.635,3.125,3.125,0,0,0,.635,1.576,13.462,13.462,0,0,0,1.249,1.638l.635.655c.191.191.436.427.738.706a12.36,12.36,0,0,0,1.484,1.106,3.321,3.321,0,0,0,1.628.686.891.891,0,0,0,.655-.266l1.065-1.065a.45.45,0,0,1,.614-.082l3.583,2.109a.3.3,0,0,1,.164.215.261.261,0,0,1-.082.235L17.1,19a1.2,1.2,0,0,1-.655.306,4.953,4.953,0,0,1-2.263-.276,10.238,10.238,0,0,1-2.333-1.116q-1.075-.7-2-1.412T8.38,15.275l-.532-.512q-.2-.2-.543-.563T6.127,12.787A20.561,20.561,0,0,1,4.673,10.73,12,12,0,0,1,3.609,8.447,4.856,4.856,0,0,1,3.3,6.164Z" transform="translate(-3.267 -2.947)" fill="#fff"/>
</svg>
