<svg xmlns="http://www.w3.org/2000/svg" width="22.15" height="17.99" viewBox="0 0 22.15 17.99">
  <path id="Icon_awesome-twitter" data-name="Icon awesome-twitter" d="M19.873,7.864c.014.2.014.394.014.59A12.828,12.828,0,0,1,6.971,21.371,12.829,12.829,0,0,1,0,19.333a9.391,9.391,0,0,0,1.1.056,9.092,9.092,0,0,0,5.636-1.94A4.548,4.548,0,0,1,2.488,14.3a5.725,5.725,0,0,0,.857.07,4.8,4.8,0,0,0,1.195-.155A4.54,4.54,0,0,1,.9,9.762V9.705a4.572,4.572,0,0,0,2.052.576A4.546,4.546,0,0,1,1.546,4.21a12.9,12.9,0,0,0,9.36,4.75,5.125,5.125,0,0,1-.112-1.04A4.544,4.544,0,0,1,18.65,4.814a8.938,8.938,0,0,0,2.881-1.1,4.527,4.527,0,0,1-2,2.5,9.1,9.1,0,0,0,2.614-.7,9.758,9.758,0,0,1-2.277,2.347Z" transform="translate(0 -3.381)" fill="#fff"/>
</svg>
