<svg xmlns="http://www.w3.org/2000/svg" width="20.113" height="20.113" viewBox="0 0 20.113 20.113">
  <path id="Icon_awesome-linkedin-in" data-name="Icon awesome-linkedin-in" d="M4.5,20.114H.332V6.685H4.5ZM2.415,4.853A2.426,2.426,0,1,1,4.83,2.416,2.435,2.435,0,0,1,2.415,4.853Zm17.694,15.26H15.948V13.577c0-1.558-.031-3.556-2.168-3.556-2.168,0-2.5,1.693-2.5,3.444v6.649H7.114V6.685h4V8.517h.058a4.382,4.382,0,0,1,3.945-2.168c4.22,0,5,2.779,5,6.389v7.376Z" transform="translate(0 -0.001)" fill="#fff"/>
</svg>
