<svg xmlns="http://www.w3.org/2000/svg" width="82.714" height="75.542" viewBox="0 0 82.714 75.542">
  <g id="inter" transform="translate(-1457.228 -4131.297)">
    <path id="Path_1713" data-name="Path 1713" d="M5905.684,1972.222c-17.188,0-17.323-17.553-38.79-16.9s3.843-24.824,9.237-40.155,8.782-25.559,29.552,0,26.964,26.475,29.962,40.155S5922.873,1972.222,5905.684,1972.222Z" transform="translate(-4396.073 2231.697)" fill="#57f8fe" opacity="0.2"/>
    <g id="inter-2" data-name="inter" transform="translate(1916.514 5102.619)">
      <path id="Path_9866" data-name="Path 9866" d="M-392.54-934.057a2.855,2.855,0,0,1-1.867,1.921,2.643,2.643,0,0,1-2.768-.838A41.355,41.355,0,0,0-402.886-938a38.72,38.72,0,0,0-16.417-6.888,39.189,39.189,0,0,0-10.571-.36,38.593,38.593,0,0,0-18.952,7.169,44.387,44.387,0,0,0-5.866,5.146,2.574,2.574,0,0,1-3.622.31,2.588,2.588,0,0,1-.215-3.855,40.086,40.086,0,0,1,3.317-3.221,44.075,44.075,0,0,1,17.888-9.518,44.943,44.943,0,0,1,15.215-1.293,43.685,43.685,0,0,1,19.754,6.545,45.5,45.5,0,0,1,9.067,7.471,5.493,5.493,0,0,1,.748,1.264Z" fill="#1a1818"/>
      <path id="Path_9867" data-name="Path 9867" d="M-353.332-846.169a2.451,2.451,0,0,1-1.509,2.142,2.383,2.383,0,0,1-2.785-.387,37.836,37.836,0,0,0-5.156-4.161,25.987,25.987,0,0,0-17.524-4.117,26.971,26.971,0,0,0-15.438,7.356,5.024,5.024,0,0,1-1.959,1.46,2.607,2.607,0,0,1-2.972-1.183,2.553,2.553,0,0,1,.433-3.211,33.2,33.2,0,0,1,5.144-4.282,31.389,31.389,0,0,1,13.084-5.2,31.3,31.3,0,0,1,21.759,4.574,34.492,34.492,0,0,1,5.991,4.774A2.866,2.866,0,0,1-353.332-846.169Z" transform="translate(-48.72 -77.43)" fill="#1a1818"/>
      <path id="Path_9868" data-name="Path 9868" d="M-311.6-757.49a2.488,2.488,0,0,1-1.482,2.331,2.417,2.417,0,0,1-2.793-.358,17.857,17.857,0,0,0-3.81-2.691c-4.5-2.211-8.752-1.635-12.818,1.117-.668.452-1.241,1.017-1.861,1.526a2.578,2.578,0,0,1-3.716-.248,2.585,2.585,0,0,1,.261-3.67,18.784,18.784,0,0,1,10.8-5.22,17,17,0,0,1,10.544,2.275,19.611,19.611,0,0,1,3.918,2.883A2.659,2.659,0,0,1-311.6-757.49Z" transform="translate(-100.871 -155.499)" fill="#1a1818"/>
      <path id="Path_9869" data-name="Path 9869" d="M-273.418-663.183a4.342,4.342,0,0,1-4.327,4.346,4.34,4.34,0,0,1-4.275-4.332,4.343,4.343,0,0,1,4.294-4.313A4.347,4.347,0,0,1-273.418-663.183Z" transform="translate(-148.319 -236.943)" fill="#1a1818"/>
    </g>
  </g>
</svg>
