<svg xmlns="http://www.w3.org/2000/svg" width="186.541" height="44.588" viewBox="0 0 186.541 44.588">
  <g id="logo" transform="translate(-777.596 -356.042)">
    <g id="Group_3037" data-name="Group 3037" transform="translate(784.855 365.474)">
      <path id="Path_4860" data-name="Path 4860" d="M780.295,360.973h7.4v19.975h1.489V360.973h7.4v-1.28H780.295Z" transform="translate(-780.295 -359.306)" fill="#fff"/>
      <path id="Path_4861" data-name="Path 4861" d="M789.939,370.3h9.337V369.02h-9.337v-8.046h11.089v-1.28H788.449v21.255h12.9v-1.28H789.939Z" transform="translate(-766.518 -359.306)" fill="#fff"/>
      <path id="Path_4862" data-name="Path 4862" d="M804.022,380.223c-4.572,0-7.479-3.814-7.479-9.723,0-5.893,2.907-9.6,7.571-9.6a6.04,6.04,0,0,1,4.637,2.162l.89-.982a7.344,7.344,0,0,0-5.527-2.534c-5.444,0-9.131,4.233-9.131,10.968,0,6.761,3.693,11.062,8.921,11.062a7.882,7.882,0,0,0,6.337-3.042l-.893-.917A6.763,6.763,0,0,1,804.022,380.223Z" transform="translate(-755.481 -359.549)" fill="#fff"/>
      <path id="Path_4863" data-name="Path 4863" d="M814.535,369H803.882v-9.308h-1.5v21.255h1.5v-10.64h10.653v10.64h1.5V359.693h-1.5Z" transform="translate(-742.973 -359.306)" fill="#fff"/>
      <path id="Path_4864" data-name="Path 4864" d="M819.871,367.209c0,2.482.444,5.43.656,7.641h-.11l-1.8-4.618L814.2,359.78h-4.879V380.8h4.537v-7.458c0-2.472-.444-5.29-.656-7.611h.111l1.8,4.6,4.422,10.473h4.879V359.78h-4.537Z" transform="translate(-731.261 -359.159)" fill="#fff"/>
      <path id="Path_4865" data-name="Path 4865" d="M821.59,371.975h7.8v-3.99h-7.8V363.77h9.174v-3.99H816.831V380.8h14.257v-3.99h-9.5Z" transform="translate(-718.566 -359.159)" fill="#fff"/>
      <path id="Path_4866" data-name="Path 4866" d="M839.348,366.329c0-5-3.668-6.549-8.12-6.549h-7.471V380.8h4.763v-7.563h2.5l4.013,7.563h5.325l-4.76-8.416A6.186,6.186,0,0,0,839.348,366.329Zm-10.828-2.773h2.324c2.5,0,3.838.7,3.838,2.773,0,2.058-1.342,3.133-3.838,3.133H828.52Z" transform="translate(-706.864 -359.159)" fill="#fff"/>
      <path id="Path_4867" data-name="Path 4867" d="M836.776,359.78h-5.807V380.8h6.076c5.831,0,9.838-3.378,9.838-10.608S842.876,359.78,836.776,359.78Zm-.266,17.189h-.785V363.613h.785c3.273,0,5.495,1.563,5.495,6.581S839.783,376.969,836.51,376.969Z" transform="translate(-694.679 -359.159)" fill="#fff"/>
      <path id="Path_4868" data-name="Path 4868" d="M849.576,369.195,847,368.105c-2.015-.756-3.426-1.218-3.426-2.482,0-1.229,1.065-1.877,2.633-1.877a7.538,7.538,0,0,1,4.844,1.641l2.4-3a10.2,10.2,0,0,0-6.979-2.751c-4.569,0-7.705,2.781-7.705,6.264,0,3.061,2.125,4.846,4.456,5.731l2.738,1.167c1.988.834,3.238,1.2,3.238,2.714,0,1.027-.933,1.81-2.95,1.81a9,9,0,0,1-5.591-2.195l-2.727,3.268a12.112,12.112,0,0,0,8,3.036c5.2,0,8.136-3.028,8.136-6.522C854.065,371.943,852.325,370.227,849.576,369.195Z" transform="translate(-682.922 -359.402)" fill="#fff"/>
    </g>
    <path id="Path_4869" data-name="Path 4869" d="M964.137,395.788H777.6V356.042H964.137Zm-184.524-2.017H962.12V358.059H779.613Z" transform="translate(0 0)" fill="none"/>
    <g id="Group_3038" data-name="Group 3038" transform="translate(858.323 393.634)">
      <path id="Path_4870" data-name="Path 4870" d="M813.657,377.7l-.915-.4c-.591-.231-1.175-.444-1.175-1.03,0-.551.479-.88,1.186-.88a2.373,2.373,0,0,1,1.63.6l.535-.662a3.031,3.031,0,0,0-2.119-.847,2.035,2.035,0,0,0-2.281,1.848,1.935,1.935,0,0,0,1.444,1.764l.955.417c.667.282,1.159.465,1.159,1.124,0,.543-.473.936-1.329.936a2.853,2.853,0,0,1-1.928-.8l-.605.713a3.542,3.542,0,0,0,2.48.992c1.528,0,2.442-.885,2.442-1.966A1.9,1.9,0,0,0,813.657,377.7Z" transform="translate(-810.214 -374.481)" fill="#fff"/>
      <path id="Path_4871" data-name="Path 4871" d="M815.234,377.281l-.293,1.049H814.9l-.3-1.049-.871-2.754h-1.191v6.748h.922V378.23c0-.683-.094-1.961-.161-2.577h.027l.411,1.442.842,2.391h.648l.855-2.391.414-1.442h.032c-.051.616-.161,1.893-.161,2.577v3.045h.944v-6.748h-1.191Z" transform="translate(-806.294 -374.403)" fill="#fff"/>
      <path id="Path_4872" data-name="Path 4872" d="M816.894,374.527l-2.227,6.748h1.06l.578-1.934h2.348l.57,1.934h1.1l-2.227-6.748Zm1.514,3.989h-1.856l.277-.917c.221-.729.428-1.482.632-2.246h.04c.194.764.414,1.517.635,2.246Z" transform="translate(-802.69 -374.403)" fill="#fff"/>
      <path id="Path_4873" data-name="Path 4873" d="M821.829,376.482c0-1.46-1.043-1.955-2.429-1.955h-2.181v6.748h1.041v-2.741h1.095l1.538,2.741h1.165l-1.662-2.88A1.864,1.864,0,0,0,821.829,376.482Zm-3.569-1.124h1.017c.987,0,1.525.3,1.525,1.124,0,.812-.538,1.221-1.525,1.221H818.26Z" transform="translate(-798.379 -374.403)" fill="#fff"/>
      <path id="Path_4874" data-name="Path 4874" d="M819.315,375.4h2.177v5.874h1.035V375.4H824.7v-.872h-5.39Z" transform="translate(-794.839 -374.403)" fill="#fff"/>
      <path id="Path_4875" data-name="Path 4875" d="M822.916,378.185h2.721v-.872h-2.721V375.4h3.218v-.872h-4.253v6.746h4.355V380.4h-3.32Z" transform="translate(-790.502 -374.403)" fill="#fff"/>
      <path id="Path_4876" data-name="Path 4876" d="M828.723,376.482c0-1.46-1.043-1.955-2.426-1.955h-2.184v6.748h1.044v-2.741h1.095l1.536,2.741h1.164l-1.659-2.88A1.862,1.862,0,0,0,828.723,376.482Zm-3.566-1.124h1.017c.984,0,1.522.3,1.522,1.124,0,.812-.538,1.221-1.522,1.221h-1.017Z" transform="translate(-786.731 -374.403)" fill="#fff"/>
      <path id="Path_4877" data-name="Path 4877" d="M834.035,377.668h-.947a5.531,5.531,0,0,1-.788,1.813,8.046,8.046,0,0,1-1.5-1.673c.686-.533,1.388-1.087,1.388-1.939a1.29,1.29,0,0,0-1.4-1.388,1.54,1.54,0,0,0-1.53,1.646,3.642,3.642,0,0,0,.481,1.541,2.4,2.4,0,0,0-1.24,1.92,1.889,1.889,0,0,0,2.055,1.888,2.66,2.66,0,0,0,1.848-.75,4.8,4.8,0,0,0,1.412.75l.269-.844a3.88,3.88,0,0,1-1.119-.616A7.773,7.773,0,0,0,834.035,377.668Zm-3.9-1.557c0-.533.256-.917.672-.917s.567.309.567.683c0,.543-.425.925-.949,1.3A2.593,2.593,0,0,1,830.135,376.111Zm-.654,3.416a1.616,1.616,0,0,1,.64-1.154,9.42,9.42,0,0,0,1.606,1.8,1.646,1.646,0,0,1-1.046.5A1.132,1.132,0,0,1,829.482,379.527Z" transform="translate(-779.314 -374.481)" fill="#fff"/>
      <path id="Path_4878" data-name="Path 4878" d="M833.44,381.274h1.035v-2.913h2.71v-.871h-2.71V375.4h3.2v-.872H833.44Z" transform="translate(-770.974 -374.403)" fill="#fff"/>
      <path id="Path_4879" data-name="Path 4879" d="M837.58,374.527l-2.227,6.748h1.057l.581-1.934h2.345l.573,1.934h1.1l-2.227-6.748Zm1.511,3.989h-1.853l.275-.917c.22-.729.428-1.482.635-2.246h.037c.2.764.417,1.517.638,2.246Z" transform="translate(-767.741 -374.403)" fill="#fff"/>
      <path id="Path_4880" data-name="Path 4880" d="M841.238,377.7l-.914-.4c-.592-.231-1.175-.444-1.175-1.03,0-.551.479-.88,1.186-.88a2.373,2.373,0,0,1,1.63.6l.535-.662a3.031,3.031,0,0,0-2.12-.847,2.035,2.035,0,0,0-2.281,1.848,1.935,1.935,0,0,0,1.444,1.764l.955.417c.667.282,1.159.465,1.159,1.124,0,.543-.473.936-1.329.936a2.842,2.842,0,0,1-1.926-.8l-.608.713a3.542,3.542,0,0,0,2.48.992c1.528,0,2.442-.885,2.442-1.966A1.9,1.9,0,0,0,841.238,377.7Z" transform="translate(-763.615 -374.481)" fill="#fff"/>
      <path id="Path_4881" data-name="Path 4881" d="M840,375.4h2.177v5.874h1.035V375.4h2.177v-.872H840Z" transform="translate(-759.89 -374.403)" fill="#fff"/>
      <path id="Path_4882" data-name="Path 4882" d="M843.6,378.185h2.721v-.872H843.6V375.4h3.217v-.872h-4.252v6.746h4.355V380.4H843.6Z" transform="translate(-755.553 -374.403)" fill="#fff"/>
      <path id="Path_4883" data-name="Path 4883" d="M849.637,381.275l-1.662-2.88a1.864,1.864,0,0,0,1.434-1.912c0-1.46-1.044-1.955-2.429-1.955H844.8v6.748h1.043v-2.741h1.094l1.536,2.741Zm-3.795-5.917h1.014c.987,0,1.525.3,1.525,1.124,0,.812-.538,1.221-1.525,1.221h-1.014Z" transform="translate(-751.781 -374.403)" fill="#fff"/>
    </g>
  </g>
</svg>
