<svg xmlns="http://www.w3.org/2000/svg" width="85.188" height="77.172" viewBox="0 0 85.188 77.172">
  <g id="mach" transform="translate(-1462.617 -3926.229)">
    <path id="Path_1713" data-name="Path 1713" d="M5908.647,1976.772c-18.266,0-18.408-18.653-41.22-17.959s4.083-26.379,9.816-42.671,9.332-27.16,31.4,0,28.653,28.134,31.839,42.671S5926.913,1976.772,5908.647,1976.772Z" transform="translate(-4393.073 2026.628)" fill="#ffaa5d" opacity="0.2"/>
    <g id="mach-2" data-name="mach" transform="translate(310.848 4866.917)">
      <path id="Path_9895" data-name="Path 9895" d="M1223.661-869.355c.011-5.217,0-10.433.021-15.65,0-.558-.149-.69-.677-.658-.77.047-1.545.017-2.318.01-.527,0-1.232.177-1.535-.09-.36-.318-.082-1.041-.122-1.586a.591.591,0,0,1,0-.145c.075-.429-.131-.508-.522-.5-1.932.019-3.865-.018-5.8.025-.572.013-.654-.171-.652-.684.02-4.782,0-9.564.024-14.346a1.166,1.166,0,0,0-.535-1.072q-1.73-1.249-3.415-2.559c-.208-.162-.659-.2-.492-.668.156-.431.152-.922.8-1.049.677-.133,1.312-.461,1.983-.643.409-.111.5-.31.5-.709-.021-1.956-.006-3.912-.012-5.869,0-.746.244-1.684-.114-2.185s-1.313-.6-2.031-.785a1.317,1.317,0,0,1-1.112-1.1,18.376,18.376,0,0,0-.811-2.231c-.283-.761-1.038-1.436-.955-2.2a6.659,6.659,0,0,1,1.065-2.26.643.643,0,0,0-.152-.921c-1.3-1.263-2.567-2.556-3.852-3.833-.615-.612-1.16-1.552-1.884-1.724s-1.528.65-2.31,1.01a.4.4,0,0,0-.066.029.765.765,0,0,1-.928-.008,21.135,21.135,0,0,0-2.4-1.148c-.763-.336-1.787-.291-2.284-.915a6.847,6.847,0,0,1-.849-2.351.6.6,0,0,0-.7-.505c-1.98.024-3.961.008-5.941.013-.723,0-1.631-.238-2.116.108s-.593,1.27-.758,1.967a1.423,1.423,0,0,1-1.2,1.207,18.042,18.042,0,0,0-2.164.786c-.76.286-1.438,1.035-2.2.954a6.549,6.549,0,0,1-2.259-1.064.639.639,0,0,0-.921.15c-1.246,1.281-2.522,2.533-3.782,3.8-.629.632-1.594,1.191-1.774,1.936s.65,1.577,1.041,2.369a.9.9,0,0,1-.008.933,25.052,25.052,0,0,0-1.09,2.271c-.329.794-.374,1.837-.929,2.368a6.482,6.482,0,0,1-2.465.919.535.535,0,0,0-.439.608q.028,3.876,0,7.752a.531.531,0,0,0,.442.606c.734.227,1.451.517,2.193.711.576.151.477.653.646,1.017s-.2.44-.384.579c-1.169.893-2.339,1.784-3.535,2.641a1.158,1.158,0,0,0-.522,1.077c.018,4.782,0,9.564.025,14.346,0,.542-.125.682-.668.667-1.521-.042-3.043-.017-4.564-.013-.552,0-1.285-.19-1.609.087-.384.329-.079,1.085-.129,1.654a.292.292,0,0,0,0,.072c.071.416-.11.522-.514.513-1.183-.026-2.367.017-3.55-.021-.487-.016-.589.139-.586.6.021,2.874.01,5.748.01,8.622,0,2.922.012,5.845-.012,8.767,0,.485.138.59.6.586,2.318-.023,4.637,0,6.955-.018a1.12,1.12,0,0,1,.926.4,5.7,5.7,0,0,0,8.563.009,1.19,1.19,0,0,1,1-.412c2.318.014,4.637,0,6.955.015.387,0,.535-.068.534-.5q-.023-8.767,0-17.534c0-.484-.168-.548-.578-.532-.772.029-1.546.025-2.318,0-.57-.016-1.325.255-1.657-.117-.28-.314-.13-1.057-.083-1.6s-.187-.61-.656-.6c-1.932.025-3.864,0-5.8.019-.4,0-.529-.084-.528-.508q.023-6.774.007-13.549a.651.651,0,0,1,.256-.621c.841-.606,1.666-1.234,2.49-1.863.236-.18.335-.189.532.108a2.12,2.12,0,0,1,.063,2.741c-.245.318-.354.737-.569,1.081s-.121.539.142.8q2.732,2.7,5.43,5.431a.562.562,0,0,0,.8.119c.65-.361,1.334-.66,1.986-1.016a.723.723,0,0,1,.8.013,24.691,24.691,0,0,0,2.47,1.177c.764.333,1.787.29,2.283.919a6.921,6.921,0,0,1,.846,2.353c.115.4.3.505.708.5,1.907-.024,3.816-.007,5.724-.012.794,0,1.8.262,2.324-.12s.6-1.41.824-2.17a1.181,1.181,0,0,1,.933-.926c.809-.212,1.581-.563,2.37-.851.763-.278,1.431-1.044,2.2-.956a6.783,6.783,0,0,1,2.261,1.067.648.648,0,0,0,.922-.157c1.572-1.6,3.168-3.184,4.756-4.773.949-.949.986-.969.326-2.171-.537-.977-.985-1.872-.157-2.943.3-.382.409-.386.738-.125.718.569,1.449,1.123,2.2,1.65a.894.894,0,0,1,.418.835q-.02,6.7.005,13.4c0,.519-.189.57-.619.566-1.956-.019-3.913,0-5.869-.015-.359,0-.526.067-.491.469.037.432-.021.871.017,1.3s-.079.582-.545.567c-1.158-.038-2.319.014-3.477-.025-.5-.017-.639.105-.637.623q.031,8.658,0,17.317c0,.5.1.644.623.638,2.318-.031,4.637-.007,6.955-.02a1.05,1.05,0,0,1,.871.366,5.694,5.694,0,0,0,8.609.028,1.119,1.119,0,0,1,.932-.393c1.763.014,3.526.01,5.289,0,.72,0,1.7.255,2.094-.11C1223.98-867.629,1223.659-868.616,1223.661-869.355Zm-51.593-2.371c.468,0,.6-.112.6-.59-.022-3.453,0-6.906-.025-10.359,0-.535.115-.683.664-.672,1.668.034,1.668.007,1.668,1.682,0,3.864-.012,7.727.014,11.591,0,.537-.117.681-.665.671-1.979-.038-3.96,0-5.94-.024a.8.8,0,0,0-.8.439,3.4,3.4,0,0,1-6.084,0,.8.8,0,0,0-.8-.443c-2,.019-4.009-.007-6.013.021-.472.006-.595-.118-.593-.592q.029-6.375,0-12.75c0-.469.114-.6.59-.6,1.74.011,1.74-.008,1.74,1.753,0,3.091.011,6.182-.011,9.273,0,.472.118.6.592.593,2.511-.025,5.023-.011,7.534-.011S1169.556-871.75,1172.068-871.726Zm-2.244-13.934c.41,0,.519.11.517.518q-.024,5.288,0,10.577c0,.41-.11.523-.518.518-1.787-.022-3.574-.009-5.361-.009-1.739,0-3.478-.013-5.216.009-.411.005-.519-.11-.517-.518q.024-5.289,0-10.577c0-.41.11-.519.518-.517Q1164.535-885.636,1169.824-885.66ZM1206-909.873c-.471.482-.465,1.422-.69,2.155a16.623,16.623,0,0,1-1.925,4.1.889.889,0,0,0-.069,1.036c.343.651,1.019,1.338.864,1.987-.144.6-.918,1.063-1.424,1.577-.609.62-1.233,1.226-1.839,1.849a.483.483,0,0,1-.684.114,5.124,5.124,0,0,0-2.13-.963c-.675.011-1.331.695-2.011,1.054a17.343,17.343,0,0,1-4.4,1.575.737.737,0,0,0-.625.577c-.189.595-.416,1.179-.575,1.781-.095.358-.28.435-.617.431q-2.137-.024-4.275,0c-.359,0-.556-.067-.666-.463a4.831,4.831,0,0,0-.8-2.124c-.466-.455-1.385-.429-2.09-.659a18.01,18.01,0,0,1-4.286-2.032.713.713,0,0,0-.845-.04c-.546.3-1.128.539-1.669.849a.52.52,0,0,1-.744-.125q-1.518-1.554-3.073-3.073a.529.529,0,0,1-.108-.748,5.06,5.06,0,0,0,.942-2.064c-.008-.652-.675-1.286-1.019-1.946a17.6,17.6,0,0,1-1.59-4.391.828.828,0,0,0-.649-.732c-.71-.211-1.688-.294-2.021-.789-.361-.537-.12-1.483-.129-2.25-.009-.821.013-1.643-.009-2.463-.009-.348.088-.542.451-.594a3.06,3.06,0,0,0,2.83-2.886,11.719,11.719,0,0,1,1.947-4.235.846.846,0,0,0,.074-.971c-.339-.678-1.06-1.375-.874-2.053.173-.63.968-1.091,1.493-1.622.577-.584,1.171-1.152,1.736-1.747a.52.52,0,0,1,.744-.127c.672.369,1.381.962,2.061.945s1.332-.685,2.012-1.038a17.711,17.711,0,0,1,4.395-1.578.789.789,0,0,0,.67-.62c.228-.707.295-1.64.786-2.039.531-.432,1.478-.109,2.244-.128.8-.02,1.595.016,2.39-.013.4-.015.641.069.7.5a2.955,2.955,0,0,0,2.784,2.755,11.914,11.914,0,0,1,4.367,2,.768.768,0,0,0,.907.049c.652-.352,1.36-.95,1.994-.892.692.063,1.125.968,1.682,1.494.6.564,1.165,1.157,1.743,1.74.116.117.27.21.291.438a8.318,8.318,0,0,1-.628,1.252,1.741,1.741,0,0,0,.057,2.246,15.9,15.9,0,0,1,2.111,5.333.67.67,0,0,0,.52.587l.068.022c.721.259,1.742.253,2.089.825s.094,1.5.1,2.271c0,.8-.01,1.594.006,2.391.007.324-.045.526-.41.635A5.2,5.2,0,0,0,1206-909.873Zm-.9,24.733c0-.405.1-.526.516-.521,1.787.023,3.574.01,5.361.01,1.739,0,3.478.013,5.216-.009.406-.005.522.1.52.516q-.025,5.288,0,10.577c0,.406-.1.522-.515.52q-5.288-.024-10.577,0c-.406,0-.522-.1-.521-.515Q1205.131-879.851,1205.106-885.14ZM1220.7-869.4c-1.979-.037-3.96,0-5.94-.024a.8.8,0,0,0-.8.441,3.4,3.4,0,0,1-6.084,0,.8.8,0,0,0-.8-.441c-2,.019-4.009-.007-6.013.021-.475.007-.593-.123-.591-.594q.028-6.375,0-12.75c0-.472.118-.6.592-.594,1.738.011,1.738-.008,1.738,1.754,0,3.091.011,6.182-.011,9.273,0,.475.122.6.593.591,2.511-.024,5.023-.011,7.534-.011s5.023-.013,7.534.011c.471,0,.6-.117.593-.591-.021-3.453,0-6.906-.025-10.359,0-.538.12-.681.666-.67,1.666.034,1.667.007,1.667,1.683,0,3.864-.012,7.728.014,11.591C1221.365-869.533,1221.24-869.393,1220.7-869.4Z" transform="translate(0 0)" fill="#1a1818"/>
      <path id="Path_9896" data-name="Path 9896" d="M1297.085-686.567c-.312-.314-.466-.328-.787,0-3.078,3.1-6.175,6.188-9.389,9.4,1.218,0,2.274.034,3.327-.014.544-.025.672.125.669.667-.026,4.2,0,8.4-.028,12.607,0,.541.124.673.667.668q5.144-.042,10.288,0c.542,0,.671-.126.667-.668-.025-4.2,0-8.4-.028-12.607,0-.542.125-.692.668-.667,1.066.048,2.135.014,3.332.014C1303.259-680.381,1300.163-683.465,1297.085-686.567Zm3.076,7.674c.008,4.223-.007,8.447.02,12.67,0,.553-.144.67-.674.661-1.906-.034-3.813-.03-5.719,0-.478.007-.591-.127-.589-.595.019-4.247.007-8.495.017-12.742,0-.391,0-.714-.713-.561,1.411-1.4,2.676-2.652,3.928-3.915.207-.209.332-.184.524.01,1.25,1.261,2.51,2.514,3.906,3.909C1300.136-679.622,1300.161-679.274,1300.162-678.892Z" transform="translate(-108.964 -201.524)" fill="#1a1818"/>
      <path id="Path_9897" data-name="Path 9897" d="M1279.54-888.456a13.885,13.885,0,0,0-13.974,13.925,13.9,13.9,0,0,0,13.853,13.9,13.9,13.9,0,0,0,13.973-13.853A13.89,13.89,0,0,0,1279.54-888.456Zm-.111,25.507a11.666,11.666,0,0,1-11.544-11.59,11.659,11.659,0,0,1,11.607-11.6,11.662,11.662,0,0,1,11.581,11.624A11.667,11.667,0,0,1,1279.429-862.949Z" transform="translate(-91.755 -38.934)" fill="#1a1818"/>
      <path id="Path_9898" data-name="Path 9898" d="M1267.373-885.02a1.562,1.562,0,0,0,.233.166c.14-.133.262-.247.382-.363,1.285-1.251,1.272-1.239.01-2.516-.331-.335-.529-.366-.834,0-.365.441-1.182.99-1.093,1.23C1266.284-885.925,1266.91-885.5,1267.373-885.02Z" transform="translate(-92.157 -39.305)" fill="#1a1818"/>
      <path id="Path_9899" data-name="Path 9899" d="M1393.811-886.574c-.539.495-.59.789-.018,1.31,1.076.978,1.038,1.011,2.066,0,.2-.2.448-.357.855-.676a7.81,7.81,0,0,1-.843-.61C1394.834-887.571,1394.868-887.545,1393.811-886.574Z" transform="translate(-194.816 -39.859)" fill="#1a1818"/>
      <path id="Path_9900" data-name="Path 9900" d="M1268.052-762.951a7.992,7.992,0,0,1-.623.873c-1.015,1.035-.987,1-.017,2.06.5.544.791.576,1.306.011.979-1.076,1.011-1.038,0-2.064A10.065,10.065,0,0,1,1268.052-762.951Z" transform="translate(-92.651 -140.13)" fill="#1a1818"/>
      <path id="Path_9901" data-name="Path 9901" d="M1394.61-760.432c-1.09,1.166-1.114,1.137,0,2.267a7.726,7.726,0,0,1,.565.778,5.914,5.914,0,0,1,.517-.771c1.12-1.136,1.1-1.109.015-2.261C1395.286-760.868,1395.056-760.908,1394.61-760.432Z" transform="translate(-195.138 -141.886)" fill="#1a1818"/>
      <path id="Path_9902" data-name="Path 9902" d="M1332.482-910.081c1.247,0,1.247,0,1.247-1.217,0-1.1,0-1.1-1.072-1.1-1.247,0-1.247,0-1.247,1.217C1331.41-910.081,1331.41-910.081,1332.482-910.081Z" transform="translate(-144.846 -19.628)" fill="#1a1818"/>
      <path id="Path_9903" data-name="Path 9903" d="M1242.76-822.612c-1.14,0-1.14,0-1.14,1.107,0,1.212,0,1.212,1.179,1.212,1.139,0,1.139,0,1.139-1.107C1243.94-822.612,1243.94-822.612,1242.76-822.612Z" transform="translate(-72.448 -92.025)" fill="#1a1818"/>
      <path id="Path_9904" data-name="Path 9904" d="M1422.3-822.612c-1.1,0-1.1,0-1.1,1.072,0,1.247,0,1.247,1.217,1.247,1.1,0,1.1,0,1.1-1.072C1423.518-822.612,1423.518-822.612,1422.3-822.612Z" transform="translate(-217.243 -92.025)" fill="#1a1818"/>
      <path id="Path_9905" data-name="Path 9905" d="M1332.58-732.823c-1.17,0-1.17,0-1.17,1.149,0,1.17,0,1.17,1.149,1.17,1.17,0,1.17,0,1.17-1.149C1333.729-732.823,1333.729-732.823,1332.58-732.823Z" transform="translate(-144.846 -164.422)" fill="#1a1818"/>
      <path id="Path_9906" data-name="Path 9906" d="M1199.622-659.191c.008.381.109.487.485.478.989-.025,1.979-.009,2.969-.009h1.738c1.8,0,1.786,0,1.788-1.777,0-.452-.116-.562-.56-.554-1.544.029-3.09.011-4.635.011C1199.569-661.041,1199.582-661.041,1199.622-659.191Z" transform="translate(-38.576 -222.291)" fill="#1a1818"/>
      <path id="Path_9907" data-name="Path 9907" d="M1206.1-637.089c-1.569.018-3.138.008-4.707.008-1.837,0-1.823,0-1.781,1.854.009.39.124.481.491.472.989-.023,1.979-.008,2.969-.008h1.738c1.837,0,1.823,0,1.781-1.854C1206.587-637.007,1206.47-637.093,1206.1-637.089Z" transform="translate(-38.571 -241.613)" fill="#1a1818"/>
      <path id="Path_9908" data-name="Path 9908" d="M1439.54-658.694c.989-.019,1.979-.007,2.969-.007h1.738c1.836,0,1.82,0,1.774-1.863-.01-.408-.152-.465-.5-.462-1.569.015-3.138.006-4.708.006-1.836,0-1.819,0-1.773,1.864C1439.049-658.748,1439.19-658.687,1439.54-658.694Z" transform="translate(-231.617 -222.312)" fill="#1a1818"/>
      <path id="Path_9909" data-name="Path 9909" d="M1445.6-637.085c-.989.02-1.979.007-2.969.007h-1.811c-1.782,0-1.766,0-1.743,1.821.006.424.137.512.531.507,1.545-.021,3.09-.009,4.635-.009,1.9,0,1.892,0,1.814-1.894C1446.039-637.013,1445.93-637.092,1445.6-637.085Z" transform="translate(-231.652 -241.615)" fill="#1a1818"/>
      <path id="Path_9910" data-name="Path 9910" d="M1308.507-852.539a6.933,6.933,0,0,0-7.024,6.924,6.939,6.939,0,0,0,6.889,6.989,6.935,6.935,0,0,0,7.024-6.925A6.934,6.934,0,0,0,1308.507-852.539Zm-.074,11.593a4.707,4.707,0,0,1-4.631-4.679,4.7,4.7,0,0,1,4.642-4.594,4.7,4.7,0,0,1,4.631,4.677A4.706,4.706,0,0,1,1308.434-840.946Z" transform="translate(-120.715 -67.894)" fill="#1a1818"/>
    </g>
  </g>
</svg>
