<svg xmlns="http://www.w3.org/2000/svg" width="132.858" height="182.875" viewBox="0 0 132.858 182.875">
  <g id="mobile" transform="translate(2712.667 551.21)">
    <g id="Group_3645" data-name="Group 3645" transform="translate(-2712.667 -551.21)">
      <path id="Path_9957" data-name="Path 9957" d="M-2607.663-428.208q-.036,11.091.024,22.168c.01,1.136-.33,1.351-1.394,1.351q-47.5-.043-95,0c-1.208,0-1.46-.368-1.456-1.5q.036-56.25-.019-112.5c0-1.561.7-1.523,1.8-1.518q31.963.021,63.93.014a6.852,6.852,0,0,0,2.635-.31,3.567,3.567,0,0,0,2.291-3.656,3.317,3.317,0,0,0-2.711-3.127,11.607,11.607,0,0,0-2.477-.2c-21.132-.01-42.264-.033-63.391.038-1.814,0-2.134-.549-2.072-2.2.315-8.382,6.377-14.406,14.759-14.416q34.1-.036,68.212,0c8.75,0,14.855,6.191,14.86,14.965,0,6.287-.02,12.573,0,18.86h7.17c.043-6.707.043-13.423-.038-20.13a21.084,21.084,0,0,0-13.724-19.433c-1.466-.549-2.988-.945-4.487-1.413h-75.721a2.25,2.25,0,0,1-.578.325,21.413,21.413,0,0,0-17.619,21.332q-.014,69.811,0,139.632a21.392,21.392,0,0,0,21.59,21.581q34.282.007,68.57,0a28.839,28.839,0,0,0,4.435-.329c9.413-1.442,17.438-10.4,17.509-19.924.1-13.208.058-26.411.058-39.619Zm.029,32.6c-.215,2.664.243,5.361-.253,8.01-1.375,7.408-6.95,12.091-14.483,12.11-13.633.033-27.266.01-40.9.01-9.227,0-18.454.033-27.676-.01a14.2,14.2,0,0,1-14.067-10.926c-.816-3.332-.363-6.754-.458-10.134-.019-.6.224-.878.831-.859.472.014.95,0,1.427,0h46.608c15.714,0,31.433.024,47.147-.038C-2607.969-397.458-2607.52-397.1-2607.634-395.611Z" transform="translate(2712.667 551.21)" fill="#0d75c3"/>
      <path id="Path_9958" data-name="Path 9958" d="M-2527.265-494.176a3.659,3.659,0,0,0,3.676-3.576,3.524,3.524,0,0,0-3.551-3.647,3.626,3.626,0,0,0-3.634,3.611A3.785,3.785,0,0,0-2527.265-494.176Z" transform="translate(2617.6 525.176)" fill="#0d75c3"/>
      <path id="Path_9959" data-name="Path 9959" d="M-2599.748-213.716c-3.683-.047-7.368-.053-11.052,0a3.672,3.672,0,0,0-3.684,3.592,3.619,3.619,0,0,0,3.673,3.567c1.84.062,3.683.013,5.525.015s3.686.047,5.525-.01a3.538,3.538,0,0,0,3.739-3.646A3.63,3.63,0,0,0-2599.748-213.716Z" transform="translate(2661.351 374.836)" fill="#0d75c3"/>
    </g>
    <g id="Group_3646" data-name="Group 3646" transform="translate(-2671.875 -505.045)">
      <path id="Path_9960" data-name="Path 9960" d="M-2535.15-442.209a11.959,11.959,0,0,0-3.651-8.8,11.877,11.877,0,0,0-7.728-3.437h-2.6q-.215.007-.4,0h-13.943v-.014q-25.333-.072-50.675-.024c-6.3,0-10.936,3.275-12.54,8.807a14.5,14.5,0,0,0-.521,4.053q.007,21.158.01,42.321c0,7.695,5.165,12.84,12.86,12.874,1.843.01,3.69.048,5.532-.014.95-.033,1.384.172,1.336,1.246-.052,1.251-.086,2.5-.072,3.757h.019v.85c.014.43.038.854.062,1.284a1.807,1.807,0,0,1-.062.692v7.742h4.707l10.544-7.232h0c4.043-2.816,7.647-5.318,11.237-7.838a2.987,2.987,0,0,1,1.843-.492c5.561.014,11.117.024,16.678,0l3.146-.014a4.505,4.505,0,0,1,.458.014h11.614a12.1,12.1,0,0,0,12.144-12.387Q-2535.126-420.518-2535.15-442.209Zm-7.193,42.77c-.033,3.9-1.79,5.685-5.652,5.69q-15.981.021-31.963-.014a7.354,7.354,0,0,0-4.482,1.37c-4.8,3.4-9.647,6.726-14.482,10.077-.325.224-.649.449-1.275.874,0-2.687,0-5.007,0-7.327,0-3.742-1.251-4.969-5.055-4.974-3.155,0-6.311.024-9.461-.01-3.394-.038-5.165-1.79-5.17-5.2q-.029-21.516,0-43.028c.01-3.408,1.761-5.179,5.184-5.184q33.567-.029,67.138,0c3.518,0,5.212,1.933,5.212,5.762q.015,19.01,0,38.03C-2542.343-402.059-2542.333-400.751-2542.343-399.439Z" transform="translate(2627.21 454.497)" fill="#4ec9ff"/>
      <path id="Path_9961" data-name="Path 9961" d="M-2583.776-412.292c7.738.019,15.471,0,23.208,0,7.857,0,15.709.014,23.566-.014a3.444,3.444,0,0,0,3.651-3.17,3.571,3.571,0,0,0-2.683-3.89,7.846,7.846,0,0,0-1.775-.1q-22.762-.007-45.524,0c-.3,0-.6-.01-.893,0a3.593,3.593,0,0,0-3.518,4.358C-2587.433-413.366-2585.982-412.3-2583.776-412.292Z" transform="translate(2606.618 436.19)" fill="#4ec9ff"/>
      <path id="Path_9962" data-name="Path 9962" d="M-2537.409-390.459c-7.676-.019-15.351,0-23.032,0-7.795,0-15.59-.024-23.385.01-2.754.01-4.334,1.79-3.924,4.282.291,1.771,1.862,2.9,4.105,2.9q15.624.014,31.242,0c5.06,0,10.12.019,15.175-.01a3.635,3.635,0,0,0,3.919-3.7C-2533.361-389.089-2534.913-390.449-2537.409-390.459Z" transform="translate(2606.62 421.035)" fill="#4ec9ff"/>
      <path id="Path_9963" data-name="Path 9963" d="M-2557.768-361.712c-1.542-.052-3.088-.01-4.635-.01q-10.511,0-21.027,0c-2.711.01-4.32,1.389-4.329,3.637-.01,2.21,1.542,3.642,4.11,3.666,4.277.033,8.554.01,12.831.01,4.334,0,8.673.033,13.007-.014,2.411-.029,3.991-1.523,4.005-3.618S-2555.371-361.626-2557.768-361.712Z" transform="translate(2606.591 406.016)" fill="#4ec9ff"/>
    </g>
  </g>
</svg>
