<svg xmlns="http://www.w3.org/2000/svg" width="172.442" height="191.748" viewBox="0 0 172.442 191.748">
  <g id="Group_3656" data-name="Group 3656" transform="translate(2732.651 105.079)">
    <g id="Group_3653" data-name="Group 3653" transform="translate(-2732.651 5.439)">
      <path id="Path_9967" data-name="Path 9967" d="M-2653.572,148.239A65.748,65.748,0,0,0-2640.4,148c-2.177,2.309-4.13,4.378-6.077,6.452-.493.53-.741.047-1.023-.235Q-2650.545,151.233-2653.572,148.239Zm-1.713,55.932c-22.455,0-44.9-.033-67.359.052-1.919,0-2.29-.54-1.99-2.253,3.3-18.921,13.013-32.661,31.634-39.189,4.388-1.539,8.836-2.9,13.224-4.43.868-.305,1.206-.188,1.5.629,5.106,14.36,12.863,27.26,21.629,39.625,1.206,1.7,2.215,3.548,3.458,5.566Zm8.865-3.36c-4.017-7.25-9.048-13.44-13.145-20.254a.987.987,0,0,1,.16-1.436q6-6.3,11.948-12.642c.554-.591.906-.605,1.487-.019,4.167,4.214,8.339,8.419,12.572,12.562.8.784.371,1.29-.038,1.905q-5.082,7.708-10.174,15.411C-2644.5,197.686-2645.331,199.07-2646.42,200.811Zm76.763,3.4c-4.984-.117-9.977-.042-14.965-.042h-55.012c2.018-3.144,3.693-6.054,5.65-8.766a152.025,152.025,0,0,0,19.372-35.993c.389-1.046.671-1.45,1.924-.995,5.936,2.168,12.154,3.6,17.879,6.284,13.642,6.373,21.727,17.377,25.571,31.709.531,1.976.741,4.031,1.14,6.04C-2567.836,203.768-2568.145,204.246-2569.656,204.214Zm9.441,2.37a55.532,55.532,0,0,0-5.518-22.656c-6.232-12.82-15.6-22.4-29.156-27.42-5.754-2.13-11.615-3.97-17.443-5.88a3.287,3.287,0,0,1-2.112-1.844c-1.591-3.294-3.215-6.57-4.909-9.812a3.937,3.937,0,0,1-.3-.7l0,0c-.141-.169-4.078-4.946-5.35-6.481a30.017,30.017,0,0,1-13.36,7.949,29.088,29.088,0,0,1-30.456-9.306l-9.169.286a32.87,32.87,0,0,0,4.439,5.664,1.615,1.615,0,0,1,.3,2.243q-2.661,5.117-5.147,10.319a3.025,3.025,0,0,1-2.018,1.675c-4.247,1.375-8.452,2.877-12.722,4.172a52.756,52.756,0,0,0-25.087,15.772,57.071,57.071,0,0,0-14.158,33.22c-.258,2.858-1.056,6.124,2.5,7.879h167.028C-2560.8,210.581-2560.135,208.892-2560.215,206.583Zm-92.714-45.271c-3.627,3.773-7.208,7.593-10.938,11.535A147.634,147.634,0,0,1-2672,154.213a1.767,1.767,0,0,1,.169-1.558c1.131-2.276,2.3-4.533,3.388-6.828.408-.859.69-1.164,1.511-.333q6.962,7.06,14.013,14.027C-2652.192,160.229-2652.271,160.632-2652.929,161.313Zm32.173-7.152a139.62,139.62,0,0,1-8.015,18.456l-12.576-12.562q7.743-8.186,15.767-16.673c1.615,3.233,3.154,6.316,4.707,9.395A1.582,1.582,0,0,1-2620.755,154.161Z" transform="translate(2732.651 -130.43)" fill="#0d75c3"/>
      <path id="Path_9968" data-name="Path 9968" d="M-2428.478,233.887c-1.874-1.761-4.03-1.873-5.631-.282-1.545,1.537-1.5,3.627.158,5.5,1.032,1.165,2.142,2.262,3.163,3.437a37.526,37.526,0,0,1,4.613,7.65,3.458,3.458,0,0,0,4.034,1.977c1.794-.377,2.737-1.6,3.1-3.607a14.031,14.031,0,0,0-.594-2.072A38.059,38.059,0,0,0-2428.478,233.887Z" transform="translate(2574.802 -184.593)" fill="#0d75c3"/>
      <path id="Path_9969" data-name="Path 9969" d="M-2457.892,215.2a3.757,3.757,0,0,0-4.09,3.463,3.765,3.765,0,0,0,3.377,3.99,3.756,3.756,0,0,0,4.089-3.463A3.765,3.765,0,0,0-2457.892,215.2Z" transform="translate(2589.004 -175.413)" fill="#0d75c3"/>
    </g>
    <g id="Group_3655" data-name="Group 3655" transform="translate(-2703.791 -105.078)">
      <g id="Group_3654" data-name="Group 3654" transform="translate(0)">
        <path id="Path_9970" data-name="Path 9970" d="M-2642.977-6.549l-9.99-.007c-.075.3.671.169,0,0a3.9,3.9,0,0,1-3.168-3.66c-.075-.737.056-1.5-.042-2.238-.15-1.239.3-1.746,1.544-1.436l.314-.07,8.522-2.013c-.559-3.67-.981-7.353-1.356-11.047-.488-4.833-.8-9.69-1.155-14.538a3.2,3.2,0,0,1,0-1.248l-.019-12.867a26.631,26.631,0,0,1,3.332-10.643c5.777-10.3,14.655-15.65,26.4-16.115,5.974-.235,11.943-.216,17.691,1.98a30.947,30.947,0,0,1,19.658,30.531c-.038.521-.066.817-.408.906l-.132,8.057a1.578,1.578,0,0,1,.174,1.07c-.084,1.107-.164,2.229-.239,3.337v.061c-.7,9.812-1.488,19.644-4.021,29.156a33.586,33.586,0,0,1-5.308,11.413l5.918,4.514a40.366,40.366,0,0,0,4.331-7.208,40.352,40.352,0,0,0,3.721-13.022c.216-1.905.9-2.543,2.75-2.318a32.234,32.234,0,0,0,3.928.028c6.95-.028,11.732-4.787,11.741-11.727.019-7.551.047-15.1,0-22.652-.1-16.781-6.134-31.07-18.715-42.178-15.744-13.9-34.074-17.9-54.121-11.873-23.8,7.161-39.447,28.87-39.5,53.736q-.035,11.706.01,23.4a10.782,10.782,0,0,0,6.2,10.08,1.946,1.946,0,0,1,1.3,2.065c-.089,2.548-.216,5.12.971,7.513,2.337,4.693,6.185,6.842,11.347,6.584a5.325,5.325,0,0,1,.671,0l10.315.033,1.511,0c1.028,0,2.051.014,3.074,0a.014.014,0,0,1,.019,0c.131,0,.253,0,.38,0,.01,0,.014,0,.019,0,.357,0,.708-.009,1.061-.019a.021.021,0,0,1,.023,0h.014c.127,0,.258,0,.385-.009a1.092,1.092,0,0,1,.258.019h.042c.516.1.676.5.877.915,2.2,4.482,5.814,6.626,10.784,6.584,2.3-.023,4.617.019,6.926-.009a11.2,11.2,0,0,0,11.216-11.117,11.218,11.218,0,0,0-11.192-11.347c-2.436-.033-4.871-.019-7.3,0a10.9,10.9,0,0,0-10.352,6.377,1.716,1.716,0,0,1-1.094,1.065h-.009a2.362,2.362,0,0,1-.695.07q-1.7-.049-3.393-.052h0c-1.553-.009-3.1.009-4.655.042m-12.99-14.557c-1.3-.108-2.618.014-3.928-.033-2.764-.1-4.242-1.558-4.3-4.336-.057-2.989-.01-5.983-.01-8.977s.047-5.988-.028-8.982c-.028-1.089.324-1.431,1.356-1.309a15.568,15.568,0,0,0,1.872.014c4.336,0,4.426,0,4.594,4.256.244,6.044.77,12.056,1.534,18.053C-2654.2-21.413-2654.276-20.883-2655.407-20.976Zm89.134-13.2c0,2.806.014,5.612,0,8.419-.019,3.238-1.464,4.74-4.641,4.735-1.544,0-3.594.676-4.477-.291-.69-.756-.042-2.82.164-4.284.831-5.871.948-11.793,1.365-17.7.071-1.023.3-1.4,1.366-1.333a36.535,36.535,0,0,0,4.862,0c1.244-.1,1.417.4,1.389,1.478C-2566.321-40.16-2566.274-37.166-2566.274-34.172Zm-1.187-19.015a28.636,28.636,0,0,0-4.486,0c-1.018.061-1.192-.333-1.248-1.258-1.089-18.081-13.388-32.52-31.127-35.514-10.24-1.727-20.662-1.755-30.273,3.322-12.778,6.748-19.733,17.433-20.868,31.845-.1,1.286-.366,1.736-1.68,1.6a17.438,17.438,0,0,0-3.735,0c-1.567.183-2.022-.291-1.793-1.886,2.478-17.335,11.432-30.09,27-38.086a46.18,46.18,0,0,1,21.432-4.979c15.04.727,26.383,5.871,35.519,15.636a47.859,47.859,0,0,1,12.708,27.64C-2565.87-53.647-2566.011-53.046-2567.461-53.187Z" transform="translate(2671.152 105.078)" fill="#4ec9ff"/>
        <path id="Path_9971" data-name="Path 9971" d="M-2608.53,105.325a26.517,26.517,0,0,1,9.6,0,3.2,3.2,0,0,1,2.609,3.412,3.426,3.426,0,0,1-2.572,3.472c-1.591.5-3.21.16-4.81.305-1.6-.15-3.215.2-4.81-.3a3.444,3.444,0,0,1-2.6-3.454A3.2,3.2,0,0,1-2608.53,105.325Z" transform="translate(2639.287 -6.355)" fill="#4ec9ff"/>
      </g>
    </g>
    <path id="Path_9972" data-name="Path 9972" d="M-2587.168-16.161a9.088,9.088,0,0,0-8.653-2.445c-7.532,1.375-10.821,2.563-16.6,7.18l2.389,7.658a21.7,21.7,0,0,1,2.224-1.952,26.569,26.569,0,0,1,13.295-5.411,3.161,3.161,0,0,1,2.745,1.122,67.552,67.552,0,0,0,25.993,14.533,76.233,76.233,0,0,0,10.361,2.229l.638-7.536C-2567.031-2.655-2577.989-7.5-2587.168-16.161Z" transform="translate(-63.808 -45.773)" fill="#0d75c3"/>
  </g>
</svg>
