<svg xmlns="http://www.w3.org/2000/svg" width="183.498" height="191.605" viewBox="0 0 183.498 191.605">
  <g id="sw" transform="translate(692.171 383.928)">
    <g id="Path_9953" data-name="Path 9953" fill="#0d75c3">
      <path d="M -584.77783203125 -193.8232421875 L -615.9550170898438 -193.8232421875 C -618.7489624023438 -194.2297973632812 -620.9400634765625 -195.2595825195312 -622.6513671875 -196.9696044921875 C -624.2708129882812 -198.5878295898438 -625.4596557617188 -200.8650360107422 -626.1849365234375 -203.7379913330078 C -627.2213745117188 -207.8432312011719 -628.1023559570312 -211.9205627441406 -628.8999633789062 -215.7151794433594 C -629.3265380859375 -217.7412109375 -630.3980102539062 -219.0828399658203 -632.272216796875 -219.9378051757812 C -636.1320190429688 -221.6974334716797 -639.948486328125 -223.9251098632812 -643.6160888671875 -226.5591278076172 C -644.5967407226562 -227.2628784179688 -645.5805053710938 -227.6048278808594 -646.6240234375 -227.6048278808594 C -647.2044677734375 -227.6048278808594 -647.7987060546875 -227.5004425048828 -648.4405517578125 -227.2857055664062 C -651.2796630859375 -226.3348541259766 -654.1990356445312 -225.4378356933594 -657.022216796875 -224.5703277587891 C -658.052001953125 -224.25390625 -659.1168212890625 -223.9267120361328 -660.1642456054688 -223.6010894775391 C -661.7535400390625 -223.1067047119141 -663.3198852539062 -222.8560791015625 -664.8199462890625 -222.8560791015625 C -667.1124267578125 -222.8560791015625 -669.23193359375 -223.4333343505859 -671.1196899414062 -224.5717620849609 C -673.0554809570312 -225.7391815185547 -674.7008056640625 -227.4675598144531 -676.010009765625 -229.7088928222656 C -678.2943725585938 -233.6196899414062 -680.5923461914062 -237.6138305664062 -682.8146362304688 -241.4764862060547 C -684.8084716796875 -244.942138671875 -686.8702392578125 -248.5257568359375 -688.9174194335938 -252.0408782958984 C -691.4161987304688 -256.3312377929688 -691.1718139648438 -263.8348388671875 -686.8258666992188 -267.7425231933594 C -685.4801635742188 -268.9529418945312 -684.1480712890625 -270.2118530273438 -682.85986328125 -271.4293212890625 C -681.0849609375 -273.106689453125 -679.249755859375 -274.8411560058594 -677.3795776367188 -276.4462585449219 C -675.6743774414062 -277.9102172851562 -674.9782104492188 -279.6892700195312 -675.2511596679688 -281.8851928710938 C -675.7662353515625 -286.0234680175781 -675.7662353515625 -290.2256164550781 -675.2511596679688 -294.3751220703125 C -674.9854736328125 -296.5153503417969 -675.6676635742188 -298.2278442382812 -677.3980102539062 -299.7643737792969 L -677.8252563476562 -300.1437683105469 C -681.1384887695312 -303.0851745605469 -684.564453125 -306.126708984375 -687.6136474609375 -309.4033813476562 C -690.9671630859375 -313.0082397460938 -691.650634765625 -319.09912109375 -689.2032470703125 -323.5711975097656 C -684.3462524414062 -332.4444274902344 -679.2874755859375 -341.0177612304688 -675.4229125976562 -347.4954833984375 C -674.3345947265625 -349.319091796875 -672.7576904296875 -350.83203125 -670.8627319335938 -351.8705749511719 C -668.9999389648438 -352.8914489746094 -666.881103515625 -353.4310913085938 -664.7352294921875 -353.4310913085938 C -663.5961303710938 -353.4310913085938 -662.4613037109375 -353.2792663574219 -661.3622436523438 -352.9798278808594 C -656.9483032226562 -351.7781982421875 -652.7109375 -350.3865966796875 -649.14794921875 -349.1837768554688 C -648.2562866210938 -348.8824768066406 -647.4611206054688 -348.7359924316406 -646.7175903320312 -348.7360229492188 C -645.4595336914062 -348.736083984375 -644.2818603515625 -349.1537475585938 -643.1173095703125 -350.0128479003906 C -639.8756713867188 -352.4023742675781 -636.2241821289062 -354.5233459472656 -632.2647094726562 -356.3164978027344 C -630.408935546875 -357.1569213867188 -629.3392944335938 -358.4983825683594 -628.8985595703125 -360.5381774902344 C -627.8772583007812 -365.2663269042969 -627.0157470703125 -369.2049255371094 -626.0052490234375 -373.2550964355469 C -625.0599365234375 -377.04541015625 -622.8115844726562 -379.7964172363281 -619.131591796875 -381.6653747558594 C -618.6349487304688 -381.9178466796875 -618.05126953125 -382.0099792480469 -617.3754272460938 -382.11669921875 C -616.8793334960938 -382.1950073242188 -616.3685302734375 -382.275634765625 -615.8374633789062 -382.4280090332031 L -584.7930908203125 -382.4280090332031 C -581.9976196289062 -382.0213623046875 -579.8058471679688 -380.9915161132812 -578.0946655273438 -379.281494140625 C -576.4749755859375 -377.6628112792969 -575.2866821289062 -375.3845825195312 -574.5626831054688 -372.5100708007812 C -573.5792236328125 -368.6092834472656 -572.7139282226562 -364.5956115722656 -571.8770751953125 -360.7140808105469 L -571.7963256835938 -360.3394165039062 C -571.384521484375 -358.4269714355469 -570.376708984375 -357.1726684570312 -568.6248779296875 -356.3924255371094 C -564.8012084960938 -354.6879577636719 -560.9882202148438 -352.4602966308594 -556.9683837890625 -349.5823669433594 C -556.0643310546875 -348.9353942871094 -555.1484985351562 -348.6209716796875 -554.1683349609375 -348.6209716796875 C -553.6373901367188 -348.6209716796875 -553.0929565429688 -348.712646484375 -552.5039672851562 -348.9012451171875 C -550.51025390625 -349.5403747558594 -548.475341796875 -350.1748962402344 -546.5074462890625 -350.7885437011719 C -544.6194458007812 -351.3772583007812 -542.6671142578125 -351.9860229492188 -540.7487182617188 -352.5995483398438 C -539.0943603515625 -353.1285705566406 -537.4678955078125 -353.3968505859375 -535.9146118164062 -353.3968505859375 C -533.6231689453125 -353.3968505859375 -531.5068359375 -352.8200378417969 -529.62451171875 -351.6824951171875 C -527.6935424804688 -350.5155029296875 -526.0484619140625 -348.7837219238281 -524.7350463867188 -346.53515625 C -522.2317504882812 -342.2498474121094 -519.7132568359375 -337.8739929199219 -517.2776489257812 -333.6422119140625 C -515.4949951171875 -330.5448303222656 -513.651611328125 -327.342041015625 -511.8273010253906 -324.1973876953125 C -510.5470886230469 -321.9911193847656 -509.9949951171875 -319.0451965332031 -510.3125 -316.1148681640625 C -510.6504211425781 -312.9967651367188 -511.9373779296875 -310.2902221679688 -513.9364013671875 -308.4938354492188 C -515.3087158203125 -307.2607421875 -516.6676025390625 -305.97802734375 -517.9817504882812 -304.737548828125 C -519.73388671875 -303.0836486816406 -521.5457153320312 -301.3734436035156 -523.3876342773438 -299.7840270996094 C -525.0684204101562 -298.3353271484375 -525.76025390625 -296.6149291992188 -525.5020141601562 -294.5250244140625 C -524.98388671875 -290.3155517578125 -524.98486328125 -285.9832458496094 -525.5050048828125 -281.649169921875 C -525.7464599609375 -279.6330261230469 -525.0634155273438 -277.9157409667969 -523.4746704101562 -276.5446472167969 C -521.0702514648438 -274.4692077636719 -518.7127685546875 -272.2356262207031 -516.4329223632812 -270.0756225585938 C -515.5236206054688 -269.214111328125 -514.5833740234375 -268.3232727050781 -513.6504516601562 -267.4521484375 C -511.8235473632812 -265.7467651367188 -510.6246643066406 -263.1741638183594 -510.2744140625 -260.2080993652344 C -509.9497985839844 -257.459228515625 -510.4233093261719 -254.6330413818359 -511.5409851074219 -252.6480407714844 C -515.5577392578125 -245.5152282714844 -520.3280639648438 -237.1124114990234 -525.2537841796875 -228.8716888427734 C -526.3792114257812 -226.9888610839844 -527.9707641601562 -225.4426422119141 -529.856201171875 -224.4002075195312 C -531.7046508789062 -223.3782806396484 -533.831787109375 -222.8381042480469 -536.0076293945312 -222.8381042480469 C -537.3814086914062 -222.8381042480469 -538.7634887695312 -223.0497589111328 -540.1154174804688 -223.4671630859375 C -540.7247924804688 -223.6553649902344 -541.33447265625 -223.8432312011719 -541.9441528320312 -224.0310821533203 C -545.3734130859375 -225.0877838134766 -548.9194946289062 -226.1804809570312 -552.3766479492188 -227.325439453125 C -553.0240478515625 -227.5396881103516 -553.6201782226562 -227.6437530517578 -554.199462890625 -227.6437530517578 C -555.262939453125 -227.6437530517578 -556.2500610351562 -227.291015625 -557.2172241210938 -226.5653076171875 C -560.69970703125 -223.9518280029297 -564.666015625 -221.6341094970703 -569.0062255859375 -219.6764678955078 C -570.45068359375 -219.0250854492188 -571.2929077148438 -218.0124664306641 -571.6565551757812 -216.4897155761719 C -572.4224853515625 -213.2831115722656 -573.1943969726562 -209.8382568359375 -574.1594848632812 -205.3200378417969 C -574.9708251953125 -201.5191040039062 -576.1412353515625 -199.0629119873047 -578.0731811523438 -197.1068878173828 C -579.9285888671875 -195.2295837402344 -582.1226806640625 -194.1548004150391 -584.77783203125 -193.8232421875 Z M -644.9135131835938 -238.193115234375 C -643.5233764648438 -238.193115234375 -642.2166748046875 -237.6515350341797 -640.8012084960938 -236.4887084960938 C -635.8350219726562 -232.4096374511719 -630.401123046875 -229.2663879394531 -624.6504516601562 -227.1461334228516 C -622.2548217773438 -226.2627563476562 -621.0139770507812 -224.7839050292969 -620.5013427734375 -222.2012786865234 C -619.939453125 -219.3664855957031 -619.2913208007812 -216.5098114013672 -618.66455078125 -213.7471923828125 C -618.129150390625 -211.3875579833984 -617.5755615234375 -208.9476165771484 -617.08154296875 -206.54541015625 C -616.8079833984375 -205.21630859375 -616.2759399414062 -204.2651824951172 -615.4549560546875 -203.6374053955078 C -614.6746826171875 -203.0406799316406 -613.6876831054688 -202.7627868652344 -612.3489990234375 -202.7628173828125 C -612.3123168945312 -202.7628173828125 -612.2752075195312 -202.7630157470703 -612.2379150390625 -202.763427734375 C -609.0762329101562 -202.7978820800781 -605.7390747070312 -202.8132629394531 -601.4175415039062 -202.8132629394531 C -599.3323364257812 -202.8132629394531 -597.2115478515625 -202.8096923828125 -595.1605834960938 -202.8062133789062 C -593.1082153320312 -202.8027648925781 -590.9859619140625 -202.7991790771484 -588.8978881835938 -202.7991790771484 L -588.5382080078125 -202.7992095947266 C -587.1392822265625 -202.7996673583984 -585.9973754882812 -202.859130859375 -585.0926513671875 -203.6032409667969 C -584.2093505859375 -204.3297119140625 -583.9044799804688 -205.43896484375 -583.5977783203125 -206.8136138916016 C -583.1465454101562 -208.834228515625 -582.6805419921875 -210.8885803222656 -582.2299194335938 -212.8753051757812 C -581.4652099609375 -216.2464141845703 -580.6744995117188 -219.7322540283203 -579.9291381835938 -223.1718597412109 C -579.5340576171875 -224.9928131103516 -578.54248046875 -226.1429901123047 -576.80859375 -226.7911376953125 C -570.6097412109375 -229.1076812744141 -564.7437133789062 -232.4974365234375 -559.37353515625 -236.8662414550781 C -558.2254638671875 -237.7999114990234 -557.1317138671875 -238.2348327636719 -555.9315185546875 -238.2348327636719 C -555.2898559570312 -238.2348327636719 -554.6155395507812 -238.1130676269531 -553.8699340820312 -237.8625640869141 C -551.101806640625 -236.9330139160156 -548.2752075195312 -236.0496063232422 -545.5416870117188 -235.1952819824219 C -543.0476684570312 -234.4158325195312 -540.46875 -233.6098327636719 -537.9534912109375 -232.7745819091797 C -537.3109130859375 -232.5612335205078 -536.744384765625 -232.4575347900391 -536.2215576171875 -232.4575347900391 C -534.1107788085938 -232.4575347900391 -533.1471557617188 -234.1544647216797 -532.8305053710938 -234.7120819091797 C -529.6937866210938 -240.2330627441406 -526.454833984375 -245.8221893310547 -523.3224487304688 -251.2272796630859 C -522.368408203125 -252.87353515625 -521.4144287109375 -254.5197601318359 -520.461669921875 -256.1667175292969 C -520.4302978515625 -256.2208557128906 -520.3981323242188 -256.2752075195312 -520.365966796875 -256.3295288085938 C -520.0335693359375 -256.89111328125 -519.58251953125 -257.6532287597656 -519.6531982421875 -258.6863708496094 C -519.6368408203125 -260.1683044433594 -520.5736694335938 -261.0125427246094 -521.1984252929688 -261.5756225585938 C -521.2546997070312 -261.6262817382812 -521.3109130859375 -261.6769104003906 -521.3663330078125 -261.7279968261719 C -522.3817749023438 -262.6634826660156 -523.3964233398438 -263.59912109375 -524.4111328125 -264.5348205566406 C -527.466552734375 -267.3523559570312 -530.6260375976562 -270.2658081054688 -533.7473754882812 -273.1188354492188 C -535.1862182617188 -274.4344177246094 -535.7103271484375 -275.884033203125 -535.4465942382812 -277.8190307617188 C -534.4171142578125 -285.3648071289062 -534.4002075195312 -291.6040954589844 -535.393310546875 -297.4541931152344 C -535.8507080078125 -300.1471862792969 -535.06884765625 -302.1311950683594 -532.7789916992188 -304.0883483886719 C -530.009765625 -306.4547729492188 -527.3138427734375 -308.9755249023438 -524.7067260742188 -311.4132995605469 C -523.678955078125 -312.3742980957031 -522.6162719726562 -313.3679504394531 -521.56640625 -314.3358459472656 C -520.5234375 -315.2974243164062 -519.7730712890625 -316.0641479492188 -519.6171875 -317.1777648925781 C -519.4638061523438 -318.2737731933594 -519.9625244140625 -319.2442321777344 -520.683837890625 -320.49560546875 C -524.4981079101562 -327.1139221191406 -528.5103759765625 -334.0622863769531 -532.609130859375 -341.1475830078125 C -533.4164428710938 -342.5436096191406 -534.1790771484375 -343.8623962402344 -535.9364013671875 -343.8623962402344 C -536.6399536132812 -343.8623962402344 -537.3966674804688 -343.6392211914062 -538.3888549804688 -343.323974609375 C -539.858154296875 -342.8567810058594 -541.353515625 -342.3848876953125 -542.7996826171875 -341.9284973144531 C -546.4641723632812 -340.7721252441406 -550.25341796875 -339.5763244628906 -553.9679565429688 -338.346923828125 C -554.6961059570312 -338.1061706542969 -555.3811645507812 -337.9840087890625 -556.0036010742188 -337.9840087890625 C -557.0903930664062 -337.9840087890625 -558.0760498046875 -338.3561706542969 -559.016845703125 -339.1216735839844 C -561.7526245117188 -341.3481140136719 -564.6163330078125 -343.3397216796875 -567.5282592773438 -345.0411376953125 C -570.5376586914062 -346.7994995117188 -573.6937866210938 -348.3036499023438 -576.9090576171875 -349.5118408203125 C -578.5422973632812 -350.1252746582031 -579.5216674804688 -351.2738647460938 -579.9033203125 -353.023193359375 C -580.7110595703125 -356.7232971191406 -581.5618286132812 -360.4758911132812 -582.3845825195312 -364.1049499511719 C -582.7901000976562 -365.8937072753906 -583.2094116210938 -367.7433776855469 -583.6181640625 -369.5625915527344 C -583.902587890625 -370.826416015625 -584.2117919921875 -371.9313049316406 -585.1188354492188 -372.6593627929688 C -586.0299072265625 -373.3906860351562 -587.228515625 -373.4515991210938 -588.4797973632812 -373.4519958496094 C -592.4329833984375 -373.4527893066406 -596.3858032226562 -373.4532165527344 -600.338623046875 -373.4532165527344 C -604.2914428710938 -373.4532165527344 -608.2442626953125 -373.4527893066406 -612.197265625 -373.4519958496094 C -613.5956420898438 -373.4515686035156 -614.737060546875 -373.3923950195312 -615.640380859375 -372.6519775390625 C -616.5305786132812 -371.9223022460938 -616.83349609375 -370.8097229003906 -617.1370239257812 -369.4310607910156 C -617.51416015625 -367.7174682617188 -617.9000854492188 -365.9752502441406 -618.2733764648438 -364.2904357910156 C -619.0489501953125 -360.78955078125 -619.8509521484375 -357.1694946289062 -620.6184692382812 -353.6019897460938 C -621.0911865234375 -351.4076538085938 -622.2181396484375 -350.0828247070312 -624.2723999023438 -349.3067016601562 C -630.398681640625 -346.9930725097656 -636.1456298828125 -343.6495361328125 -641.3533935546875 -339.3690490722656 C -642.48583984375 -338.4383239746094 -643.5764770507812 -338.0048217773438 -644.7855834960938 -338.0048217773438 C -645.4323120117188 -338.0048217773438 -646.1097412109375 -338.1273193359375 -646.8565673828125 -338.3792724609375 C -649.4345092773438 -339.2492370605469 -652.0664672851562 -340.0756225585938 -654.6117553710938 -340.8748168945312 C -657.1778564453125 -341.6805419921875 -659.8312377929688 -342.513671875 -662.4144897460938 -343.3871459960938 C -663.1491088867188 -343.6354675292969 -663.7920532226562 -343.7561645507812 -664.3801879882812 -343.7561645507812 C -666.699462890625 -343.7561645507812 -667.7748413085938 -341.8392639160156 -668.1282348632812 -341.2093505859375 C -670.9458618164062 -336.1890869140625 -673.8849487304688 -331.1200866699219 -676.727294921875 -326.2179565429688 C -677.8045654296875 -324.3600463867188 -678.91845703125 -322.4388732910156 -680.0105590820312 -320.5466003417969 C -680.7505493164062 -319.2647399902344 -681.2615966796875 -318.2710266113281 -681.0950927734375 -317.1550598144531 C -680.9281616210938 -316.0358276367188 -680.1500854492188 -315.2462158203125 -679.0691528320312 -314.2528991699219 C -674.7467041015625 -310.2801818847656 -670.7450561523438 -306.5973205566406 -666.8355712890625 -302.9938659667969 C -665.481689453125 -301.7463684082031 -664.9957885742188 -300.3379211425781 -665.259765625 -298.4269714355469 C -666.2946166992188 -290.9432983398438 -666.32861328125 -284.8790283203125 -665.3665771484375 -279.3424682617188 C -664.8319091796875 -276.2630310058594 -665.6373291015625 -274.0748596191406 -668.059814453125 -272.0259704589844 C -670.29150390625 -270.1393737792969 -672.4541015625 -268.123046875 -674.5454711914062 -266.173095703125 C -676.0448608398438 -264.775146484375 -677.5952758789062 -263.3296203613281 -679.147705078125 -261.9544982910156 C -681.1996459960938 -260.1369323730469 -681.5169067382812 -258.213134765625 -680.1461791992188 -255.9002380371094 C -676.3499755859375 -249.4916076660156 -672.3955688476562 -242.6361846923828 -668.05712890625 -234.9425048828125 C -667.7139282226562 -234.3334350585938 -666.6688232421875 -232.4785308837891 -664.3876953125 -232.4787292480469 C -663.8123779296875 -232.478759765625 -663.1871337890625 -232.5953063964844 -662.4762573242188 -232.8350067138672 C -660.2955322265625 -233.5699615478516 -658.05126953125 -234.2672576904297 -655.8809204101562 -234.9415893554688 C -653.0464477539062 -235.8222351074219 -650.115478515625 -236.7328796386719 -647.258544921875 -237.747314453125 C -646.4141845703125 -238.0473327636719 -645.6471557617188 -238.193115234375 -644.9135131835938 -238.193115234375 Z" stroke="none"/>
      <path d="M -584.8734741210938 -195.3232421875 C -582.5765991210938 -195.6267395019531 -580.7509765625 -196.5313720703125 -579.140380859375 -198.1609497070312 C -577.4244995117188 -199.8982696533203 -576.3735961914062 -202.1329040527344 -575.6264038085938 -205.6333770751953 C -574.6588745117188 -210.1630554199219 -573.8844604492188 -213.6187438964844 -573.1155395507812 -216.8382110595703 C -572.6482543945312 -218.7944793701172 -571.47314453125 -220.20947265625 -569.6229248046875 -221.0437927246094 C -565.3831176757812 -222.9561614990234 -561.51220703125 -225.2174987792969 -558.117431640625 -227.76513671875 C -556.8982543945312 -228.679931640625 -555.5800170898438 -229.1437683105469 -554.199462890625 -229.1437683105469 C -553.4574584960938 -229.1437683105469 -552.7071533203125 -229.0148162841797 -551.905029296875 -228.7493438720703 C -548.4635009765625 -227.6095886230469 -544.9257202148438 -226.5194549560547 -541.5045166015625 -225.4652099609375 C -540.8938598632812 -225.2770385742188 -540.283203125 -225.0888671875 -539.6729125976562 -224.9004058837891 C -538.4647827148438 -224.5274047851562 -537.2315063476562 -224.3382110595703 -536.0064697265625 -224.3381042480469 C -534.0841064453125 -224.3381042480469 -532.208251953125 -224.8135070800781 -530.5816650390625 -225.7129211425781 C -528.9280395507812 -226.6272735595703 -527.5309448242188 -227.9856567382812 -526.5413208007812 -229.6412658691406 C -521.6244506835938 -237.8672180175781 -516.8600463867188 -246.2595520019531 -512.8480224609375 -253.3839721679688 C -511.880615234375 -255.1021423339844 -511.4753723144531 -257.5874938964844 -511.7640686035156 -260.0322265625 C -512.07275390625 -262.6463928222656 -513.1061401367188 -264.8920593261719 -514.6741333007812 -266.3558044433594 C -515.611083984375 -267.2306518554688 -516.5533447265625 -268.1233825683594 -517.4645385742188 -268.9866943359375 C -519.7319946289062 -271.1349792480469 -522.0767211914062 -273.3564147949219 -524.4546508789062 -275.4090576171875 C -525.4246826171875 -276.2461853027344 -526.13330078125 -277.2084045410156 -526.5609130859375 -278.2689514160156 C -527.000732421875 -279.3596801757812 -527.1465454101562 -280.556884765625 -526.9943237304688 -281.827880859375 C -526.4885864257812 -286.0419311523438 -526.4874267578125 -290.2524719238281 -526.9906616210938 -294.3410949707031 C -527.3106079101562 -296.9303283691406 -526.4276733398438 -299.14404296875 -524.3676147460938 -300.919677734375 C -522.551025390625 -302.4871826171875 -520.7516479492188 -304.1856689453125 -519.0115356445312 -305.8282470703125 C -517.6907348632812 -307.0749816894531 -516.3250122070312 -308.3641662597656 -514.9390258789062 -309.6094970703125 C -513.2152709960938 -311.1585693359375 -512.101806640625 -313.5262756347656 -511.8038024902344 -316.2764587402344 C -511.5241088867188 -318.8575134277344 -512.0178833007812 -321.537109375 -513.1248168945312 -323.4447021484375 C -514.9500732421875 -326.5909729003906 -516.7937622070312 -329.7943420410156 -518.5767211914062 -332.8922119140625 C -521.011474609375 -337.1225280761719 -523.529052734375 -341.4968566894531 -526.0302734375 -345.7785949707031 C -528.3682861328125 -349.7811889648438 -531.7862548828125 -351.8968505859375 -535.9146118164062 -351.8968505859375 C -537.3125610351562 -351.8968505859375 -538.7853393554688 -351.652587890625 -540.291748046875 -351.1708679199219 C -542.2154541015625 -350.5556335449219 -544.1705322265625 -349.9460144042969 -546.0612182617188 -349.3564453125 C -548.0261840820312 -348.7437133789062 -550.05810546875 -348.110107421875 -552.0465087890625 -347.4727172851562 C -552.7855224609375 -347.2360534667969 -553.4795532226562 -347.1210021972656 -554.1683349609375 -347.1209411621094 C -555.4544067382812 -347.1209411621094 -556.6900634765625 -347.5386352539062 -557.8416137695312 -348.3627014160156 C -561.7781982421875 -351.1811218261719 -565.50537109375 -353.3595581054688 -569.2351684570312 -355.0221862792969 C -570.3593139648438 -355.5228576660156 -571.2373657226562 -356.1871643066406 -571.9196166992188 -357.0530700683594 C -572.5709838867188 -357.8797302246094 -573.0103149414062 -358.8515625 -573.2626342773438 -360.0232543945312 L -573.3433837890625 -360.3977661132812 C -574.177490234375 -364.2668762207031 -575.0400390625 -368.2677307128906 -576.0172729492188 -372.1437072753906 C -576.674072265625 -374.7516479492188 -577.7297973632812 -376.796142578125 -579.155029296875 -378.2204895019531 C -580.6082153320312 -379.6727294921875 -582.4904174804688 -380.5595092773438 -584.904296875 -380.9280090332031 L -615.6366577148438 -380.9280090332031 C -616.1768188476562 -380.7873229980469 -616.6826171875 -380.7074890136719 -617.1414794921875 -380.6350402832031 C -617.6915893554688 -380.5481872558594 -618.1666870117188 -380.4731750488281 -618.452392578125 -380.3279418945312 C -621.7215576171875 -378.6676330566406 -623.716064453125 -376.2354125976562 -624.5498657226562 -372.8919677734375 C -625.5548706054688 -368.8637390136719 -626.4138793945312 -364.9367370605469 -627.4324340820312 -360.221435546875 C -627.9744262695312 -357.712890625 -629.3526611328125 -355.9886474609375 -631.6459350585938 -354.9501037597656 C -635.5098876953125 -353.2001953125 -639.0701293945312 -351.1327209472656 -642.2268676757812 -348.8057250976562 C -643.6585693359375 -347.7495727539062 -645.1275024414062 -347.2361145019531 -646.717529296875 -347.2360229492188 C -647.6270751953125 -347.2359924316406 -648.5792236328125 -347.4083251953125 -649.627685546875 -347.7625732421875 C -653.169677734375 -348.9583129882812 -657.3804931640625 -350.3412780761719 -661.7565307617188 -351.5325927734375 C -662.7271728515625 -351.7969970703125 -663.7293701171875 -351.9310913085938 -664.7352294921875 -351.9310913085938 C -666.6298217773438 -351.9310913085938 -668.4993286132812 -351.4552917480469 -670.1417846679688 -350.55517578125 C -671.8026123046875 -349.6449584960938 -673.183349609375 -348.3210754394531 -674.1347045898438 -346.7269897460938 C -677.9927978515625 -340.2601928710938 -683.0425415039062 -331.7022094726562 -687.8873901367188 -322.8510437011719 C -688.9360961914062 -320.9347534179688 -689.3632202148438 -318.6007385253906 -689.090087890625 -316.2789306640625 C -688.8221435546875 -314.0006713867188 -687.9076538085938 -311.9216918945312 -686.5155029296875 -310.4252014160156 C -683.5153198242188 -307.2011108398438 -680.11669921875 -304.1838989257812 -676.8300170898438 -301.2660217285156 L -676.4020385742188 -300.8860168457031 C -675.3775024414062 -299.9762573242188 -674.6632080078125 -299.009033203125 -674.2183837890625 -297.9290466308594 C -673.7493286132812 -296.7903137207031 -673.5960083007812 -295.5324096679688 -673.7625732421875 -294.1903381347656 C -674.2623901367188 -290.1636047363281 -674.262451171875 -286.0859375 -673.7626953125 -282.0702514648438 C -673.4275512695312 -279.374755859375 -674.315673828125 -277.0997009277344 -676.4026489257812 -275.3080139160156 C -678.2454833984375 -273.7263793945312 -680.0673828125 -272.0045166015625 -681.8292846679688 -270.3393859863281 C -683.1242065429688 -269.1155700683594 -684.4631958007812 -267.8501281738281 -685.8229370117188 -266.6271362304688 C -687.5425415039062 -265.0809631347656 -688.65087890625 -262.7091674804688 -688.9437255859375 -259.9486694335938 C -689.2180786132812 -257.3626708984375 -688.7236938476562 -254.688720703125 -687.6212158203125 -252.7957611083984 C -685.5717163085938 -249.2766571044922 -683.5086059570312 -245.6906890869141 -681.513427734375 -242.2227935791016 C -679.2926635742188 -238.36279296875 -676.9962768554688 -234.3713989257812 -674.7147216796875 -230.4654235839844 C -672.3802490234375 -226.4686584472656 -668.9586791992188 -224.3560791015625 -664.8199462890625 -224.3560791015625 C -663.4710083007812 -224.3560791015625 -662.0546264648438 -224.5839233398438 -660.6095581054688 -225.0334320068359 C -659.5594482421875 -225.3599243164062 -658.4930419921875 -225.6875915527344 -657.4617919921875 -226.0044860839844 C -654.6477661132812 -226.8691558837891 -651.7378540039062 -227.7632904052734 -648.9163818359375 -228.7082366943359 C -648.1187133789062 -228.9751129150391 -647.3688354492188 -229.1048278808594 -646.6240234375 -229.1048278808594 C -645.2557983398438 -229.1048278808594 -643.9860229492188 -228.6708679199219 -642.7410888671875 -227.7774810791016 C -639.152587890625 -225.2002410888672 -635.421142578125 -223.0218505859375 -631.6495971679688 -221.3025054931641 C -629.33740234375 -220.2476654052734 -627.9578857421875 -218.5212707519531 -627.4320678710938 -216.0237731933594 C -626.6375732421875 -212.2442169189453 -625.7604370117188 -208.1844329833984 -624.7305908203125 -204.1051940917969 C -624.072509765625 -201.4985046386719 -623.0162353515625 -199.4547424316406 -621.591064453125 -198.0306701660156 C -620.1378173828125 -196.5784606933594 -618.256103515625 -195.6916961669922 -615.8439331054688 -195.3232421875 L -584.8734741210938 -195.3232421875 M -644.9134521484375 -236.693115234375 C -645.4732055664062 -236.693115234375 -646.075927734375 -236.5756378173828 -646.7566528320312 -236.333740234375 C -649.6417236328125 -235.309326171875 -652.5872192382812 -234.3941955566406 -655.4356689453125 -233.5091857910156 C -657.5977172851562 -232.8374481201172 -659.8333740234375 -232.142822265625 -661.9969482421875 -231.4136352539062 C -662.86474609375 -231.1210327148438 -663.646728515625 -230.9787750244141 -664.3876342773438 -230.9787139892578 C -665.5196533203125 -230.9786682128906 -666.5484619140625 -231.3070526123047 -667.4454345703125 -231.9548187255859 C -668.182861328125 -232.4873962402344 -668.810546875 -233.2239837646484 -669.3637084960938 -234.2057495117188 C -673.6967163085938 -241.8897705078125 -677.6459350585938 -248.7361297607422 -681.4365844726562 -255.1354827880859 C -682.3406982421875 -256.6610107421875 -682.6520385742188 -258.0826416015625 -682.388427734375 -259.4815673828125 C -682.1439208984375 -260.7789611816406 -681.4091796875 -261.9551696777344 -680.1422729492188 -263.0773620605469 C -678.6041870117188 -264.4397277832031 -677.0609130859375 -265.8786010742188 -675.5684814453125 -267.2701416015625 C -673.4639892578125 -269.2323303222656 -671.2877197265625 -271.2612915039062 -669.0285034179688 -273.1712036132812 C -667.013671875 -274.8753662109375 -666.4013061523438 -276.5337219238281 -666.8444213867188 -279.0856628417969 C -667.833740234375 -284.7793579101562 -667.8023681640625 -290.9905090332031 -666.7456665039062 -298.6322326660156 C -666.5482177734375 -300.0615539550781 -666.8583374023438 -300.9751281738281 -667.8521728515625 -301.8908996582031 C -671.7743530273438 -305.5060119628906 -675.7754516601562 -309.1883850097656 -680.0841064453125 -313.1484069824219 C -681.08056640625 -314.0640869140625 -682.3206176757812 -315.2036437988281 -682.5786743164062 -316.9337463378906 C -682.8352661132812 -318.6537780761719 -681.9893188476562 -320.1192016601562 -681.3097534179688 -321.2964172363281 C -680.2171630859375 -323.1895446777344 -679.1030883789062 -325.1108703613281 -678.0257568359375 -326.9689636230469 C -675.1857299804688 -331.8670654296875 -672.2490234375 -336.9319152832031 -669.4364013671875 -341.9432067871094 C -668.2031860351562 -344.1415405273438 -666.5020141601562 -345.2561645507812 -664.3801879882812 -345.2561645507812 C -663.6260986328125 -345.2561645507812 -662.8260498046875 -345.1096496582031 -661.9340209960938 -344.80810546875 C -659.3662719726562 -343.9398803710938 -656.7208251953125 -343.1092529296875 -654.1624145507812 -342.3059387207031 C -651.6096801757812 -341.50439453125 -648.969970703125 -340.6755981445312 -646.3770751953125 -339.8005981445312 C -645.79541015625 -339.6043395996094 -645.260009765625 -339.5048522949219 -644.78564453125 -339.5048522949219 C -644.2106323242188 -339.5048522949219 -643.4091186523438 -339.6211242675781 -642.3058471679688 -340.5278625488281 C -636.9712524414062 -344.9125671386719 -631.0822143554688 -348.3383483886719 -624.8025512695312 -350.7098999023438 C -623.2149047851562 -351.3096923828125 -622.4529418945312 -352.2092590332031 -622.0849609375 -353.9175109863281 C -621.3164672851562 -357.4893493652344 -620.5139770507812 -361.111572265625 -619.7379150390625 -364.6145935058594 C -619.36474609375 -366.2989807128906 -618.9788818359375 -368.0407409667969 -618.6019287109375 -369.7535400390625 C -618.3287353515625 -370.9947814941406 -617.9544677734375 -372.6947021484375 -616.5912475585938 -373.8120727539062 C -615.20166015625 -374.9510498046875 -613.4655151367188 -374.9515991210938 -612.1975708007812 -374.9519958496094 C -604.2913208007812 -374.9535827636719 -596.3863525390625 -374.9535827636719 -588.479248046875 -374.9519958496094 C -587.0110473632812 -374.9515380859375 -585.4696655273438 -374.8644409179688 -584.1798706054688 -373.8291320800781 C -582.8971557617188 -372.799560546875 -582.4761352539062 -371.3198852539062 -582.1546020507812 -369.8913879394531 C -581.746337890625 -368.0741577148438 -581.3273315429688 -366.2257385253906 -580.9220581054688 -364.4382019042969 C -580.0985107421875 -360.8057556152344 -579.2470092773438 -357.0496215820312 -578.4378051757812 -353.3428649902344 C -578.1621704101562 -352.0796508789062 -577.5473022460938 -351.3539123535156 -576.3814086914062 -350.9159851074219 C -573.0870971679688 -349.6780700683594 -569.8538208007812 -348.13720703125 -566.771484375 -346.3362426757812 C -563.7931518554688 -344.5960083007812 -560.8655395507812 -342.5600891113281 -558.070068359375 -340.28515625 C -557.38916015625 -339.7310791015625 -556.7518310546875 -339.4840087890625 -556.0035400390625 -339.4840087890625 C -555.5413818359375 -339.4840087890625 -555.0148315429688 -339.5806274414062 -554.4392700195312 -339.7709655761719 C -550.7141723632812 -341.0038757324219 -546.9192504882812 -342.201416015625 -543.249267578125 -343.3595581054688 C -541.804443359375 -343.8154907226562 -540.3104858398438 -344.2869262695312 -538.8431396484375 -344.7535095214844 C -537.7210693359375 -345.1100463867188 -536.8557739257812 -345.3623962402344 -535.9364013671875 -345.3623962402344 C -534.7017822265625 -345.3623962402344 -533.632568359375 -344.9010925292969 -532.75830078125 -343.9913024902344 C -532.2068481445312 -343.4174194335938 -531.7763671875 -342.7038879394531 -531.3107299804688 -341.898681640625 C -527.21240234375 -334.8141479492188 -523.1997680664062 -327.8650817871094 -519.38427734375 -321.2446899414062 C -518.7207641601562 -320.0935974121094 -517.89501953125 -318.6609802246094 -518.1317138671875 -316.9698486328125 C -518.3739624023438 -315.2388610839844 -519.5803833007812 -314.1266479492188 -520.5496826171875 -313.2330322265625 C -521.5957641601562 -312.2686462402344 -522.6566162109375 -311.2767028808594 -523.6824951171875 -310.3174438476562 C -526.3015747070312 -307.8684692382812 -529.0098876953125 -305.3361206054688 -531.8043823242188 -302.9481201171875 C -533.68994140625 -301.3364868164062 -534.2816162109375 -299.8665771484375 -533.9144897460938 -297.7052307128906 C -532.8951416015625 -291.7006530761719 -532.9097290039062 -285.3171997070312 -533.9603271484375 -277.616455078125 C -534.1583251953125 -276.1636352539062 -533.8148193359375 -275.2129516601562 -532.7354125976562 -274.2260437011719 C -529.6138916015625 -271.3728332519531 -526.4555053710938 -268.4603881835938 -523.401123046875 -265.6438598632812 C -522.3843383789062 -264.7062377929688 -521.3675537109375 -263.7686157226562 -520.3496704101562 -262.8309020996094 C -520.29833984375 -262.7835998535156 -520.2462768554688 -262.7367553710938 -520.1942138671875 -262.6898193359375 C -519.524658203125 -262.0863952636719 -518.1538696289062 -260.85107421875 -518.1529541015625 -258.7269592285156 C -518.0732421875 -257.2582092285156 -518.719970703125 -256.1654663085938 -519.0752563476562 -255.5653533935547 C -519.1049194335938 -255.5151672363281 -519.1347045898438 -255.4649810791016 -519.1632690429688 -255.4156341552734 C -520.117431640625 -253.7662353515625 -521.0728759765625 -252.1175537109375 -522.0282592773438 -250.4689025878906 C -525.1578369140625 -245.0685882568359 -528.3939819335938 -239.4844055175781 -531.5261840820312 -233.9713745117188 C -532.041748046875 -233.0634307861328 -532.6279296875 -232.3803253173828 -533.318115234375 -231.883056640625 C -534.1704711914062 -231.2689208984375 -535.1473388671875 -230.9575653076172 -536.2216186523438 -230.9575653076172 C -536.9076538085938 -230.9575653076172 -537.6287841796875 -231.0862426757812 -538.42626953125 -231.3509979248047 C -540.9287719726562 -232.1820526123047 -543.5011596679688 -232.9860076904297 -545.9888305664062 -233.7634735107422 C -548.7298583984375 -234.6201629638672 -551.564208984375 -235.5059814453125 -554.3477172851562 -236.4406585693359 C -554.9368286132812 -236.6386108398438 -555.4548950195312 -236.7348480224609 -555.9315185546875 -236.7348480224609 C -556.50244140625 -236.7348480224609 -557.3020629882812 -236.6175079345703 -558.4268798828125 -235.70263671875 C -563.923828125 -231.2307739257812 -569.9317016601562 -227.7597351074219 -576.2833251953125 -225.3861083984375 C -577.5436401367188 -224.9149780273438 -578.17529296875 -224.1811828613281 -578.4631958007812 -222.8541870117188 C -579.2103271484375 -219.4063415527344 -580.0021362304688 -215.9156951904297 -580.7678833007812 -212.5399780273438 C -581.2179565429688 -210.5556030273438 -581.6834106445312 -208.5036926269531 -582.1337890625 -206.4869537353516 C -582.491455078125 -204.8838806152344 -582.8893432617188 -203.4732208251953 -584.1398315429688 -202.4447174072266 C -585.425048828125 -201.3876953125 -586.9534301757812 -201.2997131347656 -588.537841796875 -201.2992095947266 L -588.8988037109375 -201.2991943359375 C -590.9876098632812 -201.2991943359375 -593.1100463867188 -201.3027648925781 -595.16259765625 -201.3062133789062 C -597.2125854492188 -201.3096618652344 -599.3323364257812 -201.3132476806641 -601.4158935546875 -201.3132476806641 C -605.7340087890625 -201.3132476806641 -609.066650390625 -201.2978973388672 -612.2220458984375 -201.2635040283203 C -612.2646484375 -201.2630310058594 -612.3070068359375 -201.2628021240234 -612.3489379882812 -201.2628021240234 C -614.010986328125 -201.2628021240234 -615.3250122070312 -201.6497650146484 -616.3660278320312 -202.4458160400391 C -617.4865112304688 -203.3026580810547 -618.201171875 -204.5446166992188 -618.55078125 -206.2432403564453 C -619.041748046875 -208.6304473876953 -619.5935668945312 -211.0627746582031 -620.1273193359375 -213.4150085449219 C -620.75634765625 -216.1875915527344 -621.4067993164062 -219.0545501708984 -621.97265625 -221.9092712402344 C -622.3811645507812 -223.9674072265625 -623.2774658203125 -225.0411071777344 -625.1693115234375 -225.7387390136719 C -631.0777587890625 -227.9171295166016 -636.6573486328125 -231.1439514160156 -641.75341796875 -235.3296966552734 C -643.2244262695312 -236.5381317138672 -644.2149047851562 -236.693115234375 -644.9134521484375 -236.693115234375 M -584.6868896484375 -192.3232421875 L -616.0613403320312 -192.3232421875 C -622.55859375 -193.2292938232422 -626.1055297851562 -197.2955017089844 -627.6393432617188 -203.3708190917969 C -628.6459350585938 -207.3580322265625 -629.521728515625 -211.3811340332031 -630.367919921875 -215.4066314697266 C -630.6909790039062 -216.9412231445312 -631.4279174804688 -217.9039306640625 -632.894775390625 -218.5731048583984 C -636.9800415039062 -220.4355010986328 -640.8428344726562 -222.7206420898438 -644.4910888671875 -225.3407897949219 C -645.62353515625 -226.1535339355469 -646.6556396484375 -226.3010864257812 -647.9646606445312 -225.8632202148438 C -651.8585205078125 -224.5591125488281 -655.7962646484375 -223.3882446289062 -659.7189331054688 -222.1686859130859 C -666.9396362304688 -219.9226684570312 -673.4663696289062 -222.3800354003906 -677.3052368164062 -228.9523162841797 C -681.6417846679688 -236.3764038085938 -685.8866577148438 -243.8562927246094 -690.213623046875 -251.2859802246094 C -693.0737915039062 -256.1968078613281 -692.7173461914062 -264.4623718261719 -687.8287963867188 -268.8579406738281 C -684.6400146484375 -271.7261047363281 -681.6146850585938 -274.7881164550781 -678.3565063476562 -277.5845031738281 C -677.0205078125 -278.7314758300781 -676.5324096679688 -280.0323486328125 -676.73974609375 -281.7001342773438 C -677.2733154296875 -285.9872436523438 -677.2717895507812 -290.2735595703125 -676.73974609375 -294.5598754882812 C -676.5324096679688 -296.2300720214844 -677.0691528320312 -297.4663391113281 -678.3939819335938 -298.6427917480469 C -681.9281005859375 -301.7813720703125 -685.4838256835938 -304.9127502441406 -688.7117309570312 -308.3815307617188 C -692.4573364257812 -312.4078063964844 -693.3179321289062 -319.1770629882812 -690.5191040039062 -324.2912902832031 C -686.0908203125 -332.38134765625 -681.4352416992188 -340.3454284667969 -676.7110595703125 -348.2640075683594 C -673.5261840820312 -353.6007385253906 -667.0107421875 -356.0732727050781 -660.9679565429688 -354.4270935058594 C -656.8252563476562 -353.2992858886719 -652.7343139648438 -351.9776611328125 -648.6681518554688 -350.60498046875 C -646.9188842773438 -350.013916015625 -645.5614013671875 -350.0737609863281 -644.0077514648438 -351.2199401855469 C -640.5453491210938 -353.7722473144531 -636.8021850585938 -355.9082336425781 -632.883544921875 -357.6829223632812 C -631.4111938476562 -358.3497009277344 -630.6949462890625 -359.3267822265625 -630.36474609375 -360.85498046875 C -629.4435424804688 -365.1197204589844 -628.5167236328125 -369.3853149414062 -627.4606323242188 -373.6181945800781 C -626.385498046875 -377.9292602539062 -623.7606201171875 -380.9967956542969 -619.8108520507812 -383.0027770996094 C -618.6072998046875 -383.6145324707031 -617.2864379882812 -383.527587890625 -616.0613403320312 -383.9280090332031 L -584.6868896484375 -383.9280090332031 C -578.1871948242188 -383.0219116210938 -574.6394653320312 -378.95654296875 -573.1080932617188 -372.8764343261719 C -572.087158203125 -368.8269958496094 -571.2105712890625 -364.7392883300781 -570.3300170898438 -360.6555786132812 C -570.029296875 -359.2589721679688 -569.3577270507812 -358.3608703613281 -568.0145874023438 -357.7626647949219 C -563.793701171875 -355.8811340332031 -559.8495483398438 -353.4898986816406 -556.09521484375 -350.802001953125 C -555.0743408203125 -350.0714416503906 -554.13720703125 -349.9533081054688 -552.96142578125 -350.3298034667969 C -549.0499877929688 -351.5836486816406 -545.11865234375 -352.77685546875 -541.2056274414062 -354.0282897949219 C -533.8924560546875 -356.3669738769531 -527.32177734375 -353.9373474121094 -523.4398193359375 -347.291748046875 C -519.1016235351562 -339.8652648925781 -514.8456420898438 -332.3893432617188 -510.5298461914062 -324.9501037597656 C -507.6552734375 -319.9962158203125 -508.046875 -311.7697448730469 -512.9337768554688 -307.3781433105469 C -516.125 -304.5107421875 -519.1558837890625 -301.454345703125 -522.40771484375 -298.6483764648438 C -523.6727294921875 -297.5580444335938 -524.2127075195312 -296.3225708007812 -524.0133056640625 -294.7090148925781 C -523.4701538085938 -290.2958984375 -523.486083984375 -285.883544921875 -524.0156860351562 -281.4704284667969 C -524.1998901367188 -279.9326477050781 -523.7062377929688 -278.7258605957031 -522.49462890625 -277.6802062988281 C -519.1016235351562 -274.7514343261719 -515.9024658203125 -271.6072692871094 -512.626708984375 -268.5484924316406 C -508.1537475585938 -264.3730163574219 -507.652099609375 -256.4974975585938 -510.2339477539062 -251.9120788574219 C -514.72998046875 -243.9281158447266 -519.2659912109375 -235.9656372070312 -523.9662475585938 -228.1020812988281 C -527.3679809570312 -222.4111785888672 -534.1021728515625 -220.0406799316406 -540.5579223632812 -222.0339050292969 C -544.66162109375 -223.3013000488281 -548.7708740234375 -224.5511322021484 -552.8482055664062 -225.9014739990234 C -554.1665649414062 -226.3377685546875 -555.2050170898438 -226.1997985839844 -556.3169555664062 -225.3655090332031 C -560.0665283203125 -222.5515899658203 -564.1207275390625 -220.2345275878906 -568.3894653320312 -218.3091125488281 C -569.3976440429688 -217.8544769287109 -569.9415893554688 -217.2132110595703 -570.1976318359375 -216.1412353515625 C -571.0813598632812 -212.441162109375 -571.8981323242188 -208.7259216308594 -572.6925659179688 -205.0067138671875 C -573.4055786132812 -201.6663513183594 -574.513427734375 -198.5764465332031 -577.0059814453125 -196.0528259277344 C -579.1666870117188 -193.8665771484375 -581.6966552734375 -192.6773681640625 -584.6868896484375 -192.3232421875 Z M -644.9134521484375 -239.693115234375 C -643.0958862304688 -239.693115234375 -641.4686279296875 -238.978271484375 -639.8490600585938 -237.6477661132812 C -635.1160888671875 -233.7602386474609 -629.8837890625 -230.6743469238281 -624.1315307617188 -228.5535278320312 C -621.2266235351562 -227.4823150634766 -619.6354370117188 -225.5433807373047 -619.030029296875 -222.4933471679688 C -617.9923706054688 -217.2578735351562 -616.6875 -212.0758666992188 -615.6123046875 -206.8475646972656 C -615.2070922851562 -204.8790588378906 -614.2152099609375 -204.2410583496094 -612.25439453125 -204.2633209228516 C -604.4699096679688 -204.3481903076172 -596.6851196289062 -204.2991943359375 -588.8988037109375 -204.2991790771484 C -588.7791748046875 -204.2991790771484 -588.658203125 -204.2991943359375 -588.5385131835938 -204.2992095947266 C -585.9558715820312 -204.3000335693359 -585.6320190429688 -204.5847625732422 -585.061767578125 -207.1402893066406 C -583.8446044921875 -212.5911102294922 -582.5780029296875 -218.03076171875 -581.3951416015625 -223.4895324707031 C -580.885498046875 -225.8384857177734 -579.514404296875 -227.3810272216797 -577.3338012695312 -228.1961822509766 C -571.110107421875 -230.5220031738281 -565.4614868164062 -233.8471832275391 -560.3201293945312 -238.0298156738281 C -558.1929321289062 -239.7598114013672 -556.0107421875 -240.1642150878906 -553.3922119140625 -239.2844543457031 C -548.1144409179688 -237.5121612548828 -542.764892578125 -235.952880859375 -537.4807739257812 -234.1981353759766 C -535.8906860351562 -233.6702117919922 -534.972412109375 -233.9779510498047 -534.1348876953125 -235.4527893066406 C -530.0551147460938 -242.6336059570312 -525.8956298828125 -249.7689514160156 -521.7600708007812 -256.9178466796875 C -521.4473876953125 -257.4578247070312 -521.0860595703125 -257.9722595214844 -521.1546630859375 -258.6422729492188 C -521.1163940429688 -259.5802307128906 -521.7911376953125 -260.0795288085938 -522.3829956054688 -260.6250915527344 C -526.5057983398438 -264.4232788085938 -530.6214599609375 -268.2294311523438 -534.7593994140625 -272.0116577148438 C -536.5468139648438 -273.6459350585938 -537.2670288085938 -275.5697631835938 -536.932861328125 -278.0216064453125 C -536.0618896484375 -284.4056091308594 -535.7882690429688 -290.8183288574219 -536.8721923828125 -297.203125 C -537.4457397460938 -300.5801696777344 -536.3170776367188 -303.0375671386719 -533.7536010742188 -305.2286071777344 C -529.921142578125 -308.5035705566406 -526.2928466796875 -312.0185852050781 -522.5831909179688 -315.4386901855469 C -520.7351684570312 -317.1423950195312 -520.6832885742188 -317.4909362792969 -521.9833984375 -319.7465515136719 C -525.9522705078125 -326.633056640625 -529.927490234375 -333.516357421875 -533.9075317382812 -340.396484375 C -535.1981201171875 -342.6282043457031 -535.4071044921875 -342.6974182128906 -537.9346313476562 -341.8943786621094 C -543.1246337890625 -340.244140625 -548.327392578125 -338.6337890625 -553.4966430664062 -336.9229125976562 C -555.8800048828125 -336.1347961425781 -558.007080078125 -336.3662109375 -559.9635620117188 -337.9581909179688 C -565.2540893554688 -342.263671875 -571.0391235351562 -345.7036743164062 -577.4367065429688 -348.1076965332031 C -579.5431518554688 -348.89892578125 -580.8727416992188 -350.4295043945312 -581.3688354492188 -352.7034606933594 C -582.5732421875 -358.2204895019531 -583.8438110351562 -363.7239379882812 -585.0816650390625 -369.2337951660156 C -585.6200561523438 -371.6257934570312 -586.0133056640625 -371.9512023925781 -588.4802856445312 -371.9519958496094 C -596.3860473632812 -371.9536437988281 -604.2911987304688 -371.9536437988281 -612.1969604492188 -371.9519958496094 C -614.7748413085938 -371.9512023925781 -615.107421875 -371.6736450195312 -615.672119140625 -369.1085510253906 C -616.8326416015625 -363.8348083496094 -618.0162353515625 -358.5658569335938 -619.1520385742188 -353.2864990234375 C -619.7214965820312 -350.6432495117188 -621.160400390625 -348.8789672851562 -623.7422485351562 -347.9035034179688 C -629.8247680664062 -345.6064147949219 -635.3753051757812 -342.3410339355469 -640.4009399414062 -338.2102661132812 C -642.5098876953125 -336.4769592285156 -644.7192993164062 -336.0751342773438 -647.3361206054688 -336.9580078125 C -652.4982299804688 -338.6999816894531 -657.7337036132812 -340.2210083007812 -662.8949584960938 -341.9661560058594 C -664.7611694335938 -342.5970458984375 -665.829345703125 -342.2413330078125 -666.8200073242188 -340.4754333496094 C -670.7114868164062 -333.5418701171875 -674.7369384765625 -326.6833190917969 -678.71142578125 -319.7968139648438 C -680.0490112304688 -317.4797668457031 -679.9931640625 -317.1391906738281 -678.05419921875 -315.3573608398438 C -673.9728393554688 -311.6062316894531 -669.8947143554688 -307.853515625 -665.8189697265625 -304.0968017578125 C -664.0929565429688 -302.5063781738281 -663.4453125 -300.60009765625 -663.77392578125 -298.2216491699219 C -664.6305541992188 -292.0266723632812 -664.9647216796875 -285.7918395996094 -663.8887329101562 -279.5992431640625 C -663.257080078125 -275.9613952636719 -664.2771606445312 -273.2607116699219 -667.0911254882812 -270.8806762695312 C -670.8925170898438 -267.6671142578125 -674.42431640625 -264.1345520019531 -678.153076171875 -260.8316650390625 C -679.6055297851562 -259.5451354980469 -679.8990478515625 -258.4253234863281 -678.8557739257812 -256.6650085449219 C -674.7401733398438 -249.7171173095703 -670.717041015625 -242.7133483886719 -666.7505493164062 -235.6792907714844 C -665.8013305664062 -233.9946899414062 -664.7484130859375 -233.6517944335938 -662.95556640625 -234.2563781738281 C -657.912353515625 -235.9560546875 -652.774169921875 -237.3805847167969 -647.760498046875 -239.1608276367188 C -646.7505493164062 -239.5196533203125 -645.8090209960938 -239.693115234375 -644.9134521484375 -239.693115234375 Z" stroke="none" fill="#08246c"/>
    </g>
    <g id="Path_9954" data-name="Path 9954" transform="translate(-20.235 -16.201)" fill="#4ec9ff">
      <path d="M -586.17431640625 -241.4772033691406 C -586.1747436523438 -241.4772033691406 -586.1751708984375 -241.4772033691406 -586.1756591796875 -241.4772033691406 C -588.18359375 -241.4773254394531 -589.8097534179688 -242.7313232421875 -590.4194946289062 -244.7498016357422 C -590.504150390625 -245.0297698974609 -590.5509643554688 -245.3746948242188 -590.6051025390625 -245.7740936279297 C -590.6242065429688 -245.9151153564453 -590.6437377929688 -246.0590667724609 -590.666015625 -246.2093811035156 C -590.439208984375 -247.2262420654297 -590.2125854492188 -248.2500152587891 -589.9849243164062 -249.2783966064453 C -589.4451904296875 -251.7165069580078 -588.8870239257812 -254.2376098632812 -588.313720703125 -256.7219848632812 C -585.41357421875 -269.2951965332031 -582.4529418945312 -282.0762329101562 -579.5897827148438 -294.4364929199219 L -578.670166015625 -298.4067077636719 C -578.1019287109375 -300.8604125976562 -576.3765869140625 -302.3846740722656 -574.1674194335938 -302.3846740722656 C -573.7897338867188 -302.3846740722656 -573.4000854492188 -302.3390808105469 -573.00927734375 -302.2492065429688 C -571.8400268554688 -301.9801025390625 -570.917724609375 -301.2779541015625 -570.3421630859375 -300.21875 C -569.7424926757812 -299.1151733398438 -569.5924682617188 -297.7244262695312 -569.9195556640625 -296.3026733398438 C -571.6161499023438 -288.9332275390625 -573.310791015625 -281.56298828125 -575.0054931640625 -274.1927490234375 C -577.1658325195312 -264.7972412109375 -579.3997192382812 -255.0818328857422 -581.60107421875 -245.5278015136719 C -582.3575439453125 -242.2439422607422 -584.4496459960938 -241.5131378173828 -586.071533203125 -241.4783020019531 C -586.10595703125 -241.4775695800781 -586.1400146484375 -241.4772033691406 -586.17431640625 -241.4772033691406 Z" stroke="none"/>
      <path d="M -574.1675415039062 -303.8846740722656 L -574.1675415039062 -300.8846740722656 C -575.6635131835938 -300.8846740722656 -576.8004150390625 -299.8318481445312 -577.2088623046875 -298.0682067871094 L -578.1300659179688 -294.0911254882812 C -580.9926147460938 -281.7334594726562 -583.95263671875 -268.955078125 -586.8521118164062 -256.3846740722656 C -587.4240112304688 -253.9066162109375 -587.9814453125 -251.3886413574219 -588.5205078125 -248.9535522460938 C -588.7283935546875 -248.0145874023438 -588.9353637695312 -247.0794372558594 -589.1424560546875 -246.14990234375 C -589.1342163085938 -246.0900573730469 -589.1263427734375 -246.0319519042969 -589.1187133789062 -245.9756774902344 C -589.0750732421875 -245.6537475585938 -589.0338134765625 -245.3497009277344 -588.9835815429688 -245.18359375 C -588.5662231445312 -243.802001953125 -587.5165405273438 -242.9771728515625 -586.1756591796875 -242.9771728515625 C -586.1517333984375 -242.9771728515625 -586.1277465820312 -242.9774169921875 -586.103759765625 -242.9779357910156 C -585.0786743164062 -242.9999694824219 -583.6482543945312 -243.3231506347656 -583.0628051757812 -245.8645629882812 C -580.8615112304688 -255.4181213378906 -578.6277465820312 -265.1332092285156 -576.4674682617188 -274.5284118652344 C -574.772705078125 -281.8989562988281 -573.0780029296875 -289.2694702148438 -571.38134765625 -296.6390075683594 C -571.1363525390625 -297.703857421875 -571.2353515625 -298.7208251953125 -571.66015625 -299.5025939941406 C -571.9142456054688 -299.97021484375 -572.4129638671875 -300.57275390625 -573.3455200195312 -300.7873840332031 C -573.6261596679688 -300.8519287109375 -573.9027099609375 -300.8846435546875 -574.1675415039062 -300.8846740722656 L -574.1675415039062 -303.8846740722656 M -574.16748046875 -303.8846435546875 C -573.681640625 -303.8846435546875 -573.1815795898438 -303.8280029296875 -572.6730346679688 -303.7110290527344 C -569.4085083007812 -302.959716796875 -567.6123046875 -299.640869140625 -568.457763671875 -295.9663391113281 C -572.3540649414062 -279.0420227050781 -576.239990234375 -262.114501953125 -580.139404296875 -245.1909790039062 C -580.8963623046875 -241.9048767089844 -583.0299682617188 -240.0432739257812 -586.039306640625 -239.9786376953125 C -588.7562255859375 -239.9211120605469 -591.035400390625 -241.6017761230469 -591.8554077148438 -244.3160400390625 C -592.032470703125 -244.9014892578125 -592.0699462890625 -245.5283813476562 -592.1920166015625 -246.2581787109375 C -591.3999633789062 -249.8043212890625 -590.6111450195312 -253.4373779296875 -589.7752685546875 -257.0592956542969 C -586.5697021484375 -270.9567260742188 -583.3497924804688 -284.8509521484375 -580.1314697265625 -298.7451782226562 C -579.3958129882812 -301.921630859375 -577.0272827148438 -303.8847045898438 -574.16748046875 -303.8846435546875 Z" stroke="none" fill="#08246c"/>
    </g>
    <g id="Path_9955" data-name="Path 9955" transform="translate(-10.12 -18.221)" fill="#4ec9ff">
      <path d="M -616.37890625 -247.448486328125 C -617.4384155273438 -247.448486328125 -618.4247436523438 -247.8921813964844 -619.48291015625 -248.8448028564453 C -620.7255249023438 -249.9635620117188 -621.96875 -251.0817718505859 -623.2119750976562 -252.1999969482422 C -628.3563842773438 -256.8270568847656 -633.6759643554688 -261.6116333007812 -638.8640747070312 -266.3612670898438 C -640.0459594726562 -267.4429626464844 -640.6705322265625 -268.6705017089844 -640.6705322265625 -269.9112548828125 C -640.6704711914062 -271.1432189941406 -640.0533447265625 -272.3591613769531 -638.8858642578125 -273.4276428222656 C -633.0112915039062 -278.8048400878906 -626.6255493164062 -284.5718994140625 -619.3635864257812 -291.0585021972656 C -618.3779296875 -291.9385681152344 -617.2413940429688 -292.4038696289062 -616.0769653320312 -292.4038696289062 C -614.8521728515625 -292.4038696289062 -613.6908569335938 -291.8706970214844 -612.8070678710938 -290.9026184082031 C -611.0079345703125 -288.931640625 -611.207763671875 -286.30517578125 -613.3045043945312 -284.3670654296875 C -617.2968139648438 -280.6776733398438 -621.6099243164062 -276.7973937988281 -626.8779296875 -272.1557922363281 C -627.2940063476562 -271.7891845703125 -628.159912109375 -271.0263061523438 -628.1588134765625 -269.9014282226562 C -628.1578979492188 -268.9001159667969 -627.4900512695312 -268.1857299804688 -626.9083862304688 -267.6752319335938 C -623.0939331054688 -264.3301086425781 -619.2630004882812 -260.8665161132812 -615.5582275390625 -257.5169677734375 C -614.8525390625 -256.8789672851562 -614.1468505859375 -256.240966796875 -613.4408569335938 -255.6033477783203 C -611.740234375 -254.0679016113281 -611.2461547851562 -252.4353942871094 -611.8857421875 -250.465576171875 C -612.4708862304688 -248.6647033691406 -614.1739501953125 -247.4545288085938 -616.1235961914062 -247.4545288085938 L -616.158935546875 -247.4545288085938 L -616.1942138671875 -247.4528656005859 C -616.255859375 -247.449951171875 -616.3179931640625 -247.448486328125 -616.37890625 -247.448486328125 Z" stroke="none"/>
      <path d="M -616.0773315429688 -290.9038696289062 C -616.8671264648438 -290.9038696289062 -617.6581420898438 -290.5703735351562 -618.3643188476562 -289.9397888183594 C -625.6217041015625 -283.4573059082031 -632.0030517578125 -277.6942138671875 -637.8731689453125 -272.3210754394531 C -638.4650268554688 -271.7794494628906 -639.1704711914062 -270.9216918945312 -639.1705322265625 -269.9112243652344 C -639.1705322265625 -268.8896179199219 -638.4532470703125 -268.0186462402344 -637.8511962890625 -267.4676513671875 C -632.6686401367188 -262.7230834960938 -627.3522338867188 -257.9413452148438 -622.2108764648438 -253.3170166015625 C -620.966796875 -252.1980285644531 -619.7227172851562 -251.0790710449219 -618.4793090820312 -249.9595947265625 C -617.4838256835938 -249.0634155273438 -616.8339233398438 -248.948486328125 -616.37890625 -248.948486328125 C -616.3413696289062 -248.948486328125 -616.3030395507812 -248.9494018554688 -616.264892578125 -248.9512023925781 L -616.1942749023438 -248.9545288085938 L -616.1235961914062 -248.9545288085938 C -614.8258056640625 -248.9545288085938 -613.696044921875 -249.7481689453125 -613.3124389648438 -250.9288330078125 C -612.9815063476562 -251.9480285644531 -612.8897705078125 -253.0848388671875 -614.4462280273438 -254.4901733398438 C -615.1527709960938 -255.1282653808594 -615.8590087890625 -255.7667541503906 -616.5652465820312 -256.4052734375 C -620.2655639648438 -259.7507629394531 -624.0918579101562 -263.2101440429688 -627.8978271484375 -266.5478515625 C -628.3789672851562 -266.9701232910156 -629.6571044921875 -268.0918273925781 -629.6588134765625 -269.8999633789062 C -629.6605834960938 -271.7033081054688 -628.359375 -272.8497314453125 -627.8695678710938 -273.28125 C -622.610595703125 -277.9148864746094 -618.305908203125 -281.7875671386719 -614.3226928710938 -285.4685668945312 C -612.8356323242188 -286.8431396484375 -612.679443359375 -288.537841796875 -613.9148559570312 -289.8912963867188 C -614.5195922851562 -290.5536499023438 -615.2672729492188 -290.90380859375 -616.0770874023438 -290.9038696289062 L -616.0773315429688 -290.9038696289062 M -616.0769653320312 -293.9038696289062 C -614.4666748046875 -293.9037475585938 -612.8994140625 -293.2285461425781 -611.6992797851562 -291.9139404296875 C -609.376708984375 -289.3695983886719 -609.5449829101562 -285.799560546875 -612.2863159179688 -283.2655639648438 C -616.764892578125 -279.1268005371094 -621.3112182617188 -275.0614013671875 -625.8862915039062 -271.0303344726562 C -626.8649291992188 -270.1681213378906 -626.9550170898438 -269.7119140625 -625.9189453125 -268.8026428222656 C -621.3814086914062 -264.8233947753906 -616.914794921875 -260.7620239257812 -612.4354858398438 -256.716552734375 C -610.4151611328125 -254.8924560546875 -609.5896606445312 -252.6799011230469 -610.4590454101562 -250.0023498535156 C -611.250244140625 -247.5672607421875 -613.5377807617188 -245.9545288085938 -616.1235961914062 -245.9545288085938 C -617.849609375 -245.8726196289062 -619.2550048828125 -246.621337890625 -620.4865112304688 -247.72998046875 C -626.9606323242188 -253.5588684082031 -633.45068359375 -259.3717651367188 -639.876953125 -265.2548828125 C -642.9270629882812 -268.0465087890625 -642.935791015625 -271.7545776367188 -639.8985595703125 -274.5341796875 C -633.4259643554688 -280.4588012695312 -626.9063720703125 -286.3323364257812 -620.3628540039062 -292.1771850585938 C -619.0632934570312 -293.3375549316406 -617.5521240234375 -293.9039611816406 -616.0769653320312 -293.9038696289062 Z" stroke="none" fill="#08246c"/>
    </g>
    <g id="Path_9956" data-name="Path 9956" transform="translate(-28.329 -18.232)" fill="#4ec9ff">
      <path d="M -546.248779296875 -247.3977203369141 C -546.2489013671875 -247.3977203369141 -546.2490234375 -247.3977203369141 -546.2491455078125 -247.3977203369141 C -547.4954833984375 -247.3978118896484 -548.6696166992188 -247.9544219970703 -549.5553588867188 -248.9650115966797 C -550.3953247070312 -249.9232635498047 -550.788330078125 -251.0384368896484 -550.6920166015625 -252.1900482177734 C -550.5918579101562 -253.3870086669922 -549.9755249023438 -254.5362701416016 -548.9096069335938 -255.5135498046875 C -543.8128051757812 -260.1863708496094 -539.5403442382812 -264.0239868164062 -535.4640502929688 -267.5906982421875 C -534.8115234375 -268.1616516113281 -534.1444702148438 -268.8816528320312 -534.1442260742188 -269.8928833007812 C -534.1439819335938 -270.9021606445312 -534.8150024414062 -271.6259765625 -535.471435546875 -272.2008972167969 C -539.3220825195312 -275.5746154785156 -543.1846313476562 -279.0746459960938 -546.9201049804688 -282.4594116210938 C -547.5900268554688 -283.0664672851562 -548.2599487304688 -283.6735229492188 -548.93017578125 -284.2802124023438 C -550.4877319335938 -285.6901245117188 -550.9850463867188 -287.1784362792969 -550.4954223632812 -288.9640197753906 C -549.9061279296875 -291.1115112304688 -548.3016967773438 -292.3433227539062 -546.0936889648438 -292.3433227539062 L -546.0711059570312 -292.34326171875 L -546.0354614257812 -292.3431396484375 L -545.9998168945312 -292.3446960449219 C -545.9456176757812 -292.3470764160156 -545.8909912109375 -292.3482666015625 -545.8374633789062 -292.3482666015625 C -544.83251953125 -292.3482666015625 -543.891357421875 -291.9225769042969 -542.8756103515625 -291.0085754394531 C -541.4386596679688 -289.7158508300781 -540.0009155273438 -288.4241638183594 -538.5631713867188 -287.1324462890625 C -533.6519165039062 -282.7201538085938 -528.5735473632812 -278.1576232910156 -523.6178588867188 -273.6308288574219 C -522.3204345703125 -272.4454956054688 -521.6346435546875 -271.1535034179688 -521.6347045898438 -269.8946228027344 C -521.634765625 -268.6350402832031 -522.3213500976562 -267.3421630859375 -523.6202392578125 -266.1557312011719 C -529.7025146484375 -260.5991516113281 -536.0023193359375 -254.9190368652344 -542.8797607421875 -248.790771484375 C -543.9027709960938 -247.8795013427734 -545.06787109375 -247.3977203369141 -546.248779296875 -247.3977203369141 Z" stroke="none"/>
      <path d="M -545.8374633789062 -290.8482666015625 C -545.8692626953125 -290.8482666015625 -545.90185546875 -290.8475341796875 -545.934326171875 -290.8461303710938 L -546.0062255859375 -290.8429870605469 L -546.0936889648438 -290.8433227539062 C -547.6183471679688 -290.8433227539062 -548.6402587890625 -290.0560913085938 -549.048828125 -288.5673217773438 C -549.2208862304688 -287.9400024414062 -549.2224731445312 -287.4217529296875 -549.0538940429688 -286.9363708496094 C -548.8788452148438 -286.4322814941406 -548.49853515625 -285.9127502441406 -547.923583984375 -285.3922729492188 C -547.2531127929688 -284.7854309082031 -546.5830078125 -284.1781921386719 -545.912841796875 -283.5709838867188 C -542.1820068359375 -280.1903076171875 -538.3241577148438 -276.6945495605469 -534.4830932617188 -273.3292846679688 C -533.9800415039062 -272.888671875 -532.643798828125 -271.7183227539062 -532.6442260742188 -269.8925476074219 C -532.6446533203125 -268.0645446777344 -533.9752807617188 -266.9002075195312 -534.476318359375 -266.4618225097656 C -538.543701171875 -262.9029235839844 -542.807861328125 -259.0726928710938 -547.8958740234375 -254.4078979492188 C -548.6790771484375 -253.6898498535156 -549.1290283203125 -252.8796997070312 -549.1972045898438 -252.0650024414062 C -549.2587890625 -251.3286743164062 -548.9926147460938 -250.5986328125 -548.42724609375 -249.9536743164062 C -547.8218383789062 -249.2628784179688 -547.0686645507812 -248.897705078125 -546.249267578125 -248.897705078125 C -545.4417114257812 -248.897705078125 -544.6214599609375 -249.2481079101562 -543.877685546875 -249.9106750488281 C -537.0049438476562 -256.0347290039062 -530.7096557617188 -261.7107543945312 -524.6318359375 -267.2632446289062 C -523.9489135742188 -267.8870849609375 -523.134765625 -268.8500061035156 -523.1347045898438 -269.8946838378906 C -523.1346435546875 -270.9385070800781 -523.9476318359375 -271.9003601074219 -524.6295166015625 -272.5233154296875 C -529.5806884765625 -277.0460205078125 -534.6568603515625 -281.6065063476562 -539.5658569335938 -286.016845703125 C -541.0037841796875 -287.3087158203125 -542.4417114257812 -288.6005554199219 -543.87890625 -289.8935546875 C -544.8192749023438 -290.7396850585938 -545.4195556640625 -290.8482360839844 -545.8374633789062 -290.8482666015625 M -545.8374633789062 -293.8482666015625 C -544.2801513671875 -293.8482055664062 -543.0035400390625 -293.1416015625 -541.8722534179688 -292.1236267089844 C -535.4420166015625 -286.3386535644531 -528.993408203125 -280.5727844238281 -522.606201171875 -274.7383117675781 C -519.3104858398438 -271.7273559570312 -519.3104858398438 -268.060791015625 -522.6085815429688 -265.0482177734375 C -528.9949951171875 -259.2137756347656 -535.4236450195312 -253.4255676269531 -541.8818359375 -247.6708679199219 C -544.6927490234375 -245.1671142578125 -548.3871459960938 -245.3562316894531 -550.6834106445312 -247.9763488769531 C -552.9437866210938 -250.5549926757812 -552.6853637695312 -254.0867919921875 -549.9232788085938 -256.6191711425781 C -545.4742431640625 -260.6981201171875 -540.9940795898438 -264.7451477050781 -536.4517822265625 -268.7195739746094 C -535.3606567382812 -269.6743469238281 -535.386962890625 -270.1329345703125 -536.459716796875 -271.072509765625 C -540.9996948242188 -275.0501708984375 -545.4614868164062 -279.1171264648438 -549.9368286132812 -283.1681518554688 C -551.7800903320312 -284.8367309570312 -552.6279296875 -286.8594665527344 -551.9420166015625 -289.3607177734375 C -551.1755981445312 -292.1536560058594 -548.96337890625 -293.8433227539062 -546.0936889648438 -293.8433227539062 C -546.0843505859375 -293.8433227539062 -546.0746459960938 -293.8433227539062 -546.0653076171875 -293.84326171875 C -545.9886474609375 -293.8466186523438 -545.9127807617188 -293.8482666015625 -545.8374633789062 -293.8482666015625 Z" stroke="none" fill="#08246c"/>
    </g>
  </g>
</svg>
